<?xml version="1.0" standalone="no"?>
<!DOCTYPE svg PUBLIC "-//W3C//DTD SVG 20010904//EN"
 "http://www.w3.org/TR/2001/REC-SVG-20010904/DTD/svg10.dtd">
<svg version="1.0" xmlns="http://www.w3.org/2000/svg"
 width="327.000000pt" height="404.000000pt" viewBox="0 0 327.000000 404.000000"
 preserveAspectRatio="xMidYMid meet">

<g transform="translate(0.000000,404.000000) scale(0.100000,-0.100000)"
fill="#000000" stroke="none">
<path d="M10 2015 l0 -2015 1628 2 1627 3 0 2010 0 2010 -1627 3 -1628 2 0
-2015z m1819 1806 c-8 -25 -13 -49 -12 -53 1 -3 -4 -11 -11 -18 -11 -8 -9 5 5
50 25 82 24 89 -10 56 -21 -20 -30 -24 -34 -14 -6 16 -37 -53 -37 -82 0 -17
-2 -19 -14 -8 -12 11 -12 15 0 29 8 8 14 21 14 28 0 7 10 26 21 43 15 21 24
26 29 18 6 -10 14 -7 31 9 21 20 24 20 27 5 2 -9 -2 -37 -9 -63z m-180 -3 c-1
-17 -2 -19 -6 -5 -2 9 -7 17 -10 17 -3 0 -12 -8 -20 -17 -13 -16 -13 -16 -3 5
6 12 17 22 25 22 9 0 15 -9 14 -22z m-39 -54 c0 -21 -20 -17 -21 4 0 12 -3 10
-10 -8 -6 -13 -8 -40 -6 -60 2 -19 2 -27 0 -17 -2 9 -9 17 -14 17 -5 0 -9 12
-9 28 -1 26 -1 26 -15 8 -8 -11 -15 -33 -15 -49 0 -16 -4 -26 -10 -22 -15 9
-11 -27 5 -49 20 -27 18 -46 -2 -21 -15 19 -15 18 -9 -15 5 -35 5 -35 -9 -10
-8 14 -15 34 -16 45 -1 14 -4 11 -9 -10 -8 -28 -8 -27 -7 10 1 22 7 40 12 39
10 -1 21 19 45 84 8 21 18 31 26 28 8 -3 19 4 25 15 8 16 13 18 25 8 8 -6 14
-18 14 -25z m376 -40 c16 -32 23 -38 36 -31 11 7 21 4 36 -11 24 -24 29 -57
10 -68 -8 -5 -9 0 -6 14 4 15 2 22 -8 22 -8 0 -14 10 -14 23 -1 22 -1 22 -16
2 -8 -11 -12 -25 -10 -32 3 -7 1 -13 -4 -13 -6 0 -10 8 -10 19 0 24 -27 88
-40 96 -12 7 -13 -7 -2 -20 14 -17 32 -65 24 -65 -4 0 -15 12 -24 28 -15 23
-18 24 -18 7 0 -11 10 -38 21 -60 16 -30 17 -36 5 -26 -13 11 -16 11 -16 0 0
-8 -6 -5 -16 7 -11 13 -17 15 -20 7 -8 -18 -24 -16 -24 2 0 19 -9 19 -32 -2
-10 -9 -18 -11 -18 -5 0 6 -7 9 -17 5 -14 -5 -15 -1 -10 26 9 46 -18 54 -50
15 l-23 -29 0 27 c0 14 -2 33 -5 41 -4 8 0 14 10 14 13 0 15 -6 10 -26 -6 -24
-6 -25 13 -8 20 19 52 23 52 7 0 -18 29 -10 40 11 15 26 7 34 -18 20 -27 -15
-37 -14 -24 2 6 7 22 13 36 15 34 2 35 -26 1 -58 -14 -13 -25 -27 -25 -31 0
-9 20 -6 38 4 6 5 18 5 24 1 25 -16 49 -12 43 8 -9 27 6 109 19 105 6 -1 20
-21 32 -43z m-762 -17 c4 -19 3 -26 -4 -22 -5 3 -10 16 -10 28 0 34 -18 7 -22
-33 l-3 -35 -18 30 -18 30 6 -46 c5 -41 3 -47 -15 -52 -15 -4 -20 0 -20 14 0
10 5 19 10 19 6 0 10 15 10 34 0 36 17 57 29 37 5 -7 12 -2 20 15 13 30 25 24
35 -19z m944 27 c5 3 18 -11 28 -32 10 -20 20 -39 21 -41 2 -2 9 2 18 9 25 21
45 5 44 -37 -1 -26 -3 -30 -6 -13 -8 48 -12 53 -28 40 -21 -17 -19 -43 5 -58
11 -7 20 -22 20 -35 1 -22 1 -22 15 -2 24 34 58 64 67 59 12 -8 10 -54 -3 -54
-6 0 -9 9 -6 20 3 11 2 20 -3 20 -13 0 -23 -32 -25 -77 -3 -52 19 -62 52 -24
18 21 22 23 23 9 0 -18 20 -26 20 -8 0 5 9 14 20 20 11 6 20 7 19 3 -4 -24 3
-43 15 -43 17 0 46 38 46 60 -1 8 -8 2 -17 -15 -13 -23 -18 -26 -21 -13 -2 9
2 26 7 37 14 25 14 88 1 96 -6 3 -10 -4 -10 -17 -1 -22 -1 -22 -15 -4 -14 18
-15 16 -15 -27 0 -26 -4 -47 -10 -47 -5 0 -10 8 -10 18 0 12 -8 8 -30 -18 -16
-19 -30 -30 -30 -23 0 7 13 27 28 45 15 18 33 46 40 61 7 15 16 26 21 23 5 -3
12 2 16 12 6 16 7 16 21 -2 8 -11 14 -33 14 -49 0 -15 4 -36 9 -45 4 -9 11
-36 15 -59 6 -39 3 -46 -28 -80 -33 -37 -59 -92 -38 -79 6 4 16 -2 22 -13 7
-13 16 -18 27 -14 11 4 14 3 9 -5 -4 -7 -13 -12 -20 -12 -23 0 -39 -27 -28
-47 7 -11 7 -24 1 -36 -10 -17 -8 -17 28 -2 21 9 44 22 52 30 18 18 7 47 -14
38 -12 -4 -13 -8 -5 -13 17 -10 -4 -22 -24 -14 -25 10 -19 24 19 39 47 20 77
73 34 62 -19 -5 -20 -4 -5 18 9 14 16 29 16 35 0 18 -18 11 -25 -10 -3 -11
-10 -20 -15 -20 -5 0 -7 8 -3 18 6 16 5 16 -13 1 -10 -9 -26 -20 -34 -24 -13
-8 -13 -7 0 10 19 22 77 48 91 39 6 -3 8 -17 5 -30 -4 -15 -2 -24 5 -24 7 0 9
-10 5 -27 -12 -53 -14 -128 -4 -141 8 -9 8 -19 0 -35 -16 -34 -21 -66 -11 -73
5 -3 9 -1 9 5 0 5 12 24 27 41 24 29 28 31 39 16 8 -11 14 -13 19 -7 12 20 25
11 25 -16 0 -34 15 -60 24 -44 4 6 2 11 -4 11 -6 0 -8 5 -5 10 3 6 10 10 16
10 13 0 12 -47 -2 -52 -7 -2 -7 -11 0 -28 l10 -25 7 23 c5 17 10 20 19 12 9
-8 15 -8 20 0 11 18 34 11 41 -14 3 -14 12 -27 20 -30 8 -3 14 -12 14 -20 0
-22 -22 -66 -33 -66 -5 0 -2 11 7 25 27 40 18 73 -12 43 -9 -9 -12 -5 -12 20
0 31 -13 42 -25 22 -4 -6 -10 -8 -15 -5 -16 10 -21 -47 -5 -64 19 -22 20 -37
0 -21 -13 10 -15 9 -15 -9 0 -12 5 -32 11 -43 10 -18 9 -20 -7 -14 -17 7 -17
6 1 -14 22 -24 14 -38 -9 -15 -9 9 -17 31 -17 48 -1 18 -3 24 -6 15 -5 -20
-18 -23 -29 -7 -15 25 -22 172 -10 224 l7 30 -15 -25 c-8 -14 -15 -33 -16 -43
0 -26 -28 -33 -44 -11 -13 17 -14 16 -21 -6 -4 -13 -18 -33 -31 -43 l-24 -18
25 -47 c25 -46 25 -46 2 -19 -20 23 -25 25 -41 14 -14 -10 -15 -17 -7 -40 6
-16 7 -26 2 -23 -5 4 -17 32 -27 64 -10 31 -25 62 -33 68 -12 10 -8 15 25 32
44 23 88 61 80 70 -3 3 -14 -2 -24 -11 -10 -10 -21 -14 -25 -11 -3 3 -23 -6
-44 -20 -41 -28 -53 -32 -53 -16 0 6 5 10 11 10 14 0 69 56 69 70 0 18 -19 11
-44 -17 -14 -15 -28 -24 -31 -21 -3 3 5 18 19 33 15 16 26 32 26 38 0 10 -4 7
-80 -50 -24 -18 -48 -33 -54 -33 -6 0 6 12 27 27 20 14 37 30 37 34 0 4 16 16
35 28 22 13 35 28 35 41 0 26 -12 25 -36 -1 -10 -11 -28 -26 -39 -31 -11 -6 4
14 33 45 28 31 52 64 52 74 -1 15 -5 13 -25 -10 -29 -32 -31 -25 -10 26 20 49
19 64 -3 44 -10 -10 -25 -17 -33 -17 -9 1 -4 9 12 23 27 22 55 67 43 67 -4 0
-13 -8 -21 -17 -12 -16 -13 -13 -7 22 l7 40 -21 -25 -21 -25 -9 25 c-9 24 -9
24 -16 3 -4 -12 -5 -40 -2 -62 3 -28 0 -45 -10 -56 -18 -17 -62 -30 -71 -21
-4 3 2 6 13 6 23 0 64 27 64 41 0 6 -4 7 -10 4 -6 -4 -10 10 -10 34 0 49 -21
55 -45 14 -16 -28 -16 -28 -11 -3 21 93 18 118 -12 88 -9 -9 -12 -6 -12 14 0
34 -19 47 -27 19 -8 -32 -21 -25 -33 19 -10 38 -30 55 -30 28 0 -7 -5 -5 -11
5 -16 28 -32 9 -24 -30 10 -57 -10 -29 -25 33 -11 45 -11 59 -2 62 7 2 10 8 7
13 -3 5 -1 18 5 29 9 17 14 19 25 10 8 -7 18 -9 23 -6z m-524 -46 c-16 -31 -9
-38 11 -11 11 15 15 15 29 4 9 -8 14 -16 11 -19 -2 -3 -11 1 -20 8 -13 11 -15
8 -15 -21 l-1 -34 -21 28 c-16 22 -23 26 -30 15 -7 -9 -8 -8 -6 7 2 11 10 20
18 20 9 0 16 12 18 29 3 21 6 26 12 16 5 -8 3 -25 -6 -42z m-394 -37 c0 -10 7
-21 15 -25 8 -3 15 -13 15 -23 0 -15 -1 -15 -14 2 -8 11 -20 16 -29 12 -21 -8
-35 32 -16 44 21 13 29 11 29 -10z m317 -46 c-2 -25 -8 -49 -12 -53 -4 -4 -5
11 -2 33 4 22 7 46 7 53 0 6 3 12 6 12 3 0 4 -20 1 -45z m-231 -32 c3 -50 2
-56 -10 -41 -12 16 -14 15 -24 -15 l-10 -32 -1 32 c-1 17 6 38 14 47 8 8 15
29 15 47 0 53 11 25 16 -38z m50 42 c5 -12 9 -13 21 -4 21 18 37 -3 28 -38
l-8 -28 -7 30 -6 30 -17 -30 -16 -30 -1 38 c0 39 -20 53 -20 15 -1 -22 -1 -22
-11 -4 -9 14 -8 20 2 27 20 13 29 11 35 -6z m369 -21 c9 -15 12 -23 6 -20 -11
7 -35 46 -28 46 3 0 12 -12 22 -26z m-500 -24 c-9 -41 -17 -33 -9 9 4 17 9 30
11 27 3 -2 2 -19 -2 -36z m585 36 c0 -3 -4 -8 -10 -11 -5 -3 -10 -1 -10 4 0 6
5 11 10 11 6 0 10 -2 10 -4z m45 -4 c6 -4 20 -19 32 -34 l21 -28 6 26 7 26 19
-25 c24 -30 26 -45 5 -27 -28 23 -28 2 -1 -47 22 -38 23 -43 6 -24 -29 33 -49
14 -25 -23 10 -15 14 -30 10 -34 -4 -4 -10 -1 -12 6 -9 24 -35 44 -46 33 -16
-16 0 -54 47 -103 50 -55 65 -60 59 -20 -4 26 -4 26 11 -4 8 -18 22 -37 33
-43 31 -18 -1 -12 -43 8 -21 11 -52 33 -68 50 -17 17 -39 31 -50 31 -16 0 -17
-3 -8 -12 17 -17 15 -25 -5 -25 -10 0 -23 7 -30 16 -11 14 -12 13 -13 -6 0
-13 4 -23 10 -23 5 0 18 -9 28 -20 17 -18 20 -19 32 -5 19 23 43 18 75 -15 35
-37 22 -40 -16 -4 -23 22 -30 24 -48 15 -12 -7 -21 -22 -21 -34 0 -12 -9 -39
-20 -60 -27 -51 -25 -68 5 -32 18 21 25 42 25 73 0 29 4 42 14 42 18 0 39 -26
31 -39 -12 -20 15 -51 44 -51 17 0 31 -7 35 -16 4 -10 2 -13 -6 -8 -7 4 -25 9
-41 11 -26 3 -28 1 -17 -12 7 -9 15 -13 18 -10 3 3 10 -4 16 -16 6 -11 23 -28
39 -37 22 -14 31 -15 47 -4 32 20 45 3 19 -24 -26 -28 -20 -30 26 -9 38 19 55
51 55 107 0 33 -3 39 -16 34 -21 -8 -59 16 -75 46 -9 20 -7 19 15 -4 26 -27
66 -38 66 -18 0 5 -9 14 -20 20 -11 6 -20 15 -20 20 0 6 9 5 20 -2 24 -15 29
-10 35 31 3 26 -3 40 -31 70 -19 21 -34 41 -34 45 0 3 17 -13 38 -36 20 -24
40 -44 45 -46 9 -5 9 -46 0 -56 -13 -12 -13 -40 -2 -83 10 -35 16 -43 35 -43
28 0 74 62 74 100 -1 24 -1 24 -15 6 -15 -19 -15 -19 -15 5 l-1 24 -25 -30
c-22 -26 -25 -27 -19 -8 5 19 3 22 -12 16 -10 -3 -15 -3 -11 1 3 4 13 8 21 10
8 1 23 8 33 16 13 12 18 12 21 3 3 -7 8 -13 13 -13 13 0 18 38 7 49 -8 8 -6
11 8 11 10 0 27 7 37 17 11 9 18 11 18 5 0 -7 -9 -17 -20 -24 -11 -7 -20 -21
-20 -32 0 -19 0 -19 23 0 l22 19 -22 -26 c-14 -15 -26 -45 -30 -74 -7 -55 -30
-83 -74 -92 -19 -4 -34 -14 -39 -29 -5 -12 -29 -38 -54 -56 -52 -38 -55 -45
-23 -57 29 -12 44 3 26 26 -13 17 -13 17 4 4 14 -11 21 -11 29 -3 7 7 19 12
28 11 10 0 11 -2 3 -6 -7 -2 -13 -9 -13 -14 0 -6 9 -5 23 1 20 10 20 9 -3 -9
-25 -20 -25 -21 -3 -21 12 0 25 5 28 11 5 6 11 4 19 -7 10 -12 15 -14 20 -5 4
6 16 9 26 6 20 -6 35 9 25 25 -4 6 -15 6 -30 0 -35 -13 -31 -5 11 19 42 25 51
26 34 6 -23 -27 -1 -29 22 -2 20 23 25 24 42 12 10 -8 15 -19 11 -25 -5 -8
-12 -5 -22 7 -14 17 -14 16 -9 -7 3 -14 6 -32 6 -40 0 -13 1 -13 10 0 11 17
12 15 14 -22 1 -15 -2 -24 -6 -22 -4 3 -8 0 -8 -7 0 -10 -3 -10 -12 -1 -9 9
-14 7 -24 -5 -9 -14 -15 -15 -26 -5 -20 16 -25 9 -20 -33 4 -31 6 -34 17 -19
11 15 13 13 19 -18 3 -19 4 -43 0 -52 -3 -9 -1 -23 6 -31 11 -13 10 -14 -4 -9
-12 5 -16 16 -14 40 4 44 -15 44 -23 -1 -3 -19 -3 -35 0 -35 3 0 15 -12 25
-27 11 -14 14 -23 7 -19 -7 5 -22 -1 -37 -15 -13 -12 -24 -17 -24 -11 0 6 5
14 10 17 6 3 10 14 10 23 0 13 -3 12 -16 -6 -8 -12 -20 -22 -25 -22 -6 0 -1
12 11 27 27 35 10 41 -29 12 -44 -32 -49 -17 -7 21 19 18 38 45 41 61 4 16 11
27 16 23 5 -3 9 2 9 10 0 24 -8 19 -30 -16 -11 -18 -20 -27 -20 -20 0 22 -29
13 -51 -18 -24 -31 -46 -31 -29 0 15 29 12 35 -9 16 -19 -17 -39 -7 -26 14 3
6 2 10 -4 10 -6 0 -13 -11 -17 -25 -7 -27 -24 -34 -24 -10 0 9 11 27 24 40 16
16 21 27 14 31 -6 4 -19 -4 -30 -17 l-19 -24 12 28 c15 33 4 48 -16 21 -16
-21 -20 -8 -6 15 11 17 51 23 48 7 -1 -6 10 -12 26 -14 15 -2 27 -7 27 -12 0
-4 9 -6 20 -3 21 6 28 23 9 23 -5 0 -7 5 -4 10 3 6 18 7 33 4 26 -6 26 -6 7 9
-11 9 -37 17 -57 17 -20 0 -48 4 -62 10 -21 8 -24 7 -19 -8 4 -10 -2 -8 -14 7
-14 17 -25 22 -39 17 -10 -4 -14 -10 -9 -14 17 -12 16 -39 -1 -46 -12 -4 -15
-2 -11 9 4 8 2 17 -3 20 -10 6 -46 -37 -55 -65 -10 -30 -35 -12 -35 24 0 18
-3 36 -7 40 -5 4 -8 15 -9 24 -4 59 -3 59 -19 38 -12 -16 -12 -22 2 -43 15
-22 15 -26 0 -41 -16 -15 -17 -15 -17 6 0 31 -15 27 -30 -8 -14 -34 -30 -48
-30 -27 0 8 12 31 26 52 17 26 24 45 19 62 -3 13 -10 21 -15 18 -5 -3 -6 10
-3 30 6 36 -11 51 -21 18 -3 -12 -5 -9 -4 7 1 47 -2 60 -12 60 -5 0 -10 -8
-10 -18 0 -35 -14 -33 -25 3 -13 49 -31 41 -27 -12 2 -24 -1 -43 -7 -43 -5 0
-7 -9 -4 -20 3 -11 0 -20 -6 -20 -6 0 -11 5 -11 11 0 6 -7 8 -16 5 -8 -3 -13
-2 -10 3 7 11 -24 143 -37 156 -9 10 -5 -34 9 -95 5 -24 5 -24 -10 -6 -15 19
-16 19 -16 -10 l-1 -29 -24 30 c-25 31 -34 20 -14 -17 22 -40 -10 -8 -37 38
-27 47 -50 60 -38 22 6 -20 5 -21 -10 -9 -22 19 -22 -6 1 -39 23 -32 35 -113
17 -106 -9 3 -16 -4 -20 -19 -8 -32 -17 -32 -32 3 -12 27 -12 27 -7 -8 4 -33
4 -34 -10 -16 -20 27 -19 52 4 75 18 18 21 18 33 4 10 -13 10 -17 1 -20 -15
-5 -17 -23 -4 -23 5 0 13 9 16 21 5 15 -1 29 -21 50 -15 16 -30 27 -32 24 -3
-3 -11 3 -18 13 -7 9 -14 12 -14 6 0 -6 9 -23 20 -37 25 -31 25 -36 3 -30 -21
5 -59 53 -43 53 6 0 9 4 6 8 -3 5 3 31 14 58 10 27 19 44 20 37 0 -6 -4 -23
-9 -37 -9 -21 -6 -28 26 -52 20 -15 33 -21 28 -14 -9 15 -14 58 -8 75 5 14 60
18 68 5 3 -5 14 -10 24 -10 10 0 24 -7 31 -15 10 -12 14 -12 26 0 14 14 9 45
-7 45 -5 0 -3 11 3 25 10 22 9 28 -10 41 -14 10 -22 25 -21 42 1 26 1 25 10
-6 7 -24 17 -34 38 -38 15 -3 28 -11 29 -17 0 -7 5 -38 10 -69 10 -69 28 -93
19 -28 -5 39 -5 42 5 20 11 -24 12 -24 15 -3 7 37 29 47 47 22 19 -27 33 -19
15 9 -7 10 -28 23 -47 28 -20 5 -38 16 -40 24 -5 13 -3 13 13 0 17 -14 18 -13
11 5 -5 11 -10 29 -13 40 -4 17 -3 18 7 5 9 -12 11 -9 6 15 -3 17 -3 24 0 18
9 -22 22 -14 18 10 -3 13 2 8 12 -13 15 -33 40 -59 57 -60 5 0 5 6 2 13 -4 6
0 4 8 -5 16 -20 27 -14 27 13 0 10 -13 25 -29 34 -30 15 -47 47 -36 66 4 5 0
18 -7 27 -24 28 -33 46 -18 37 10 -6 12 -4 6 10 -5 15 -4 16 9 5 13 -11 13
-15 3 -21 -21 -13 8 -34 48 -34 18 0 34 2 34 4 0 2 -13 19 -30 38 -34 38 -41
64 -9 32 16 -16 23 -18 35 -8 13 10 12 14 -6 31 -11 10 -20 24 -20 31 0 7 12
0 25 -15 23 -26 43 -38 31 -19 -3 5 1 11 9 15 19 7 19 26 0 26 -8 0 -17 11
-21 24 -3 14 -14 32 -23 41 -16 14 -19 14 -31 0 -7 -9 -10 -27 -6 -46 3 -18 2
-28 -4 -24 -14 9 -12 69 2 83 14 14 19 15 33 4z m-1395 -33 c0 -10 35 -47 48
-51 4 -2 7 -17 8 -34 0 -18 8 -40 17 -49 16 -16 17 -15 15 17 -2 24 1 33 12
33 8 0 20 14 26 30 15 41 38 38 44 -5 3 -22 11 -35 20 -35 8 0 17 -11 20 -24
l6 -25 22 24 c19 21 24 22 32 10 8 -13 10 -13 10 1 0 9 8 24 19 33 18 16 19
16 23 -8 3 -14 1 -31 -3 -38 -6 -9 -9 -3 -10 17 l-1 30 -14 -34 c-20 -45 -4
-64 29 -33 12 12 34 23 47 24 22 3 25 -1 26 -32 l2 -35 -5 33 c-8 57 -41 31
-41 -32 0 -31 2 -36 10 -23 5 9 6 22 3 27 -3 6 -1 10 4 10 12 0 14 -30 3 -46
-4 -6 -16 -13 -27 -16 -18 -4 -20 -1 -17 41 5 54 -12 46 -21 -10 -6 -41 -1
-51 31 -68 18 -10 22 -9 22 4 0 8 5 15 12 15 17 0 48 -31 48 -47 0 -8 -10 -3
-25 14 -22 26 -24 26 -25 7 0 -11 7 -29 15 -40 17 -23 19 -38 4 -28 -7 4 -9
-2 -7 -17 2 -18 10 -25 31 -27 15 -2 27 -8 27 -13 0 -18 -34 -9 -62 17 -22 22
-25 31 -17 46 6 11 8 23 4 26 -3 3 -8 -4 -12 -16 -3 -12 -10 -22 -16 -22 -5 0
-2 -9 8 -20 10 -11 16 -23 12 -26 -3 -3 -13 6 -22 20 -16 23 -16 27 -1 41 17
17 22 55 8 55 -4 0 -14 -6 -21 -12 -11 -11 -13 -10 -8 3 6 19 -29 45 -36 26
-3 -7 -6 -2 -6 10 -1 12 -5 25 -11 28 -5 3 -10 11 -10 16 0 6 5 7 10 4 6 -3
10 -2 10 4 0 25 -22 19 -41 -11 -12 -18 -18 -24 -14 -13 4 11 9 34 11 50 2 17
1 22 -2 13 -3 -10 -9 -18 -14 -18 -8 0 -25 39 -23 51 1 3 -5 6 -13 6 -16 0
-19 -14 -3 -19 7 -2 8 -14 1 -38 -9 -32 -10 -33 -11 -8 -1 33 -11 58 -22 58
-5 0 -9 -8 -10 -17 0 -10 -6 -2 -13 17 l-13 35 -4 -53 c-4 -54 6 -83 13 -40 3
18 6 15 12 -15 10 -48 2 -57 -23 -26 -20 24 -20 24 -21 2 0 -14 12 -28 35 -42
19 -11 35 -26 35 -32 0 -7 -11 -2 -24 10 -14 13 -29 20 -35 17 -14 -9 -23 28
-16 68 4 19 2 43 -4 53 -6 10 -11 12 -11 6 0 -7 -4 -13 -10 -13 -5 0 -10 17
-11 38 0 30 -2 33 -9 17 -7 -15 -9 -9 -10 25 -1 42 -2 44 -15 26 -14 -19 -15
-18 -15 13 0 18 -5 42 -12 54 -10 20 -10 21 5 8 10 -7 17 -17 17 -22z m653 4
c5 -29 -9 -30 -24 -2 -9 17 -13 19 -20 8 -5 -8 -9 -9 -9 -3 0 31 47 29 53 -3z
m87 7 c-6 -11 -12 -20 -14 -20 -2 0 -2 9 1 20 3 11 9 20 15 20 5 0 4 -9 -2
-20z m-776 -6 c3 -9 6 -25 5 -37 -1 -16 -4 -12 -12 13 -11 34 -11 35 -15 8 -2
-15 6 -47 17 -72 16 -37 17 -44 4 -39 -13 5 -14 3 -3 -18 11 -20 10 -22 -1
-11 -8 7 -14 25 -15 40 0 15 -4 44 -8 64 -9 40 -3 68 13 68 5 0 12 -7 15 -16z
m556 -34 c19 25 33 21 51 -13 12 -22 12 -22 -10 -3 -28 25 -38 14 -17 -18 24
-38 19 -45 -9 -11 -14 17 -25 24 -25 18 0 -23 -18 -14 -39 20 -13 20 -21 26
-21 15 0 -9 11 -30 25 -46 30 -36 33 -52 5 -27 -33 30 -22 0 14 -39 40 -41 46
-44 46 -17 0 16 5 15 33 -12 18 -18 31 -35 29 -39 -2 -5 3 -8 11 -8 10 0 13 7
10 20 -3 12 1 22 11 26 11 4 16 18 16 44 0 22 4 41 9 44 11 7 21 -18 20 -47
-1 -20 -2 -20 -9 3 -7 20 -8 16 -9 -22 -1 -28 -6 -48 -12 -48 -7 0 -9 -9 -6
-21 5 -18 2 -20 -19 -16 -23 4 -28 -2 -25 -30 2 -17 -59 15 -66 35 -5 13 -8
12 -20 -4 -13 -18 -14 -17 -8 9 6 22 4 26 -9 21 -11 -4 -16 0 -16 14 0 29 -11
53 -21 46 -5 -3 -9 -19 -9 -35 0 -17 -5 -39 -11 -50 -9 -17 -7 -20 8 -17 13 2
19 -4 20 -22 1 -16 0 -18 -4 -7 -2 10 -11 16 -18 13 -7 -2 -21 6 -29 19 -14
21 -14 24 -1 19 18 -7 19 4 5 43 -9 25 -8 26 4 10 12 -15 14 -10 23 43 5 34 6
63 1 66 -4 3 -8 20 -8 37 l1 32 31 -34 31 -34 17 23z m274 13 c-6 -25 -24 -56
-24 -41 0 10 22 68 26 68 2 0 1 -12 -2 -27z m214 -18 c23 -29 32 -32 32 -10 0
25 25 17 48 -15 13 -16 18 -30 13 -30 -5 0 -16 12 -26 26 -21 32 -39 15 -24
-23 15 -41 10 -38 -22 11 -35 52 -55 55 -53 7 1 -17 -2 -28 -7 -25 -22 13 -6
-18 24 -48 31 -31 60 -49 100 -62 9 -3 17 -10 17 -15 0 -6 -7 -8 -15 -5 -18 7
-18 4 -5 -30 6 -16 6 -26 0 -26 -5 0 -12 15 -16 34 -4 26 -16 42 -46 61 -52
34 -61 24 -18 -20 19 -19 29 -35 23 -35 -7 0 -15 5 -19 11 -11 18 -33 -32 -27
-62 5 -28 -16 -53 -39 -44 -12 5 -13 13 -4 45 5 22 7 42 4 46 -12 11 -28 -7
-28 -32 0 -14 -4 -22 -10 -19 -17 10 -11 35 14 58 13 12 26 34 28 47 l5 25 11
-25 c10 -22 11 -21 6 15 -4 22 -16 55 -27 74 -18 30 -19 34 -4 28 12 -5 17 -1
17 12 0 26 10 51 20 51 5 0 17 -11 28 -25z m-390 -29 c2 -10 -2 -23 -9 -30 -9
-8 -10 -7 -5 8 3 10 1 25 -6 34 -11 13 -10 14 2 10 8 -2 17 -13 18 -22z m120
-30 c14 18 14 18 9 -4 -3 -14 1 -25 11 -32 16 -9 16 -9 0 -10 -10 0 -18 5 -18
10 0 6 -7 10 -15 10 -8 0 -19 9 -25 19 -16 31 -12 38 7 12 16 -23 17 -23 31
-5z m551 -30 c0 -14 -2 -16 -6 -6 -3 8 -10 21 -16 28 -7 9 -6 11 7 6 9 -3 16
-16 15 -28z m-366 0 c21 6 21 6 5 -13 -11 -12 -15 -28 -12 -43 5 -23 4 -23 -6
-6 -10 15 -14 16 -22 5 -8 -11 -8 -10 -4 4 3 10 7 33 7 50 1 18 3 24 6 14 3
-13 10 -16 26 -11z m-1063 -5 c15 -29 12 -38 -5 -15 -25 33 -18 -6 10 -55 15
-26 23 -51 19 -63 -7 -24 25 -76 36 -58 5 9 9 9 14 1 4 -6 2 -11 -5 -11 -8 0
-7 -5 2 -17 10 -12 4 -10 -18 5 -17 12 -34 18 -37 13 -11 -16 12 -59 35 -66
15 -5 18 -9 9 -15 -9 -6 -7 -11 10 -20 27 -15 38 -5 22 21 -11 18 -11 18 8 7
11 -7 20 -16 20 -19 0 -4 9 -5 19 -2 13 3 23 -3 32 -19 l12 -23 8 28 c4 15 5
44 2 63 -5 31 -13 39 -36 35 -5 -1 -6 3 -2 9 4 7 12 7 26 0 15 -8 19 -7 19 3
0 8 6 20 14 26 11 9 17 6 31 -15 14 -22 15 -28 4 -35 -9 -5 -10 -9 -3 -9 7 0
15 -7 18 -15 5 -13 1 -12 -18 2 -14 11 -21 24 -18 35 2 10 0 18 -6 18 -5 0
-12 -15 -15 -32 -4 -25 1 -39 19 -59 28 -30 32 -50 5 -25 -23 21 -37 6 -22
-23 17 -32 -15 -34 -38 -3 -17 23 -20 24 -21 8 0 -15 -3 -16 -15 -6 -31 26
-14 -6 25 -45 30 -31 38 -45 33 -63 -5 -22 -7 -22 -24 -6 -32 29 -32 8 -1 -27
24 -27 29 -42 27 -71 -2 -21 1 -40 6 -43 5 -4 6 1 3 9 -5 14 -2 14 30 1 41
-17 56 -19 56 -5 0 5 -12 13 -27 16 -32 8 -53 22 -53 37 0 5 8 3 18 -6 10 -10
25 -17 33 -17 8 0 20 -5 27 -12 6 -6 15 -9 18 -5 10 10 -22 37 -44 37 -10 0
-27 10 -38 23 -19 22 -19 22 2 5 23 -20 39 -24 29 -8 -8 13 11 13 36 0 14 -8
19 -7 19 2 1 8 5 7 14 -4 20 -27 32 -21 33 16 1 37 -29 77 -42 57 -12 -20 -44
-11 -81 24 -20 19 -34 38 -31 41 3 4 18 -7 31 -24 33 -38 66 -48 66 -20 0 19
1 19 31 -2 16 -12 32 -20 35 -17 7 7 -56 58 -65 53 -4 -3 -12 9 -19 26 l-11
31 37 -36 c20 -20 48 -45 62 -56 14 -11 19 -20 12 -21 -9 0 -11 -7 -7 -19 3
-11 1 -22 -5 -26 -14 -9 -3 -44 23 -72 11 -13 16 -23 10 -23 -5 0 -18 9 -28
20 -10 11 -24 20 -32 20 -11 0 -10 -7 2 -37 14 -33 14 -38 0 -45 -24 -14 -17
-37 18 -58 17 -11 25 -20 17 -20 -21 0 -60 28 -60 44 0 14 -68 39 -82 30 -4
-3 -8 -11 -8 -17 0 -8 3 -9 8 -1 5 7 18 3 40 -12 32 -22 33 -23 11 -37 l-21
-15 21 -7 c11 -3 24 -4 28 -2 5 2 26 -2 48 -10 l40 -13 -35 5 c-32 4 -34 4
-16 -10 18 -14 18 -15 -10 -26 l-29 -11 33 -12 c37 -13 33 -26 -7 -26 -21 0
-23 -2 -11 -10 8 -5 38 -8 65 -5 28 2 44 2 38 -1 -22 -9 -14 -26 10 -22 16 2
21 9 19 23 -2 14 0 16 6 7 5 -7 16 -10 27 -6 13 6 16 4 10 -6 -6 -9 -4 -10 10
-3 25 14 66 -6 59 -29 -7 -22 5 -23 32 -3 12 8 24 11 28 8 3 -3 6 -2 6 3 0 5
-9 15 -20 22 -11 7 -20 22 -19 35 0 14 2 17 6 7 7 -19 33 -40 50 -40 7 0 10 6
7 15 -4 11 0 15 16 15 22 0 22 0 -4 30 -14 17 -23 37 -20 45 8 19 9 19 39 -1
20 -13 25 -14 26 -3 1 8 4 1 8 -16 5 -23 13 -31 36 -36 17 -4 25 -7 18 -8 -7
0 -10 -8 -7 -16 4 -8 2 -15 -4 -15 -20 0 -42 12 -43 24 0 6 -14 22 -32 36
l-32 25 33 -39 c26 -29 31 -41 21 -47 -10 -6 -9 -12 6 -29 28 -31 64 -46 110
-48 l40 -1 -30 15 -30 15 28 -6 c37 -7 36 17 -2 32 -30 11 -50 60 -36 84 10
14 77 -51 71 -68 -3 -7 -1 -13 5 -13 5 0 9 -7 7 -16 -3 -18 27 -42 38 -31 4 4
-3 18 -15 31 -12 13 -18 27 -13 30 5 3 22 -11 37 -32 49 -65 73 -77 73 -37 0
20 -4 24 -18 20 -12 -4 -25 4 -39 24 -12 16 -21 34 -21 40 0 20 15 11 32 -19
24 -42 41 -39 35 8 -2 20 -2 29 0 20 5 -20 31 -43 39 -35 4 3 -3 18 -15 33
-25 32 -27 50 -5 58 14 6 54 -9 54 -20 0 -2 -9 0 -20 6 -13 7 -20 7 -20 1 0
-11 32 -31 48 -31 5 0 7 10 5 23 -5 28 -55 51 -72 34 -8 -8 -11 -8 -11 1 0 7
-4 12 -9 12 -5 0 -8 -11 -5 -25 2 -14 0 -25 -6 -25 -5 0 -11 15 -11 33 -1 17
-3 24 -6 15 -2 -10 -11 -18 -20 -18 -11 0 -14 6 -9 26 4 14 3 23 -2 20 -5 -3
-12 -24 -16 -46 -3 -23 -10 -38 -15 -35 -5 3 -12 -1 -15 -7 -3 -7 -5 -4 -3 7
1 11 -2 26 -7 33 -6 9 -3 12 10 10 12 -2 20 6 26 30 6 23 14 32 23 28 19 -7
51 76 38 99 -9 15 -14 12 -41 -21 -17 -21 -34 -50 -37 -66 -4 -15 -11 -31 -17
-34 -11 -7 -7 22 8 61 6 15 4 16 -16 5 -20 -11 -22 -17 -16 -61 4 -31 3 -49
-4 -49 -6 0 -10 24 -10 55 0 62 -13 71 -34 23 -8 -18 -15 -26 -15 -17 -1 9 9
29 20 43 17 21 24 25 30 14 7 -11 11 -10 19 2 11 16 14 60 4 60 -3 0 -19 -9
-35 -21 l-29 -20 0 25 c0 32 -22 106 -32 106 -4 0 -10 -5 -14 -12 -5 -8 -10
-6 -15 8 -14 34 -10 50 6 28 19 -25 20 -1 1 29 -8 12 -17 33 -20 47 l-7 25 20
-24 c12 -12 18 -27 15 -33 -9 -15 36 -57 55 -51 15 4 15 3 0 -9 -9 -7 -14 -20
-11 -28 7 -22 44 -55 62 -55 9 0 17 -12 20 -34 3 -19 10 -36 17 -38 8 -3 10 6
6 30 -3 23 1 47 11 68 18 37 7 53 -30 44 -43 -10 -104 67 -104 132 0 24 -43
87 -53 77 -2 -2 -12 7 -22 22 -9 15 -12 23 -6 20 7 -5 11 2 11 17 0 13 3 27 7
30 9 10 43 -23 42 -42 0 -11 -4 -9 -11 7 -16 32 -28 27 -27 -10 0 -26 2 -29 8
-13 7 18 8 18 14 -5 7 -23 87 -120 99 -120 12 0 28 65 28 114 1 41 3 48 11 32
13 -22 5 -83 -18 -130 -14 -29 -19 -33 -35 -25 -19 10 -23 3 -9 -20 5 -7 14
-10 20 -7 6 4 11 3 11 -2 0 -5 16 -12 36 -15 37 -6 74 9 74 29 0 7 7 15 16 18
9 3 12 2 9 -5 -4 -6 2 -13 13 -16 11 -3 23 -12 26 -20 5 -12 8 -12 19 -1 16
16 28 58 17 58 -5 0 -12 -4 -15 -10 -3 -5 -11 -10 -16 -10 -6 0 -1 14 11 30
13 18 20 39 17 51 -4 14 -2 19 8 15 8 -3 18 7 25 25 7 16 15 28 17 25 6 -6
-26 -78 -44 -98 -15 -17 -15 -18 1 -18 14 0 16 -6 11 -33 -5 -25 -2 -37 14
-51 12 -11 21 -26 21 -34 0 -11 -9 -7 -30 13 -53 51 -32 -13 24 -74 28 -30 29
-33 9 -26 -18 5 -23 2 -23 -10 0 -12 -5 -15 -16 -11 -10 4 -14 2 -11 -6 2 -7
9 -12 15 -11 5 1 12 -7 15 -17 6 -25 3 -25 -33 2 -24 17 -27 24 -19 40 6 11
17 17 24 14 25 -9 27 14 3 44 -13 16 -25 29 -28 29 -3 1 -5 -19 -5 -43 0 -44
-9 -65 -21 -53 -4 4 -1 13 5 21 9 11 9 16 0 22 -7 4 -15 2 -17 -4 -7 -21 -20
-13 -15 8 4 15 11 19 26 14 16 -5 19 -3 14 11 -4 9 -2 25 3 36 15 27 1 24 -32
-8 -26 -25 -42 -21 -16 5 9 9 8 12 -7 12 -18 0 -20 -6 -17 -50 2 -27 8 -50 12
-50 5 0 11 -9 15 -19 3 -11 21 -25 40 -31 19 -6 38 -16 41 -22 4 -6 -1 -6 -14
1 -31 16 -52 13 -52 -7 0 -23 35 -56 52 -50 7 3 26 -9 42 -25 15 -16 21 -27
12 -24 -28 11 -19 -32 9 -45 26 -12 34 -28 13 -28 -19 0 25 -29 45 -30 24 0
22 7 -14 48 -19 21 -27 38 -20 40 6 2 9 15 6 30 -3 15 -2 20 1 12 11 -27 36
-39 68 -34 24 4 27 3 16 -5 -8 -6 -23 -11 -32 -11 -23 0 -32 -18 -16 -33 17
-16 58 -21 58 -8 0 6 6 8 13 5 8 -3 19 2 26 10 11 13 8 20 -16 41 l-28 26 27
-16 c15 -9 36 -14 46 -11 17 6 19 3 14 -21 -5 -26 -4 -27 14 -13 17 13 17 13
-1 -9 l-20 -23 -5 23 -6 23 -17 -24 c-9 -13 -17 -36 -16 -50 l0 -25 11 23 c15
30 28 28 28 -4 l0 -27 22 29 c13 16 22 35 20 44 -1 8 5 2 14 -13 18 -33 36
-31 44 4 5 21 7 19 13 -15 4 -27 2 -45 -8 -60 -25 -35 -17 -41 14 -12 28 27
31 28 47 12 9 -10 23 -15 30 -12 8 3 11 0 7 -10 -7 -18 5 -18 40 0 15 8 27 11
27 6 0 -4 -6 -10 -13 -13 -9 -3 -9 -8 2 -21 22 -26 49 -38 72 -31 19 6 19 7 1
23 -10 9 -12 13 -5 8 7 -4 24 -5 39 -2 19 5 23 10 15 19 -5 7 -6 19 -2 26 6 9
10 7 14 -9 8 -29 -1 -50 -22 -50 -13 0 -13 -2 -2 -9 23 -15 -22 -33 -52 -22
-19 8 -27 6 -31 -5 -3 -8 -7 -17 -8 -20 -2 -4 8 -11 21 -16 21 -7 22 -6 11 7
-11 14 -10 14 15 5 20 -8 31 -7 42 2 11 9 16 9 24 -3 8 -12 12 -11 24 5 8 11
15 29 16 40 0 12 5 30 10 41 7 15 8 12 3 -13 -6 -35 8 -62 33 -62 8 0 12 4 8
9 -3 6 9 7 30 4 32 -5 35 -4 28 13 -5 15 -4 17 8 8 8 -6 22 -14 32 -17 16 -6
16 -5 1 18 -19 29 -15 29 -50 11 -19 -11 -33 -12 -46 -5 -24 13 -23 18 5 12
16 -3 18 -2 9 5 -10 7 -2 11 28 16 49 8 44 26 -8 26 -30 1 -34 2 -19 11 9 6
15 14 12 19 -3 4 10 13 28 20 19 7 27 14 19 17 -10 4 -7 9 9 17 12 6 24 17 27
24 6 20 -42 14 -71 -8 -42 -33 -44 -22 -2 13 22 17 45 32 51 32 6 0 19 6 28
14 9 8 16 9 16 3 0 -6 -4 -13 -8 -16 -5 -3 -7 -18 -4 -34 3 -24 -2 -35 -32
-58 -20 -16 -36 -32 -36 -36 0 -5 18 -8 40 -8 38 0 54 13 28 23 -9 4 -8 6 2 7
8 0 29 12 45 26 23 19 25 24 10 20 -42 -12 -46 10 -5 28 37 16 45 26 41 50 -1
5 4 4 12 -2 8 -7 17 -9 20 -5 8 8 47 -26 47 -41 0 -6 -7 0 -16 12 -19 27 -22
27 -59 -4 -16 -15 -23 -24 -14 -21 9 3 21 -4 29 -16 12 -20 12 -21 -2 -9 -14
11 -18 8 -28 -22 -12 -36 -6 -76 11 -76 5 0 9 5 9 12 0 6 9 2 20 -10 12 -12
25 -22 30 -22 5 0 7 -8 4 -17 -4 -13 -1 -12 11 4 14 18 20 20 46 11 24 -8 27
-13 18 -24 -6 -8 -18 -14 -26 -14 -8 0 -13 -6 -10 -12 2 -7 16 -12 31 -11 23
2 26 0 15 -13 -6 -8 -9 -18 -5 -21 4 -4 11 -1 15 6 5 7 14 10 20 7 17 -11 13
45 -5 65 -10 11 -12 19 -5 24 6 3 11 2 11 -3 0 -5 9 -12 20 -15 15 -4 22 1 26
19 3 13 10 21 15 18 5 -3 9 0 9 5 0 6 -6 11 -13 11 -15 0 -67 51 -67 66 0 5
10 -4 23 -19 14 -18 33 -28 52 -30 20 -1 32 -8 35 -22 8 -28 35 -26 34 2 0 17
2 20 12 12 10 -8 23 -1 52 30 21 23 45 41 53 41 9 -1 6 -7 -9 -19 -25 -21 -21
-51 7 -51 25 0 33 11 20 27 -6 7 -8 13 -3 14 5 1 18 2 28 3 11 0 21 6 23 12 2
7 -7 10 -24 8 -27 -4 -27 -4 4 8 44 18 51 28 20 28 -14 0 -28 4 -31 9 -4 5 2
7 12 4 22 -5 129 24 138 38 3 6 17 14 30 19 13 5 24 14 24 20 0 7 -8 7 -22 -1
-21 -11 -22 -11 -9 5 12 14 12 16 -3 10 -30 -11 -16 4 29 33 25 15 47 33 49
40 9 22 -11 23 -37 3 -38 -30 -45 -24 -12 10 34 36 26 53 -10 20 -25 -23 -37
-16 -13 8 9 9 9 12 1 12 -9 0 -8 10 3 35 7 19 13 51 13 72 -1 23 -3 29 -6 16
-2 -13 -9 -23 -14 -23 -11 0 -2 39 13 55 15 16 27 -15 20 -54 -11 -66 -9 -86
11 -83 10 2 17 -3 17 -14 0 -9 7 -22 16 -29 22 -16 11 -45 -26 -70 -24 -16
-27 -21 -14 -28 14 -8 13 -11 -2 -28 -13 -14 -14 -19 -4 -19 23 0 -41 -59 -77
-71 -42 -14 -44 -34 -3 -25 19 3 29 2 25 -4 -3 -6 0 -10 7 -10 19 -1 -31 -40
-51 -40 -10 0 -25 6 -35 13 -15 11 -12 12 22 9 22 -2 43 1 46 7 5 7 -2 11 -16
12 -13 1 -35 3 -49 4 -21 3 -33 -6 -62 -44 -41 -54 -44 -61 -22 -61 8 0 15 8
15 18 0 12 2 14 8 4 5 -7 16 -10 27 -6 17 7 17 8 -1 21 -16 11 -12 13 31 13
48 0 53 -12 10 -23 -15 -3 -13 -5 8 -6 16 0 38 4 50 11 20 10 21 10 8 -5 -7
-10 -24 -17 -37 -17 -27 0 -31 -12 -10 -29 8 -7 12 -20 9 -30 -6 -23 23 -35
64 -25 26 7 27 6 14 -10 -13 -16 -12 -17 14 -10 16 4 40 13 54 20 26 14 25 14
-15 14 -38 0 -64 13 -64 33 0 6 5 6 13 0 17 -13 62 -15 92 -3 36 14 32 33 -5
25 -31 -7 -70 1 -70 14 0 4 14 6 30 3 17 -2 30 0 30 6 0 6 12 12 27 14 18 2
29 10 31 22 3 14 0 17 -12 13 -10 -4 -16 -1 -16 8 0 17 36 20 45 4 11 -17 -4
-59 -20 -59 -11 0 -14 -7 -9 -24 4 -17 1 -27 -11 -33 -13 -7 -14 -15 -6 -35 8
-22 6 -29 -15 -49 -13 -12 -24 -30 -24 -39 0 -9 -6 -22 -12 -29 -11 -10 -10
-14 4 -22 10 -5 16 -22 16 -44 0 -28 -5 -38 -26 -49 l-27 -14 28 -11 c38 -15
33 -45 -8 -49 -16 -2 -34 -11 -40 -19 -9 -12 -16 -13 -33 -4 -17 9 -22 8 -27
-9 -8 -26 -21 -25 -36 2 -10 19 -12 20 -21 4 -9 -17 -28 -13 -28 5 0 6 5 7 10
4 16 -10 24 23 10 40 -17 20 -31 19 -23 -1 4 -10 -1 -22 -11 -30 -14 -10 -15
-17 -7 -33 13 -23 0 -36 -26 -27 -18 7 -42 -20 -43 -46 0 -22 -16 -23 -24 -2
-3 8 -2 12 4 9 15 -10 12 3 -12 45 -13 22 -32 41 -43 42 -11 2 -25 14 -32 28
-14 27 -17 19 -7 -17 4 -13 12 -23 20 -23 8 0 11 -6 8 -15 -4 -10 5 -20 27
-30 l34 -15 -52 4 c-48 5 -53 3 -53 -15 0 -11 -7 -22 -15 -25 -10 -4 -13 -14
-9 -29 9 -36 -4 -50 -27 -29 -11 10 -28 15 -44 12 -14 -3 -25 -2 -25 2 0 4
-14 22 -32 40 -29 30 -31 31 -25 9 4 -13 7 -33 7 -44 0 -16 2 -17 10 -5 15 25
23 3 8 -26 -21 -43 -41 -44 -36 -1 3 31 2 34 -13 27 -9 -5 -19 -16 -23 -25
-11 -29 -23 -15 -22 28 1 30 -6 51 -21 71 -29 37 -30 57 -1 26 20 -21 22 -22
28 -5 6 18 7 18 14 0 4 -11 2 -22 -6 -26 -9 -6 -9 -13 0 -33 15 -34 34 -34 26
-1 -4 17 -2 25 6 25 9 0 9 4 -1 17 -12 15 -12 16 4 10 24 -9 21 3 -10 35 -20
21 -36 28 -65 28 -34 0 -37 -2 -34 -22 3 -13 6 -25 7 -28 3 -7 7 -23 8 -37 1
-7 8 -10 19 -6 16 5 16 5 -1 -13 -17 -18 -19 -18 -28 -2 -5 10 -16 15 -24 12
-11 -5 -15 1 -15 20 0 23 -3 26 -25 20 -19 -5 -25 -2 -25 10 0 9 -7 19 -15 22
-9 4 -14 13 -13 22 4 19 -47 35 -71 22 -41 -23 -121 -54 -176 -69 -56 -15 -61
-19 -75 -58 -8 -22 -22 -49 -31 -60 -10 -10 -19 -42 -21 -74 -4 -47 -12 -69
-51 -126 -48 -70 -59 -104 -73 -234 -5 -42 -3 -62 9 -80 8 -13 19 -46 22 -72
5 -34 13 -51 29 -59 26 -14 56 -44 79 -80 11 -18 29 -29 54 -34 35 -7 36 -8
13 -14 -14 -4 -40 -5 -59 -2 -26 4 -32 2 -26 -8 5 -8 3 -11 -6 -8 -8 2 -25 26
-38 53 -14 27 -26 44 -28 38 -5 -13 43 -104 60 -115 18 -11 4 -17 -21 -7 -12
5 -26 19 -31 33 -6 13 -21 35 -35 49 -22 22 -26 23 -26 8 0 -10 11 -28 25 -41
32 -30 26 -35 -18 -14 l-35 17 -7 86 c-3 47 -10 94 -16 104 -5 10 -7 28 -4 40
5 17 4 19 -4 7 -6 -8 -11 -37 -12 -65 l-1 -50 -10 39 c-8 31 -7 46 6 75 l16
36 -26 -29 c-21 -23 -25 -35 -19 -60 3 -17 8 -46 12 -63 3 -18 8 -33 12 -33
10 0 31 -46 31 -67 0 -9 10 -28 23 -41 l22 -24 -30 4 c-18 2 -29 8 -27 16 1 7
-5 29 -14 50 -15 34 -27 81 -41 159 -3 20 -10 31 -17 27 -6 -3 6 10 27 28 35
31 92 128 65 112 -6 -4 -9 -3 -6 2 16 27 39 85 52 127 14 48 14 49 -5 31 -10
-9 -19 -26 -19 -36 0 -25 -23 -69 -49 -92 -12 -11 -21 -26 -22 -35 0 -10 -2
-11 -6 -4 -2 7 12 33 31 59 20 26 36 54 36 63 0 14 -2 14 -10 1 -9 -13 -10
-13 -10 0 0 9 8 27 17 40 l17 25 -22 -19 c-12 -11 -22 -25 -22 -31 0 -7 -12
-21 -27 -31 l-28 -18 28 33 c30 36 37 61 10 40 -11 -9 -7 2 10 31 28 48 47 62
47 36 0 -33 63 -8 85 33 21 42 19 48 -10 21 -14 -13 -25 -21 -25 -19 0 3 14
18 32 35 17 16 28 23 24 17 -4 -7 -3 -13 2 -13 6 0 13 7 16 16 3 9 2 12 -5 9
-6 -4 -8 2 -5 17 7 31 9 57 6 93 -2 18 -6 4 -11 -34 -5 -37 -15 -72 -26 -83
-24 -26 -66 -48 -95 -48 -33 -1 -66 -32 -82 -77 -7 -21 -19 -38 -27 -38 -8 0
-13 -7 -11 -16 1 -9 -22 -42 -51 -75 -60 -68 -87 -107 -92 -136 -3 -12 -14
-31 -25 -43 -14 -15 -25 -46 -32 -94 -13 -89 -47 -141 -104 -158 -21 -6 -41
-9 -44 -6 -9 8 33 33 57 33 16 0 23 6 23 19 0 11 6 22 13 24 7 3 4 6 -7 6 -10
1 -34 -13 -53 -29 -32 -28 -72 -42 -58 -20 3 6 11 10 17 10 6 0 26 13 45 30
18 17 37 30 42 30 9 0 51 99 51 120 0 8 9 29 20 45 14 20 20 47 20 83 0 29 7
66 15 82 12 22 13 35 4 57 -8 20 -7 43 1 83 13 61 8 80 -35 139 -29 40 -34
104 -10 139 14 19 14 25 0 51 -20 39 -41 45 -155 42 -88 -2 -99 0 -133 23 -21
14 -51 33 -67 41 -16 8 -39 25 -50 37 -16 17 -23 20 -29 10 -4 -8 -15 -10 -27
-6 -18 7 -17 5 2 -17 12 -13 25 -34 29 -46 10 -34 -20 -29 -47 7 -12 17 -25
30 -29 30 -12 0 2 -38 17 -44 16 -6 19 -52 4 -61 -6 -3 -13 2 -17 12 -3 10
-14 28 -23 40 -15 20 -18 20 -33 6 -19 -19 -41 -8 -34 18 3 11 1 17 -4 13 -5
-3 -9 2 -9 10 0 9 -9 16 -20 16 -11 0 -20 -4 -20 -10 0 -5 4 -10 10 -10 5 0 6
-8 3 -17 -6 -16 -5 -16 10 -4 9 7 17 9 17 3 0 -17 -30 -36 -41 -25 -5 5 -21 8
-35 5 -21 -4 -24 -10 -24 -44 0 -27 -4 -38 -12 -35 -19 6 -11 98 10 121 16 17
16 18 -3 15 -15 -3 -22 -17 -30 -58 -6 -31 -18 -59 -27 -65 -24 -15 -33 0 -16
26 15 23 15 23 -36 25 -68 2 -130 24 -134 45 -4 23 41 41 82 33 l31 -6 -25 20
c-18 14 -28 17 -37 9 -7 -6 -22 -8 -34 -5 -12 3 -35 -3 -52 -14 -18 -10 -43
-19 -57 -19 l-25 1 25 15 25 14 -25 -2 c-20 -2 -25 1 -24 20 0 14 -5 22 -16
22 -10 0 -23 7 -30 15 -16 20 3 45 34 44 21 0 21 0 -1 -11 -23 -11 -31 -28
-14 -28 20 0 61 20 61 30 0 5 -12 13 -28 16 -39 10 -46 15 -31 25 19 11 5 23
-56 44 -71 26 -112 65 -68 65 15 0 15 1 0 18 -22 24 -22 42 0 42 15 0 15 1 0
18 -10 10 -17 22 -17 26 0 13 18 -4 42 -37 15 -21 17 -27 5 -18 -12 9 -17 10
-17 2 0 -7 -5 -9 -10 -6 -19 12 -10 -9 16 -36 25 -26 25 -27 5 -22 -34 9 -24
-7 14 -23 47 -19 50 -18 26 12 -22 28 -28 50 -11 39 14 -9 12 39 -2 53 -7 7
-8 12 -2 12 6 0 19 -9 29 -20 20 -22 55 -26 73 -8 16 16 15 28 -1 28 -8 0 -22
9 -32 20 -14 15 -15 20 -4 20 8 0 0 8 -18 16 -17 9 -34 23 -38 32 -5 14 -4 14
13 -1 10 -9 41 -22 70 -28 55 -13 60 -29 9 -29 -24 0 -28 -3 -17 -10 8 -5 29
-10 47 -10 36 0 57 -20 21 -20 -22 -1 -22 -1 -4 -15 19 -14 18 -15 -12 -15
-18 0 -32 -5 -32 -11 0 -8 17 -10 50 -7 28 3 50 1 50 -3 0 -5 -15 -10 -32 -11
-18 0 -40 -2 -48 -3 -8 -1 -25 4 -37 11 -20 12 -22 11 -25 -9 -3 -21 -4 -20
-20 8 -19 33 -25 17 -7 -18 16 -32 119 -136 151 -153 15 -8 41 -14 58 -14 27
0 30 3 30 30 0 17 -6 32 -12 34 -84 22 -99 41 -42 52 35 6 36 8 15 15 -12 5
-41 5 -64 0 -46 -11 -57 -7 -56 17 0 9 3 12 5 5 5 -12 70 -7 89 8 17 12 64 -2
70 -22 5 -15 16 -19 48 -18 37 0 39 1 19 10 -13 5 -26 18 -29 29 -3 12 -14 20
-27 20 -12 0 -30 6 -41 14 -20 13 -27 16 -43 16 -17 0 -12 68 6 82 15 11 15
11 5 -3 -8 -10 -9 -25 -4 -45 5 -16 10 -26 10 -21 1 4 10 -2 21 -13 24 -24 80
-27 80 -5 0 8 9 15 21 15 11 0 17 -5 14 -10 -4 -6 -11 -8 -16 -5 -5 3 -6 -1
-3 -9 3 -8 11 -17 17 -19 7 -2 2 -2 -10 0 -13 2 -23 -1 -23 -6 0 -17 25 -19
51 -3 27 15 59 11 59 -8 0 -6 -12 -15 -26 -20 -14 -6 -33 -17 -42 -26 -12 -12
-27 -15 -59 -10 -24 3 -43 2 -43 -2 0 -5 -15 -7 -32 -5 -26 3 -29 2 -17 -6 9
-6 29 -10 45 -11 90 0 109 2 121 12 8 6 28 7 50 3 33 -6 35 -5 23 9 -7 9 -10
20 -6 24 4 4 14 -1 21 -11 23 -32 41 -17 34 28 -3 22 -7 30 -8 18 -1 -25 -21
-32 -21 -9 0 8 -9 21 -20 29 -20 14 -20 15 -2 37 11 14 25 21 37 18 17 -4 16
-7 -10 -17 -23 -10 -26 -14 -15 -21 10 -6 20 -4 31 6 20 18 27 18 45 -1 23
-22 37 -19 23 6 -6 12 -20 24 -31 27 -15 3 -16 7 -7 13 10 6 9 10 -6 15 -11 4
-35 13 -52 20 -20 8 -33 9 -33 3 0 -6 -7 -6 -19 1 -28 14 -35 12 -20 -6 8 -10
23 -14 41 -12 21 3 28 0 28 -11 0 -13 -11 -16 -62 -14 -34 1 -73 7 -85 14 -32
17 -41 58 -18 75 10 7 22 11 26 8 4 -2 -4 16 -17 41 -14 25 -29 43 -34 40 -4
-3 -11 2 -14 11 -5 13 -2 15 16 9 41 -12 68 -13 68 -3 0 6 -9 8 -20 5 -11 -3
-20 -1 -20 4 0 5 -8 9 -19 9 -10 0 -23 6 -29 13 -7 8 10 6 53 -7 35 -11 61
-24 59 -28 -3 -4 4 -12 15 -17 17 -10 18 -9 7 14 -7 17 -24 29 -51 36 -22 6
-51 15 -64 20 -49 20 -70 -34 -39 -98 6 -11 8 -27 6 -35 -3 -7 -11 6 -18 30
-7 23 -16 38 -20 32 -4 -6 -14 7 -23 30 -9 23 -22 40 -31 40 -22 0 -20 -26 4
-50 24 -24 25 -31 3 -23 -11 4 -14 3 -9 -5 10 -17 -9 -15 -23 2 -7 8 -8 17 -3
20 5 3 7 17 4 32 -3 18 0 30 12 36 9 5 14 13 12 17 -5 8 -36 6 -93 -5 -17 -3
-39 -1 -50 6 -10 6 -12 9 -3 7 19 -5 50 10 50 24 0 6 -7 8 -16 5 -8 -3 -12 -2
-9 4 4 6 -12 10 -39 10 -51 0 -59 11 -20 29 21 9 24 14 14 25 -8 11 -19 12
-43 5 -20 -5 -35 -5 -41 1 -7 7 -6 10 3 10 9 0 8 6 -3 22 -25 36 -18 42 10 9
21 -25 32 -30 61 -28 31 2 37 -1 38 -20 1 -13 5 -26 10 -30 4 -5 4 3 1 17 -6
23 -6 24 7 7 13 -16 15 -16 21 -1 5 13 9 14 21 4 8 -7 15 -20 15 -29 0 -9 5
-23 10 -31 7 -11 8 -2 4 28 -6 40 -6 42 20 42 15 0 29 -7 32 -15 4 -8 12 -15
19 -15 8 0 0 26 -24 73 -22 43 -41 71 -50 69 -7 -1 -24 4 -37 13 -33 22 -30 1
4 -24 15 -11 21 -21 14 -21 -8 0 -26 13 -42 29 -16 16 -32 26 -35 23 -3 -3 -5
0 -5 6 0 7 7 12 15 12 19 0 19 9 -1 31 -8 9 -17 41 -19 70 -3 43 -2 48 5 25 5
-16 19 -40 32 -54 l23 -25 -22 12 c-13 6 -23 9 -23 5 0 -13 33 -44 45 -44 7 0
19 -8 26 -17 12 -15 12 -16 -6 -10 -19 7 -19 6 -2 -7 28 -22 48 -10 36 21 -12
32 -12 33 8 26 14 -5 15 -1 9 27 -6 31 -5 32 7 16 12 -17 13 -11 6 43 -5 34
-16 75 -24 91 -26 49 -14 100 15 65 10 -12 16 -13 26 -4 12 10 11 17 -7 46
-22 35 -34 103 -19 103 5 0 14 -9 20 -19z m71 -47 c4 -21 3 -46 -2 -54 -6 -10
-8 0 -9 31 0 25 -6 51 -12 58 -11 11 -10 13 2 9 8 -3 18 -22 21 -44z m1359 6
c6 -11 7 -20 2 -20 -6 0 -12 9 -15 20 -3 11 -3 20 -1 20 2 0 8 -9 14 -20z
m-466 -6 c3 -8 2 -12 -4 -9 -6 3 -10 10 -10 16 0 14 7 11 14 -7z m-860 -3 c4
-5 8 -30 10 -55 4 -36 2 -44 -10 -39 -8 3 -14 17 -14 32 0 14 -3 36 -6 49 -6
22 9 31 20 13z m223 -13 c-3 -8 -6 -5 -6 6 -1 11 2 17 5 13 3 -3 4 -12 1 -19z
m560 -35 c-3 -10 -5 -2 -5 17 0 19 2 27 5 18 2 -10 2 -26 0 -35z m504 30 c13
-16 12 -17 -3 -4 -10 7 -18 15 -18 17 0 8 8 3 21 -13z m-392 -37 c-20 -9 -49
7 -49 28 0 6 5 3 11 -6 14 -25 39 -22 40 5 0 21 1 21 8 2 6 -15 4 -22 -10 -29z
m-150 -15 c0 -14 -3 -19 -6 -11 -2 8 -7 22 -9 30 -5 13 -6 13 -14 0 -8 -13
-10 -13 -10 1 0 9 3 19 7 22 12 12 33 -15 32 -42z m547 -13 c4 -7 -6 -1 -23
15 -38 35 -47 34 -39 -3 3 -19 2 -29 -4 -25 -6 3 -10 20 -10 37 0 25 3 29 20
25 11 -3 20 0 20 6 0 7 7 0 14 -15 8 -16 18 -34 22 -40z m-1223 45 c-16 -6
-17 -45 -1 -61 7 -7 8 -12 2 -12 -6 0 -21 11 -35 26 -15 16 -18 23 -8 19 11
-4 18 1 22 14 3 12 11 21 19 20 10 0 10 -2 1 -6z m148 -45 c15 -28 5 -21 -21
15 -15 20 -17 27 -6 18 9 -8 22 -23 27 -33z m851 -23 c-3 -20 -7 -23 -18 -14
-16 13 -19 33 -4 24 14 -9 12 8 -2 24 -11 11 -9 12 8 3 16 -8 20 -18 16 -37z
m-494 10 c-3 -3 -9 2 -12 12 -6 14 -5 15 5 6 7 -7 10 -15 7 -18z m249 3 c-3
-8 -6 -5 -6 6 -1 11 2 17 5 13 3 -3 4 -12 1 -19z m-837 -33 c0 -4 -23 -2 -48
4 -2 1 0 6 3 11 6 10 45 -4 45 -15z m821 -8 c-10 -9 -11 -8 -5 6 3 10 9 15 12
12 3 -3 0 -11 -7 -18z m-469 -26 c-12 -7 -11 -14 3 -42 l16 -34 -21 24 c-25
29 -26 61 -2 61 13 0 14 -2 4 -9z m-283 -17 c11 -11 -7 -10 -34 3 l-30 14 30
-6 c16 -4 32 -9 34 -11z m1611 -9 c13 -14 21 -25 18 -25 -2 0 -15 11 -28 25
-13 14 -21 25 -18 25 2 0 15 -11 28 -25z m-1895 -15 c22 -43 18 -61 -5 -20
-11 19 -19 38 -20 43 0 15 10 6 25 -23z m453 -25 c-11 -24 -10 -29 12 -45 28
-21 70 -32 70 -18 0 5 -7 11 -15 14 -11 5 -13 10 -5 19 5 6 6 15 2 20 -4 4 3
2 15 -6 12 -7 19 -16 14 -19 -4 -3 -6 -22 -3 -43 3 -27 15 -48 40 -73 37 -36
68 -48 37 -14 -10 11 -15 23 -11 27 4 5 12 -1 18 -11 8 -14 12 -15 18 -5 11
17 40 -6 40 -32 0 -24 -16 -33 -24 -13 -4 10 -12 14 -22 10 -9 -4 -29 1 -43
11 -25 17 -51 25 -51 17 0 -2 8 -17 18 -34 14 -23 21 -27 30 -18 9 9 16 7 28
-11 11 -15 23 -21 36 -18 12 4 18 1 15 -6 -2 -7 -13 -11 -25 -9 -13 2 -22 -4
-25 -15 -3 -12 -5 -9 -6 9 -1 28 -21 51 -21 24 0 -27 -16 -18 -33 20 -19 39
-42 37 -33 -5 6 -24 5 -25 -8 -7 -11 13 -12 24 -6 37 15 26 12 65 -5 79 -8 7
-12 17 -8 23 3 5 2 7 -4 4 -5 -4 -22 7 -38 23 -25 26 -27 33 -20 76 5 37 9 44
16 32 6 -11 5 -26 -3 -43z m877 17 c-6 -6 -35 18 -35 29 0 5 9 1 20 -8 11 -9
17 -19 15 -21z m-206 -22 c-1 -23 -2 -22 -8 5 l-7 30 -13 -24 c-7 -12 -11 -32
-8 -42 3 -10 1 -17 -4 -13 -14 8 -11 33 8 65 19 32 33 22 32 -21z m301 -7 c0
-20 -7 -16 -32 19 l-22 32 26 -19 c15 -11 28 -26 28 -32z m-136 -11 c-4 -23
-10 -39 -14 -37 -4 3 -3 23 2 45 13 51 21 46 12 -8z m856 38 c-8 -5 -19 -10
-25 -10 -5 0 -3 5 5 10 8 5 20 10 25 10 6 0 3 -5 -5 -10z m-2084 -50 c7 -31 6
-34 -9 -22 -9 8 -13 20 -10 29 4 11 2 14 -5 9 -13 -8 -17 16 -5 28 11 10 22
-7 29 -44z m1311 44 c-3 -3 -12 -4 -19 -1 -8 3 -5 6 6 6 11 1 17 -2 13 -5z
m-559 -49 c-3 -3 -9 2 -12 12 -6 14 -5 15 5 6 7 -7 10 -15 7 -18z m1052 9 c0
-2 -11 -4 -25 -4 -14 0 -25 4 -25 9 0 4 11 6 25 3 14 -2 25 -6 25 -8z m-1205
-44 c3 -5 -1 -10 -9 -10 -8 0 -18 5 -21 10 -3 6 1 10 9 10 8 0 18 -4 21 -10z
m1411 1 c-8 -12 -66 -32 -66 -22 0 4 12 12 28 18 35 14 44 15 38 4z m14 -43
c-26 -21 -40 -23 -40 -6 0 6 3 8 6 5 11 -10 44 12 45 31 0 13 2 14 6 3 3 -8
-4 -23 -17 -33z m626 -1 l7 -22 8 23 c11 30 27 28 35 -4 4 -17 2 -29 -7 -35
-24 -15 -38 -10 -45 16 -3 13 -12 29 -20 36 -32 27 -4 -61 34 -103 17 -20 3
-25 -16 -6 -18 18 -16 -7 4 -37 17 -26 8 -34 -16 -12 -8 6 -6 -1 4 -17 10 -16
14 -26 8 -22 -11 7 -22 -15 -22 -44 0 -29 -33 -79 -57 -85 -12 -3 -32 -1 -45
4 -15 6 -17 10 -7 10 9 1 22 8 29 16 7 9 21 13 31 10 12 -4 22 1 30 17 9 19 9
21 -2 11 -24 -23 -31 -14 -11 15 38 54 39 100 1 66 -18 -17 -19 -16 -19 21 0
47 -11 40 -15 -9 -4 -43 -11 -56 -32 -56 -14 0 -14 2 1 19 10 11 15 24 12 30
-8 12 20 71 34 71 5 0 12 -11 16 -25 5 -21 8 -22 20 -10 8 7 11 21 8 29 -3 9
-1 16 5 16 8 0 6 10 -4 30 -16 30 -20 72 -8 83 9 10 31 -11 39 -36z m-312 17
c17 -7 22 -54 6 -54 -5 0 -10 9 -10 21 0 12 -4 17 -11 13 -7 -4 -8 -20 -4 -43
4 -20 8 -47 10 -60 3 -25 20 -41 46 -41 9 0 28 -13 42 -30 39 -43 33 -50 -8
-10 -33 32 -35 33 -35 12 0 -13 12 -35 26 -49 18 -18 22 -28 14 -33 -9 -5 -3
-15 18 -30 28 -21 30 -25 15 -35 -10 -7 -14 -19 -10 -29 5 -11 3 -15 -5 -10
-7 5 -9 -1 -6 -20 3 -14 1 -26 -3 -26 -12 0 -11 42 0 73 8 20 6 29 -10 43 -10
9 -19 24 -19 33 0 16 -60 59 -70 51 -3 -2 -7 4 -8 14 -4 17 -2 17 22 1 24 -16
25 -16 22 10 -2 15 -8 30 -14 34 -16 10 -62 80 -62 95 0 13 29 76 35 76 2 0
10 -3 19 -6z m-1753 -17 c-1 -12 -15 -9 -19 4 -3 6 1 10 8 8 6 -3 11 -8 11
-12z m50 -20 l11 -22 -21 22 c-22 23 -28 39 -11 28 5 -3 15 -16 21 -28z m935
-4 c26 -36 36 -63 24 -63 -6 0 -10 6 -10 14 0 16 -38 66 -51 66 -5 0 -10 -15
-10 -32 -1 -25 -3 -27 -6 -10 -11 55 21 69 53 25z m-1697 -55 c16 -45 3 -32
-24 25 -21 42 -22 47 -6 27 11 -14 25 -37 30 -52z m819 60 c7 -7 12 -16 12
-22 0 -5 -6 -2 -13 9 -9 11 -19 15 -27 10 -9 -5 -11 -4 -6 3 9 15 19 15 34 0z
m-830 -90 c8 -10 12 -18 7 -18 -12 0 -49 52 -52 74 -2 16 2 13 13 -9 9 -16 23
-38 32 -47z m1562 43 c13 -25 13 -31 0 -31 -5 0 -10 9 -10 20 0 26 -9 25 -43
-5 -21 -19 -26 -31 -22 -52 4 -23 4 -24 -4 -8 -14 30 -13 65 3 65 7 0 19 7 26
15 17 21 37 19 50 -4z m-1020 -20 c0 -15 -7 -18 -37 -14 -21 2 -42 9 -48 14
-7 7 -4 8 9 3 15 -6 17 -4 11 6 -6 10 -4 12 8 7 10 -4 25 -10 34 -14 13 -5 15
-3 10 11 -4 10 -3 15 3 11 6 -3 10 -14 10 -24z m1973 -28 c-9 -22 -23 -3 -23
30 l1 32 13 -24 c8 -14 12 -31 9 -38z m314 35 c-3 -8 -6 -5 -6 6 -1 11 2 17 5
13 3 -3 4 -12 1 -19z m-2733 -15 c17 -23 17 -26 3 -20 -20 8 -23 -12 -4 -33 6
-8 2 -6 -10 4 -14 12 -23 30 -23 48 0 35 9 35 34 1z m74 -26 c12 -3 11 -5 -5
-6 -25 -1 -38 13 -26 32 5 9 8 8 11 -5 2 -9 11 -19 20 -21z m752 8 c19 -22 8
-25 -12 -3 -10 10 -14 18 -9 18 5 0 14 -7 21 -15z m1155 -15 c-3 -5 -15 -10
-25 -10 -10 0 -22 5 -25 10 -4 6 7 10 25 10 18 0 29 -4 25 -10z m751 -72 c-10
-93 -11 -95 -27 -114 -12 -16 -12 -17 4 -11 9 3 17 2 17 -2 0 -13 -73 -40 -85
-32 -5 3 1 7 15 9 28 4 53 22 30 22 -10 0 -10 4 2 18 20 22 38 86 38 135 0 20
3 37 6 37 4 0 4 -28 0 -62z m-1416 31 c13 -9 12 -10 -2 -5 -23 7 -23 -12 -1
-36 9 -10 11 -18 5 -18 -13 0 -32 32 -32 54 0 19 9 20 30 5z m890 1 c0 -5 -2
-10 -4 -10 -3 0 -8 5 -11 10 -3 6 -1 10 4 10 6 0 11 -4 11 -10z m71 -37 l24
-28 -27 23 -26 24 -5 -24 c-4 -21 -4 -20 -6 5 0 15 3 27 7 27 5 0 19 -12 33
-27z m-1603 -29 c6 -18 6 -37 1 -45 -6 -10 -9 -5 -9 16 0 17 -4 37 -10 45 -7
11 -11 8 -20 -15 -12 -29 -12 -29 -20 -9 -14 36 -30 38 -30 4 0 -28 -2 -30
-15 -16 -17 17 -20 30 -5 21 6 -3 10 1 10 9 0 24 22 31 36 12 12 -16 13 -16
24 4 13 25 23 19 38 -26z m193 9 c5 -13 4 -25 -1 -28 -6 -4 -10 3 -10 14 0 11
-5 23 -12 27 -8 5 -9 -2 -5 -27 5 -24 4 -30 -3 -19 -5 8 -10 25 -10 38 0 30
29 26 41 -5z m1316 -22 c-1 -27 -5 -44 -9 -38 -14 22 -8 87 8 87 1 0 1 -22 1
-49z m-352 15 c10 -10 11 -16 2 -25 -17 -17 -27 -13 -20 7 6 15 5 15 -11 3
-14 -12 -19 -12 -26 -1 -6 9 -12 5 -24 -16 -9 -17 -15 -23 -16 -13 0 20 35 53
49 45 5 -4 12 -2 16 4 8 13 14 13 30 -4z m535 -30 c0 -5 -7 -3 -15 4 -8 7 -15
20 -15 28 0 13 3 12 15 -4 8 -10 15 -23 15 -28z m221 30 c11 9 21 15 24 12 3
-3 -4 -13 -15 -23 -22 -20 -50 -14 -50 12 1 17 1 17 11 0 10 -18 12 -18 30 -1z
m-1851 -51 c0 -11 -5 -27 -10 -35 -6 -10 -8 -4 -4 21 4 22 2 39 -5 43 -6 4
-11 12 -11 19 0 6 7 2 15 -9 8 -10 14 -28 15 -39z m915 48 c-11 -3 -26 -12
-32 -21 -7 -9 -13 -11 -13 -6 0 17 23 34 45 33 20 -1 20 -1 0 -6z m-359 -63
c8 0 14 -4 14 -10 0 -5 -7 -10 -15 -10 -17 0 -35 31 -34 57 0 12 4 9 11 -9 5
-16 16 -28 24 -28z m1048 13 c11 -13 16 -23 13 -23 -10 0 -37 31 -37 42 0 6 1
9 3 7 1 -2 11 -14 21 -26z m116 -35 c0 -14 -29 4 -45 29 l-17 25 31 -23 c17
-13 31 -26 31 -31z m-2434 0 c16 -19 16 -20 1 -9 -28 22 -31 5 -7 -33 12 -20
18 -41 15 -46 -4 -6 1 -20 11 -31 25 -28 14 -31 -17 -5 -26 23 -45 66 -28 66
6 0 5 8 -1 19 -12 24 -13 61 -2 61 5 0 17 -10 28 -22z m1539 -101 c4 -10 19
-24 34 -32 23 -13 24 -14 5 -15 -27 0 -52 28 -60 69 -4 17 -12 30 -18 28 -15
-6 -46 11 -46 25 0 7 5 6 15 -2 22 -18 45 -5 46 27 1 15 5 3 9 -27 4 -30 11
-63 15 -73z m-112 106 c-7 -2 -19 -2 -25 0 -7 3 -2 5 12 5 14 0 19 -2 13 -5z
m331 -8 c8 -9 13 -22 10 -30 -9 -22 -23 -18 -17 5 7 25 -26 27 -62 4 -14 -9
-25 -13 -25 -10 0 7 61 46 72 46 4 0 13 -7 22 -15z m160 3 c-9 -15 -84 -49
-84 -38 0 5 6 10 13 10 8 0 22 8 33 18 19 19 48 26 38 10z m-1347 -18 c4 -13
3 -13 -6 0 -8 12 -13 12 -22 3 -10 -10 -10 -18 -1 -38 7 -15 8 -25 2 -25 -6 0
-10 5 -10 10 0 6 -17 11 -37 12 -37 1 -37 1 -5 5 22 3 32 9 32 22 0 10 3 21 7
25 11 11 36 2 40 -14z m1818 -18 c-6 -7 -45 19 -45 29 0 5 11 2 24 -8 13 -10
23 -19 21 -21z m-171 -11 c-3 -3 -15 6 -27 18 l-22 24 27 -19 c14 -10 24 -21
22 -23z m90 23 c3 -8 2 -12 -4 -9 -6 3 -10 10 -10 16 0 14 7 11 14 -7z m-2259
-17 c0 -8 15 -32 33 -52 29 -34 40 -55 27 -55 -3 0 -24 14 -48 31 -29 22 -35
29 -18 24 l24 -7 -22 30 c-23 34 -28 56 -9 50 7 -3 13 -12 13 -21z m2812 -3
c2 -6 -4 -19 -12 -29 -16 -19 -16 -19 -6 2 15 31 14 38 -6 22 -9 -8 -19 -12
-22 -9 -3 3 -13 -10 -22 -27 -9 -18 -19 -30 -22 -26 -4 3 -13 0 -22 -7 -8 -7
-15 -8 -15 -3 0 15 31 54 40 48 4 -3 15 6 24 20 16 25 56 30 63 9z m-1053 -18
c-3 -9 -10 -16 -15 -16 -5 0 -4 9 3 20 14 22 21 20 12 -4z m111 4 c-3 -5 -11
-10 -16 -10 -6 0 -7 5 -4 10 3 6 11 10 16 10 6 0 7 -4 4 -10z m-1698 -37 c-3
-10 -5 -4 -5 12 0 17 2 24 5 18 2 -7 2 -21 0 -30z m1380 8 c9 9 16 9 28 -1 8
-7 24 -10 35 -7 25 6 26 -1 3 -20 -10 -8 -12 -12 -5 -8 7 4 12 0 12 -10 0 -8
12 -21 26 -27 23 -11 28 -9 41 7 11 14 14 15 10 4 -3 -9 0 -22 6 -28 18 -18
-12 -13 -59 10 -24 11 -46 29 -49 40 -5 15 -14 20 -36 17 -30 -3 -49 13 -48
42 0 9 4 7 12 -8 10 -17 16 -19 24 -11z m-977 -2 c0 -5 9 -9 21 -9 11 0 17 -5
14 -10 -7 -11 -24 -4 -60 24 -20 15 -20 15 3 9 12 -3 22 -9 22 -14z m690 17
c0 -11 -19 -15 -25 -6 -3 5 1 10 9 10 9 0 16 -2 16 -4z m492 -29 c-13 -15
-110 -42 -119 -33 -4 3 3 6 15 6 12 0 22 5 22 10 0 6 13 10 29 10 17 0 33 5
36 10 3 6 11 10 17 10 7 0 7 -4 0 -13z m1085 5 c8 -5 9 -13 3 -22 -8 -13 -10
-12 -10 3 0 9 -5 17 -12 17 -6 0 -21 -8 -32 -17 -21 -18 -21 -18 -2 5 20 23
33 27 53 14z m-2380 -8 c-3 -3 -12 -4 -19 -1 -8 3 -5 6 6 6 11 1 17 -2 13 -5z
m1701 -36 c14 3 16 -14 3 -23 -12 -7 -31 27 -30 52 1 12 3 10 8 -7 4 -14 13
-24 19 -22z m206 28 c16 3 15 1 -5 -8 -14 -7 -33 -19 -41 -26 -16 -13 -48 -7
-48 9 0 4 7 6 15 3 8 -4 22 -3 31 0 14 5 14 9 3 23 -12 15 -12 15 5 6 10 -6
28 -9 40 -7z m-564 -11 c16 -19 5 -34 -12 -17 -20 20 -30 14 -17 -10 11 -21
11 -22 -4 -9 -23 19 -22 51 2 51 10 0 24 -7 31 -15z m-49 -42 l24 -26 -27 19
c-15 10 -28 22 -28 27 0 12 5 8 31 -20z m321 -5 c-15 -15 -24 -6 -16 16 5 12
10 14 17 7 8 -8 8 -14 -1 -23z m-1256 -5 c-7 -7 -26 7 -26 19 0 6 6 6 15 -2 9
-7 13 -15 11 -17z m768 12 c-4 -8 -11 -15 -16 -15 -6 0 -5 6 2 15 7 8 14 15
16 15 2 0 1 -7 -2 -15z m570 -44 c-3 -3 -15 6 -27 18 l-22 24 27 -19 c14 -10
24 -21 22 -23z m97 -8 c13 -16 12 -17 -3 -4 -10 7 -18 15 -18 17 0 8 8 3 21
-13z m-2180 -185 c11 -22 18 -42 16 -44 -4 -5 -57 82 -57 93 0 14 23 -14 41
-49z m59 -50 c0 -4 -4 -8 -10 -8 -5 0 -10 4 -10 9 0 5 -3 18 -6 28 -5 16 -4
16 10 -1 9 -11 16 -23 16 -28z m-221 12 c12 0 21 -4 21 -9 0 -13 -55 -51 -74
-51 -20 0 -20 9 0 32 14 15 15 20 3 34 -13 16 -12 16 8 6 12 -7 31 -12 42 -12z
m1389 -667 c-38 -44 -98 -172 -98 -208 0 -27 -8 -47 -30 -72 -16 -18 -30 -40
-30 -48 0 -8 -4 -15 -9 -15 -13 0 -47 -59 -55 -95 l-8 -30 36 40 c19 22 35 45
36 50 0 6 5 16 12 23 7 7 12 24 13 39 0 14 7 28 15 31 13 5 13 3 1 -11 -10
-13 -11 -20 -2 -31 8 -10 9 -16 1 -21 -6 -3 -8 -10 -5 -15 3 -5 1 -11 -5 -15
-5 -3 -10 -18 -10 -32 0 -13 -7 -37 -16 -53 -18 -29 -71 -66 -81 -56 -4 3 -1
6 5 6 7 0 12 7 12 15 0 13 -4 14 -20 5 -11 -6 -25 -8 -30 -5 -6 4 -13 0 -16
-9 -7 -17 -64 -40 -64 -25 0 5 6 9 14 9 8 0 23 15 35 33 11 17 27 41 36 53 18
24 45 123 45 164 0 17 4 30 8 30 5 0 6 -20 2 -45 -7 -44 -6 -45 12 -29 10 10
18 31 18 50 0 18 4 44 9 58 14 34 101 151 101 135 0 -8 5 -5 11 6 24 43 62 95
67 90 3 -3 -2 -13 -10 -22z m48 -135 c4 -6 3 -8 -4 -4 -5 3 -20 -6 -32 -21
-20 -26 -20 -27 -9 -3 10 21 27 39 36 40 1 0 5 -5 9 -12z m-65 -21 c-10 -9
-11 -8 -5 6 3 10 9 15 12 12 3 -3 0 -11 -7 -18z m-25 -76 c-10 -11 -16 -24
-13 -28 3 -5 2 -15 -4 -23 -6 -11 -8 -5 -5 17 3 33 24 68 34 58 3 -3 -3 -14
-12 -24z m-10 -87 c-10 -14 -16 -39 -14 -56 2 -19 -2 -33 -11 -36 -18 -6 -5
76 17 101 22 25 27 21 8 -9z m27 -27 c6 4 8 0 4 -10 -3 -9 -1 -19 4 -23 6 -3
8 -15 6 -26 -8 -31 20 -86 53 -103 17 -9 30 -18 30 -20 0 -11 -19 -4 -55 21
-42 28 -75 38 -75 23 0 -5 -7 -9 -15 -9 -19 0 -19 5 1 35 9 14 23 25 30 25 19
0 18 19 -2 41 -11 12 -13 25 -8 41 4 13 9 17 11 10 3 -6 10 -9 16 -5z m-76
-114 c-8 -15 -23 -35 -33 -44 -24 -20 -54 -31 -54 -20 0 5 9 11 19 14 11 2 31
24 46 47 29 46 45 49 22 3z m105 -308 c-2 -111 1 -198 7 -216 l10 -29 -50 0
c-46 0 -49 1 -39 19 13 26 14 358 0 366 -19 12 -10 25 18 25 19 0 57 13 57 20
0 0 -1 -83 -3 -185z m-487 123 c22 -6 50 -11 63 -10 18 2 22 -3 22 -27 0 -16
3 -38 7 -48 4 -10 -13 0 -40 25 -51 46 -96 55 -129 25 -36 -33 -9 -90 52 -108
48 -14 99 -45 111 -67 6 -11 11 -39 11 -61 -1 -76 -73 -115 -166 -92 -27 7
-57 10 -67 8 -17 -5 -19 1 -19 42 l0 48 45 -42 c35 -33 52 -41 81 -41 41 0 74
23 74 51 0 33 -48 76 -109 98 -70 25 -91 50 -91 106 0 45 23 75 70 94 33 13
38 13 85 -1z m980 -113 c23 -22 25 -31 25 -120 0 -89 2 -97 20 -102 16 -4 18
-8 9 -19 -14 -17 -43 -18 -70 -3 -15 8 -24 7 -35 -2 -21 -17 -73 -13 -95 7
-24 22 -25 76 -1 96 9 9 34 23 54 31 43 18 58 42 51 79 -9 48 -51 44 -55 -5
-3 -32 -2 -31 -33 -11 -28 19 -25 28 19 55 43 26 82 24 111 -6z m-760 5 c-6
-11 42 -147 55 -155 9 -5 40 106 40 140 0 20 5 25 26 25 21 0 24 -3 15 -14 -6
-7 -29 -75 -51 -150 -47 -159 -62 -193 -95 -208 -51 -23 -117 28 -85 67 17 21
39 19 34 -2 -7 -25 19 -58 39 -50 9 3 25 24 36 46 l21 40 -65 135 -64 136 50
0 c32 0 48 -4 44 -10z m425 -14 c0 -34 47 -154 53 -136 20 57 37 135 33 146
-4 10 3 14 26 14 30 0 31 -1 16 -16 -9 -9 -31 -70 -50 -136 -28 -102 -36 -118
-52 -116 -15 2 -28 29 -57 117 -21 63 -46 122 -55 132 -16 18 -15 19 34 19 48
0 52 -2 52 -24z m-1409 -485 l24 -19 -22 -30 -22 -30 28 -31 c24 -26 26 -31
11 -31 -10 0 -27 16 -39 36 -21 35 -41 38 -41 5 0 -9 5 -22 12 -29 9 -9 6 -12
-17 -12 -23 0 -26 3 -17 12 14 14 16 128 2 128 -5 0 -10 5 -10 10 0 17 67 11
91 -9z m289 -1 c0 -11 -4 -20 -10 -20 -5 0 -10 5 -10 10 0 6 -11 10 -25 10
-20 0 -25 -5 -25 -25 0 -20 5 -25 25 -25 14 0 25 -4 25 -10 0 -5 -11 -10 -24
-10 -25 0 -43 -30 -31 -50 10 -16 53 -11 64 8 9 15 10 15 11 -5 0 -21 -4 -23
-57 -23 -44 0 -54 3 -45 12 7 7 12 37 12 68 0 31 -5 61 -12 68 -9 9 1 12 45
12 50 0 57 -2 57 -20z m248 -7 c2 -13 -1 -23 -7 -23 -6 0 -11 6 -11 14 0 20
-25 27 -45 12 -19 -14 -19 -15 38 -57 48 -36 27 -83 -35 -77 -25 2 -34 8 -36
26 -4 28 14 29 21 1 4 -15 12 -20 29 -17 37 5 34 35 -6 59 -58 34 -42 93 24
86 17 -1 26 -9 28 -24z m272 7 c0 -19 -1 -20 -24 -5 l-24 16 -7 -62 c-6 -54
-5 -64 11 -76 16 -12 14 -13 -22 -13 -31 1 -36 3 -21 11 13 8 17 23 17 69 0
64 -10 79 -35 54 -18 -19 -30 -13 -22 11 5 11 22 15 67 15 54 0 60 -2 60 -20z
m225 -42 c9 -35 24 -71 33 -80 14 -17 13 -18 -19 -18 -20 0 -29 4 -22 8 7 4
10 17 6 30 -4 18 -12 22 -32 20 -29 -3 -42 -35 -19 -49 9 -6 2 -9 -20 -9 -31
0 -32 1 -18 23 8 12 24 48 36 80 12 31 25 57 29 57 5 0 16 -28 26 -62z m221
44 c-11 -35 -9 -101 4 -117 17 -21 47 -19 60 4 13 25 13 111 0 111 -5 0 -10 5
-10 10 0 6 12 10 27 10 21 0 24 -3 15 -12 -7 -7 -12 -34 -12 -61 0 -66 -13
-87 -53 -87 -46 0 -57 16 -57 82 0 32 -4 58 -10 58 -5 0 -10 5 -10 10 0 6 12
10 26 10 20 0 24 -4 20 -18z m335 8 c23 -13 25 -47 4 -70 -14 -16 -13 -20 10
-49 20 -23 23 -31 12 -31 -9 0 -25 16 -37 35 -12 19 -26 35 -31 35 -14 0 -11
-58 4 -63 6 -3 -4 -6 -23 -6 -23 0 -30 2 -21 8 10 6 12 27 9 80 l-4 71 29 0
c15 0 37 -5 48 -10z m269 -57 c11 -36 25 -72 31 -80 9 -10 5 -13 -22 -13 -23
0 -30 3 -21 9 19 11 11 45 -11 49 -37 7 -65 -42 -29 -51 9 -3 3 -5 -14 -6
l-32 -1 29 71 c30 74 38 89 44 89 2 0 13 -30 25 -67z m254 7 c21 -33 40 -60
43 -60 3 0 3 27 1 60 -4 53 -2 60 14 60 10 0 18 -4 18 -10 0 -5 -4 -10 -10
-10 -5 0 -10 -35 -12 -77 l-3 -77 -45 69 -45 69 -3 -53 c-2 -37 1 -57 10 -62
9 -6 3 -9 -16 -9 -23 0 -27 3 -18 12 7 7 12 37 12 68 0 31 -5 61 -12 68 -9 9
-8 12 8 12 12 0 32 -21 58 -60z m335 38 c0 -13 -3 -17 -6 -10 -2 6 -13 12 -24
12 -17 0 -19 -8 -19 -64 0 -42 4 -66 13 -69 6 -3 -6 -6 -28 -6 -32 0 -36 2
-22 10 13 8 17 23 17 69 0 63 -10 79 -33 55 -21 -20 -26 -19 -20 5 5 17 14 20
64 20 55 0 59 -2 58 -22z"/>
<path d="M2130 3712 c0 -34 18 -62 40 -62 12 0 26 -12 35 -31 29 -55 28 -22
-1 42 -25 56 -29 60 -35 38 -4 -13 -7 -19 -8 -13 -1 5 -8 19 -16 30 -14 18
-14 18 -15 -4z"/>
<path d="M2492 3489 c-13 -10 -22 -26 -20 -36 3 -14 8 -11 27 15 28 39 25 47
-7 21z"/>
<path d="M2513 3221 c-17 -11 -34 -17 -37 -14 -3 4 -6 1 -6 -5 0 -7 7 -12 16
-12 12 0 15 -7 12 -23 -3 -16 0 -24 9 -24 18 0 78 55 69 64 -3 3 -14 -1 -24
-10 -26 -23 -39 -21 -18 2 28 31 15 43 -21 22z"/>
<path d="M2618 3153 c-22 -24 -23 -37 -3 -53 12 -10 15 -7 20 13 4 14 5 33 3
42 -3 16 -5 15 -20 -2z"/>
<path d="M2512 3087 c-17 -12 -31 -28 -30 -35 4 -20 22 -17 33 7 5 11 13 21
18 21 4 0 5 -4 2 -10 -3 -6 1 -7 9 -4 16 6 23 45 9 43 -5 0 -23 -10 -41 -22z"/>
<path d="M2670 3080 c1 -24 10 -46 30 -70 35 -41 36 -40 10 29 -26 71 -40 86
-40 41z"/>
<path d="M2680 3013 c0 -4 5 -15 10 -23 8 -13 10 -13 10 2 0 9 -4 20 -10 23
-5 3 -10 3 -10 -2z"/>
<path d="M2505 3000 c-3 -5 -1 -10 4 -10 6 0 11 5 11 10 0 6 -2 10 -4 10 -3 0
-8 -4 -11 -10z"/>
<path d="M1225 3640 c-3 -5 -1 -10 4 -10 6 0 11 5 11 10 0 6 -2 10 -4 10 -3 0
-8 -4 -11 -10z"/>
<path d="M1780 3236 c0 -13 7 -26 15 -30 11 -4 15 1 15 18 0 13 -7 26 -15 30
-11 4 -15 -1 -15 -18z"/>
<path d="M1820 3213 c0 -10 5 -25 10 -33 8 -13 11 -13 26 2 9 9 14 24 11 32
-9 22 -47 21 -47 -1z"/>
<path d="M1906 3165 c-18 -27 -14 -45 9 -45 18 0 31 48 18 61 -7 7 -16 1 -27
-16z"/>
<path d="M1870 3113 c0 -15 38 -34 46 -22 7 13 5 15 -23 23 -13 4 -23 4 -23
-1z"/>
<path d="M1962 3108 c3 -7 12 -14 21 -16 12 -2 15 1 11 12 -7 19 -38 22 -32 4z"/>
<path d="M1940 3091 c0 -12 26 -38 52 -52 17 -9 24 -8 34 6 7 9 10 24 7 33 -5
12 -8 11 -14 -6 -5 -12 -11 -22 -14 -22 -4 0 -3 5 0 10 3 6 -2 13 -12 16 -10
3 -26 10 -35 15 -11 6 -18 6 -18 0z"/>
<path d="M1918 3067 c-11 -26 -10 -67 1 -67 5 0 12 6 15 13 3 8 9 7 20 -7 8
-10 20 -15 26 -11 9 6 9 2 1 -13 -7 -13 -8 -35 -3 -58 l8 -38 22 24 c12 13 22
30 22 37 0 8 4 12 9 8 5 -3 9 8 9 24 -1 29 -18 34 -18 6 0 -20 -22 -65 -31
-65 -4 0 -3 14 3 30 11 33 -2 60 -28 60 -8 0 -11 6 -7 17 5 13 2 15 -15 11
-17 -5 -21 -1 -24 21 -3 22 -4 23 -10 8z"/>
<path d="M2050 3070 c0 -5 6 -10 14 -10 8 0 18 5 21 10 3 6 -3 10 -14 10 -12
0 -21 -4 -21 -10z"/>
<path d="M2084 2996 c-18 -14 -18 -15 4 -13 12 1 22 7 22 14 0 16 -2 16 -26
-1z"/>
<path d="M2182 2978 c-21 -21 -13 -29 29 -26 43 2 66 18 27 18 -13 0 -28 5
-34 10 -7 7 -14 6 -22 -2z"/>
<path d="M2367 2963 c4 -11 3 -14 -5 -9 -7 4 -12 3 -12 -2 0 -6 7 -13 16 -16
22 -9 24 -8 24 10 0 10 6 14 14 11 10 -4 13 -1 9 9 -3 7 -16 14 -29 14 -18 0
-22 -4 -17 -17z"/>
<path d="M2267 2956 c-3 -8 1 -17 9 -20 25 -9 64 -7 64 4 0 6 -10 10 -23 10
-13 0 -28 5 -34 11 -7 7 -12 6 -16 -5z"/>
<path d="M2315 2900 c-3 -5 -17 -10 -31 -10 -14 0 -22 -4 -19 -10 9 -14 38
-12 60 3 11 9 14 16 7 21 -6 3 -13 2 -17 -4z"/>
<path d="M2218 2863 c-40 -6 -35 -24 5 -19 17 3 36 5 40 5 5 1 5 6 2 11 -3 6
-9 9 -13 9 -4 -1 -19 -4 -34 -6z"/>
<path d="M2326 2814 c-4 -9 -4 -19 -1 -22 2 -3 7 3 11 12 4 9 4 19 1 22 -2 3
-7 -3 -11 -12z"/>
<path d="M630 3513 c0 -10 -3 -28 -6 -40 -5 -17 -2 -23 10 -23 12 0 16 10 16
40 0 22 -4 40 -10 40 -5 0 -10 -8 -10 -17z"/>
<path d="M737 3435 c-11 -26 -8 -32 13 -38 14 -3 20 -14 20 -32 0 -15 4 -24
10 -20 15 9 12 26 -14 69 -18 31 -24 35 -29 21z"/>
<path d="M1042 3348 c6 -18 28 -21 28 -4 0 9 -7 16 -16 16 -9 0 -14 -5 -12
-12z"/>
<path d="M1457 3335 c-4 -8 -2 -17 2 -20 5 -2 11 4 14 15 6 23 -8 27 -16 5z"/>
<path d="M1446 3264 c-9 -24 -7 -28 9 -14 17 14 20 30 6 30 -5 0 -12 -7 -15
-16z"/>
<path d="M320 3285 c1 -11 7 -31 14 -44 l13 -23 6 23 c5 17 0 30 -13 44 -20
19 -20 19 -20 0z"/>
<path d="M350 3195 c0 -6 5 -16 12 -23 9 -9 9 -12 -1 -12 -9 0 -11 -6 -6 -17
4 -10 8 -31 9 -46 2 -29 23 -50 42 -43 5 2 21 -5 35 -16 l24 -20 -30 7 c-60
14 -65 14 -65 1 0 -16 51 -39 76 -34 9 1 22 12 28 23 6 11 12 22 13 24 1 2 15
-4 30 -14 20 -14 14 -3 -22 38 -29 33 -62 60 -77 63 -16 4 -28 12 -28 18 -1
14 -39 64 -40 51z m85 -105 c22 -23 25 -30 12 -30 -9 0 -17 6 -17 14 0 8 -10
22 -22 30 -12 9 -18 16 -12 16 6 0 23 -13 39 -30z m-15 -14 c0 -11 -19 -15
-25 -6 -3 5 1 10 9 10 9 0 16 -2 16 -4z m20 -69 c13 -5 13 -6 -1 -6 -8 -1 -24
6 -35 15 -19 15 -19 15 1 6 11 -5 27 -12 35 -15z"/>
<path d="M336 3064 c-9 -24 -7 -62 3 -69 5 -3 21 -30 35 -61 20 -43 33 -58 61
-70 36 -15 85 -10 85 8 0 6 -11 7 -26 4 -17 -5 -23 -3 -19 4 3 5 15 10 26 10
31 0 22 15 -20 36 -30 14 -37 22 -29 32 6 7 20 10 32 6 16 -5 18 -4 9 6 -6 7
-32 13 -57 14 -38 1 -46 -1 -46 -16 0 -10 -4 -18 -9 -18 -13 0 -25 50 -22 93
3 37 -12 51 -23 21z"/>
<path d="M1311 3021 c-19 -12 -4 -33 22 -29 24 3 38 18 31 30 -7 11 -35 10
-53 -1z"/>
<path d="M1224 2992 c9 -14 58 -22 53 -8 -2 6 -16 12 -31 14 -16 2 -26 -1 -22
-6z"/>
<path d="M1280 2864 c0 -8 5 -12 10 -9 6 3 10 10 10 16 0 5 -4 9 -10 9 -5 0
-10 -7 -10 -16z"/>
<path d="M260 2858 c0 -7 5 -20 10 -28 8 -12 10 -11 10 7 0 12 -4 25 -10 28
-5 3 -10 0 -10 -7z"/>
<path d="M190 2850 c-13 -8 -12 -10 3 -10 9 0 17 5 17 10 0 12 -1 12 -20 0z"/>
<path d="M645 2844 c-16 -7 -25 -14 -20 -14 6 -1 20 -3 32 -6 12 -2 23 2 27
11 8 21 -5 24 -39 9z"/>
<path d="M352 2826 c7 -17 19 -26 34 -26 20 0 22 3 15 23 -5 14 -18 23 -35 25
-25 3 -26 2 -14 -22z"/>
<path d="M320 2833 c0 -4 5 -15 10 -23 8 -13 10 -13 10 2 0 9 -4 20 -10 23 -5
3 -10 3 -10 -2z"/>
<path d="M416 2816 c5 -22 2 -27 -21 -36 -26 -10 -27 -12 -11 -29 9 -9 16 -23
16 -29 0 -7 4 -12 9 -12 5 0 7 9 4 20 -3 12 0 20 7 20 7 0 9 8 4 22 -6 20 -5
21 9 9 15 -12 16 -10 6 18 -14 39 -32 52 -23 17z"/>
<path d="M458 2833 c7 -3 16 -2 19 1 4 3 -2 6 -13 5 -11 0 -14 -3 -6 -6z"/>
<path d="M450 2813 c1 -19 37 -52 65 -58 29 -6 29 -6 10 10 -11 8 -20 23 -20
33 0 11 -9 18 -27 20 -16 2 -28 0 -28 -5z"/>
<path d="M526 2805 c4 -8 10 -12 15 -9 11 6 2 24 -11 24 -5 0 -7 -7 -4 -15z"/>
<path d="M545 2780 c-3 -6 1 -13 10 -16 19 -8 30 0 20 15 -8 14 -22 14 -30 1z"/>
<path d="M1316 2764 c-6 -15 -4 -15 10 -3 16 13 17 11 10 -13 -3 -16 -3 -28 1
-29 5 -1 28 -3 53 -5 41 -3 43 -2 26 11 -23 17 -43 19 -48 5 -2 -6 -8 -6 -18
0 -13 8 -12 10 3 10 23 0 22 17 -2 30 -26 13 -28 13 -35 -6z"/>
<path d="M605 2699 c7 -11 35 -12 35 -1 0 4 -9 8 -20 9 -11 1 -18 -2 -15 -8z"/>
<path d="M650 2700 c0 -12 28 -25 36 -17 3 3 -4 10 -15 17 -15 7 -21 7 -21 0z"/>
<path d="M552 2651 c0 -32 4 -38 17 -34 14 4 14 3 -1 -10 -10 -8 -15 -17 -11
-21 4 -3 -8 -3 -25 0 -27 6 -32 4 -32 -14 0 -24 17 -39 50 -44 17 -2 25 2 25
12 0 8 3 20 7 25 3 6 9 27 13 47 6 29 3 40 -14 57 -12 12 -23 21 -25 21 -3 0
-5 -18 -4 -39z"/>
<path d="M520 2670 c0 -5 5 -10 10 -10 6 0 10 5 10 10 0 6 -4 10 -10 10 -5 0
-10 -4 -10 -10z"/>
<path d="M1500 2669 c0 -5 5 -7 10 -4 6 3 10 8 10 11 0 2 -4 4 -10 4 -5 0 -10
-5 -10 -11z"/>
<path d="M610 2651 c0 -5 4 -11 8 -13 5 -1 12 -18 15 -37 7 -34 7 -34 -13 -16
-11 10 -20 13 -20 7 0 -16 29 -28 75 -31 22 -1 55 -7 72 -12 34 -11 58 -5 48
12 -4 5 -21 9 -38 10 -28 0 -29 2 -12 10 17 8 16 9 -6 4 -47 -9 -94 15 -91 46
0 3 -8 10 -19 17 -10 7 -19 8 -19 3z"/>
<path d="M1160 2653 c0 -5 12 -20 26 -34 24 -21 26 -22 16 -3 -13 25 -42 50
-42 37z"/>
<path d="M1381 2624 c13 -16 39 -19 39 -5 0 5 -11 11 -25 13 -20 4 -23 3 -14
-8z"/>
<path d="M1430 2620 c0 -5 7 -10 16 -10 8 0 12 5 9 10 -3 6 -10 10 -16 10 -5
0 -9 -4 -9 -10z"/>
<path d="M1025 2610 c3 -5 11 -10 16 -10 6 0 7 5 4 10 -3 6 -11 10 -16 10 -6
0 -7 -4 -4 -10z"/>
<path d="M1472 2601 c-10 -6 -10 -10 0 -19 8 -6 19 -7 26 -3 10 6 10 10 0 19
-8 6 -19 7 -26 3z"/>
<path d="M1580 2583 c0 -33 8 -46 36 -61 16 -9 26 -8 42 4 28 19 28 34 2 27
-12 -3 -20 0 -20 8 0 8 -6 5 -15 -7 -13 -18 -14 -17 -15 19 0 26 -4 37 -15 37
-10 0 -15 -10 -15 -27z"/>
<path d="M1700 2580 c-7 -17 -10 -33 -7 -36 3 -3 13 6 23 21 11 17 14 29 7 36
-7 7 -14 0 -23 -21z"/>
<path d="M1009 2590 c-11 -7 -10 -10 4 -16 10 -4 23 -2 28 3 14 14 -13 24 -32
13z"/>
<path d="M1550 2568 c0 -17 3 -28 7 -25 9 10 10 57 1 57 -4 0 -8 -14 -8 -32z"/>
<path d="M2315 2590 c-3 -5 -3 -10 1 -10 4 0 -2 -10 -14 -23 -23 -24 -20 -37
6 -37 12 0 12 3 2 15 -10 12 -10 15 3 15 8 0 17 11 19 25 5 25 -5 34 -17 15z"/>
<path d="M850 2567 c40 -19 34 -35 -14 -42 -25 -4 -49 -4 -55 -1 -5 4 -13 2
-16 -4 -8 -12 52 -71 69 -68 6 1 30 -4 54 -11 59 -17 73 -9 31 16 -20 12 -48
20 -67 18 -18 -1 -39 3 -47 9 -12 8 -4 11 34 10 27 0 55 -5 63 -11 7 -6 25
-11 41 -11 22 0 25 3 16 14 -6 8 -18 14 -25 14 -17 0 -18 17 -1 23 8 4 7 6 -4
6 -8 1 -26 12 -39 26 -13 14 -33 25 -44 24 -19 -1 -19 -2 4 -12z"/>
<path d="M1376 2565 c4 -8 13 -15 21 -15 8 0 12 -4 9 -9 -6 -10 39 -32 48 -23
4 3 -4 15 -17 26 -12 12 -18 18 -12 15 18 -11 55 -17 55 -10 0 12 -49 31 -80
31 -22 0 -28 -4 -24 -15z"/>
<path d="M1510 2570 c-8 -5 -11 -12 -7 -16 4 -4 13 -2 19 4 15 15 7 24 -12 12z"/>
<path d="M810 2557 c0 -19 16 -31 24 -18 3 5 -1 14 -9 21 -12 10 -15 10 -15
-3z"/>
<path d="M960 2551 c-8 -17 -7 -19 16 -16 15 1 38 -4 53 -11 30 -16 51 -3 32
20 -17 21 -63 24 -79 6 -12 -13 -13 -13 -8 3 7 23 -1 22 -14 -2z"/>
<path d="M1735 2559 c-4 -6 -5 -12 -2 -15 2 -3 7 2 10 11 7 17 1 20 -8 4z"/>
<path d="M2730 2551 c-14 -28 -13 -31 13 -32 21 0 21 -1 2 -9 -16 -7 -17 -9
-3 -9 9 -1 23 2 31 5 13 5 12 9 -4 25 -11 11 -17 24 -14 29 4 6 2 10 -4 10 -6
0 -15 -9 -21 -19z"/>
<path d="M1780 2520 c-20 -29 -13 -49 13 -33 6 4 22 6 34 5 11 -2 24 2 28 8 5
9 1 10 -15 5 -19 -6 -21 -4 -16 13 11 33 -21 35 -44 2z"/>
<path d="M1366 2526 c7 -18 84 -57 97 -49 12 7 -13 22 -28 16 -7 -2 -25 7 -40
21 -32 30 -37 32 -29 12z"/>
<path d="M1490 2536 c0 -2 6 -9 14 -15 10 -9 15 -8 20 4 4 10 -1 15 -14 15
-11 0 -20 -2 -20 -4z"/>
<path d="M990 2521 c0 -5 5 -13 10 -16 6 -3 10 -2 10 4 0 5 -4 13 -10 16 -5 3
-10 2 -10 -4z"/>
<path d="M1120 2520 c0 -5 5 -10 11 -10 5 0 7 5 4 10 -3 6 -8 10 -11 10 -2 0
-4 -4 -4 -10z"/>
<path d="M1250 2515 c0 -18 24 -30 39 -21 16 10 1 36 -20 36 -10 0 -19 -7 -19
-15z"/>
<path d="M1545 2520 c3 -5 10 -10 16 -10 5 0 9 5 9 10 0 6 -7 10 -16 10 -8 0
-12 -4 -9 -10z"/>
<path d="M2246 2515 c-3 -9 3 -19 14 -25 14 -8 20 -8 20 0 0 6 5 8 10 5 6 -3
10 -1 10 5 0 7 -7 10 -15 6 -9 -3 -15 0 -15 9 0 19 -16 19 -24 0z"/>
<path d="M950 2510 c0 -5 7 -10 16 -10 8 0 12 5 9 10 -3 6 -10 10 -16 10 -5 0
-9 -4 -9 -10z"/>
<path d="M1720 2510 c0 -5 5 -10 10 -10 6 0 10 5 10 10 0 6 -4 10 -10 10 -5 0
-10 -4 -10 -10z"/>
<path d="M1165 2500 c3 -5 11 -10 16 -10 6 0 7 5 4 10 -3 6 -11 10 -16 10 -6
0 -7 -4 -4 -10z"/>
<path d="M1670 2500 c0 -5 7 -10 15 -10 9 0 12 -6 9 -15 -7 -16 0 -18 31 -6
19 8 19 8 -2 15 -13 4 -23 12 -23 17 0 5 -7 9 -15 9 -8 0 -15 -4 -15 -10z"/>
<path d="M2329 2482 c-14 -36 -12 -41 24 -50 18 -5 31 -15 29 -22 -2 -9 6 -11
27 -7 25 5 29 4 24 -10 -4 -11 -2 -14 8 -11 8 3 14 10 13 16 -1 7 -2 22 -2 33
-2 18 -7 21 -31 16 -21 -5 -33 -1 -47 15 -19 20 -19 21 3 14 12 -4 24 -2 28 4
10 16 1 22 -35 24 -25 2 -34 -3 -41 -22z"/>
<path d="M2610 2499 c0 -5 9 -9 20 -9 14 0 18 -4 13 -17 -7 -17 -5 -17 17 -2
37 24 34 34 -10 36 -22 0 -40 -3 -40 -8z"/>
<path d="M1025 2490 c4 -6 11 -8 16 -5 14 9 11 15 -7 15 -8 0 -12 -5 -9 -10z"/>
<path d="M1051 2486 c-17 -20 3 -30 29 -14 11 7 20 16 20 20 0 14 -37 9 -49
-6z"/>
<path d="M1131 2491 c-9 -6 -7 -10 8 -14 12 -3 21 -1 21 3 0 14 -15 19 -29 11z"/>
<path d="M1310 2486 c0 -10 8 -16 22 -16 12 0 19 1 17 3 -2 1 -12 9 -21 16
-15 12 -18 11 -18 -3z"/>
<path d="M1355 2490 c3 -5 13 -10 21 -10 8 0 12 5 9 10 -3 6 -13 10 -21 10 -8
0 -12 -4 -9 -10z"/>
<path d="M1565 2490 c-4 -6 -11 -8 -16 -5 -5 4 -9 1 -9 -5 0 -7 6 -10 14 -7 7
3 19 0 25 -6 14 -14 25 -3 18 18 -7 17 -23 20 -32 5z"/>
<path d="M1617 2479 c-4 -16 -3 -18 9 -8 7 6 11 15 8 20 -8 13 -11 11 -17 -12z"/>
<path d="M1498 2476 c-23 -17 -16 -51 19 -90 15 -17 31 -35 35 -40 3 -4 5 6 4
23 -2 34 -1 33 -40 49 -16 7 -26 15 -23 18 3 3 15 0 27 -6 20 -11 21 -10 15
12 -14 43 -18 48 -37 34z"/>
<path d="M1900 2480 c-12 -8 -12 -10 2 -15 20 -8 41 2 33 16 -8 11 -16 11 -35
-1z"/>
<path d="M2705 2472 c-8 -21 5 -34 26 -29 11 3 16 1 13 -5 -4 -5 -18 -8 -32
-5 -34 7 -72 -8 -72 -29 0 -26 59 -94 83 -94 l20 0 -21 23 c-36 38 -25 44 13
7 19 -19 35 -29 35 -23 0 7 -4 15 -10 18 -5 3 -10 14 -10 23 0 13 2 14 9 4 6
-10 10 -8 14 9 4 15 1 26 -8 32 -27 15 -15 25 20 17 38 -9 47 -2 53 38 2 17
-2 22 -20 23 -13 1 -42 2 -65 3 -29 1 -44 -3 -48 -12z"/>
<path d="M2854 2439 c6 -44 5 -50 -10 -47 -9 2 -19 -3 -21 -9 -6 -16 11 -17
37 -3 11 6 16 17 13 29 -3 10 0 22 6 25 7 4 9 1 5 -8 -7 -18 24 -36 63 -36
l27 0 -24 17 c-28 19 -42 38 -51 68 -6 19 -7 18 -17 -5 -10 -24 -11 -24 -11
-2 -1 12 -6 22 -12 22 -8 0 -9 -16 -5 -51z"/>
<path d="M1261 2465 c-1 -21 15 -52 23 -45 2 3 -2 19 -9 35 -10 23 -14 25 -14
10z"/>
<path d="M1780 2470 c-11 -7 -4 -10 25 -10 29 0 36 3 25 10 -8 5 -19 10 -25
10 -5 0 -17 -5 -25 -10z"/>
<path d="M2582 2469 c-26 -10 -25 -32 2 -37 17 -4 46 14 46 28 0 13 -24 18
-48 9z"/>
<path d="M1000 2460 c0 -5 9 -10 21 -10 11 0 17 5 14 10 -3 6 -13 10 -21 10
-8 0 -14 -4 -14 -10z"/>
<path d="M1089 2448 c0 -13 -3 -17 -6 -10 -2 6 -9 12 -14 12 -6 0 -7 -4 -4
-10 3 -5 0 -7 -9 -4 -8 3 -21 0 -29 -7 -11 -11 -12 -16 -1 -26 16 -17 30 -17
16 0 -8 9 -2 12 24 12 19 0 34 -3 34 -7 0 -5 9 -8 20 -8 18 0 19 3 10 20 -6
11 -8 26 -4 32 4 7 3 8 -4 4 -7 -4 -12 -2 -12 3 0 22 -20 10 -21 -11z"/>
<path d="M1173 2457 c-3 -5 0 -14 6 -20 8 -8 11 -7 12 4 0 7 4 4 9 -8 6 -15
15 -21 24 -17 9 3 23 -1 31 -10 9 -9 26 -15 38 -15 20 1 21 2 2 6 -31 8 -62
37 -57 53 2 9 -2 7 -12 -5 -15 -20 -15 -20 -16 1 0 21 -26 29 -37 11z"/>
<path d="M1290 2450 c0 -5 9 -14 20 -20 22 -12 27 -1 8 18 -14 14 -28 16 -28
2z"/>
<path d="M1345 2451 c-3 -6 -1 -11 5 -11 7 0 7 -7 -1 -22 l-12 -23 23 20 23
20 -8 -25 c-4 -14 -11 -26 -16 -28 -10 -4 20 -52 32 -52 12 0 11 37 -1 60 -16
30 10 37 31 9 21 -28 34 -20 25 14 -4 17 -15 26 -33 29 -16 3 -35 8 -44 12
-10 4 -20 3 -24 -3z"/>
<path d="M1550 2454 c0 -6 7 -17 15 -24 13 -11 18 -11 28 0 9 10 9 12 -3 8 -8
-3 -20 2 -27 11 -7 9 -13 11 -13 5z"/>
<path d="M1674 2452 c4 -7 2 -12 -3 -12 -6 0 -11 -7 -11 -15 0 -17 35 -21 45
-5 3 6 -1 10 -10 10 -9 0 -14 4 -10 9 3 5 0 13 -6 17 -8 4 -9 3 -5 -4z"/>
<path d="M1744 2425 c-4 -24 -15 -38 -45 -54 -24 -14 -39 -30 -39 -42 0 -10
-9 -24 -20 -31 -28 -18 -25 -27 16 -44 45 -19 64 -13 101 34 26 32 28 40 19
63 -6 14 -17 24 -23 22 -7 -3 -13 0 -13 6 0 6 5 11 11 11 6 0 8 8 5 18 -4 13
-1 19 9 19 8 0 15 -4 15 -9 0 -13 17 -9 23 5 3 8 -7 18 -24 24 -27 11 -29 10
-35 -22z"/>
<path d="M1860 2450 c0 -5 10 -10 23 -10 18 0 19 2 7 10 -19 13 -30 13 -30 0z"/>
<path d="M732 2439 c2 -8 20 -15 39 -17 40 -4 30 13 -15 24 -22 5 -28 4 -24
-7z"/>
<path d="M1140 2436 c0 -8 5 -18 10 -21 6 -3 10 3 10 14 0 12 -4 21 -10 21 -5
0 -10 -6 -10 -14z"/>
<path d="M1605 2427 c-16 -18 -20 -34 -17 -70 2 -26 7 -47 11 -47 16 0 31 26
31 55 0 17 -5 36 -12 43 -8 8 -8 12 -1 12 6 0 13 7 17 15 8 22 -6 18 -29 -8z"/>
<path d="M2216 2435 c-16 -12 -17 -15 -4 -15 9 0 18 7 22 15 7 18 6 18 -18 0z"/>
<path d="M1830 2420 c0 -11 5 -20 10 -20 6 0 10 9 10 20 0 11 -4 20 -10 20 -5
0 -10 -9 -10 -20z"/>
<path d="M2095 2430 c-3 -5 -3 -10 2 -10 4 0 1 -5 -7 -10 -8 -5 -10 -10 -5
-10 6 0 16 4 24 9 10 6 25 4 42 -5 16 -8 36 -14 46 -14 12 1 5 7 -17 19 -50
27 -77 33 -85 21z"/>
<path d="M2301 2421 c-6 -4 -9 -15 -5 -24 9 -25 23 -21 17 6 -5 22 -5 22 10 2
11 -14 19 -17 27 -9 13 13 -31 36 -49 25z"/>
<path d="M730 2412 c1 -17 89 -47 138 -46 47 0 52 -2 52 -22 0 -13 5 -26 10
-29 6 -3 10 2 10 13 0 28 -35 69 -65 76 -32 8 -53 -2 -34 -16 9 -6 2 -7 -21
-2 -19 3 -37 10 -40 14 -7 9 -50 20 -50 12z"/>
<path d="M956 2398 c3 -13 13 -30 20 -39 8 -9 11 -18 8 -21 -3 -4 8 -5 25 -4
16 1 28 -1 25 -5 -2 -4 5 -5 16 -2 31 8 24 18 -30 37 -27 10 -50 22 -50 28 0
5 6 6 13 2 8 -5 8 -2 -2 9 -19 24 -34 21 -25 -5z"/>
<path d="M1170 2410 c0 -5 7 -10 16 -10 8 0 12 5 9 10 -3 6 -10 10 -16 10 -5
0 -9 -4 -9 -10z"/>
<path d="M1885 2408 c-11 -6 -23 -16 -26 -21 -4 -5 -14 -7 -23 -4 -11 5 -16 1
-16 -12 0 -14 5 -18 20 -14 11 3 20 10 20 15 0 6 7 8 15 4 8 -3 27 6 42 19 25
22 26 24 8 24 -11 0 -29 -5 -40 -11z"/>
<path d="M2556 2401 c-13 -15 -14 -20 -4 -24 18 -6 48 11 48 28 0 21 -24 19
-44 -4z"/>
<path d="M3065 2404 c-17 -9 -41 -16 -55 -16 -30 1 -65 -23 -55 -37 11 -19 53
-13 60 9 5 14 15 20 38 20 40 0 66 15 52 29 -7 7 -20 5 -40 -5z"/>
<path d="M1946 2394 c-3 -8 -19 -22 -35 -32 -28 -17 -29 -19 -10 -30 10 -7 19
-20 19 -29 0 -13 3 -14 12 -5 10 10 10 17 0 32 -17 28 -15 35 5 19 11 -10 14
-10 9 -1 -4 6 -3 12 3 12 6 0 8 8 4 18 -5 14 -3 13 10 -3 15 -18 16 -18 17 -2
0 15 3 16 23 6 19 -11 21 -10 9 3 -17 21 -60 29 -66 12z"/>
<path d="M1060 2390 c0 -5 5 -10 11 -10 5 0 7 5 4 10 -3 6 -8 10 -11 10 -2 0
-4 -4 -4 -10z"/>
<path d="M1135 2390 c-11 -4 -26 -5 -34 -2 -10 4 -12 1 -7 -7 5 -7 17 -10 28
-8 30 8 49 -3 43 -24 -9 -27 22 -25 52 3 18 17 23 18 23 6 0 -9 16 -25 36 -37
19 -12 32 -16 28 -9 -5 8 0 9 17 5 l24 -6 -25 19 c-44 34 -88 51 -115 44 -18
-4 -30 -1 -38 9 -8 10 -19 12 -32 7z"/>
<path d="M1668 2393 c6 -2 18 -2 25 0 6 3 1 5 -13 5 -14 0 -19 -2 -12 -5z"/>
<path d="M1791 2391 c-10 -6 -11 -14 -3 -26 9 -17 10 -16 17 4 8 27 4 33 -14
22z"/>
<path d="M2266 2381 c-25 -27 -19 -39 19 -39 41 0 41 2 16 34 -18 22 -19 23
-35 5z"/>
<path d="M2365 2390 c-4 -6 -15 -10 -26 -10 -11 0 -17 -4 -14 -10 8 -14 72
-13 81 1 4 7 13 -2 22 -20 15 -33 39 -37 34 -7 -3 14 1 16 17 11 15 -4 21 -2
21 8 0 22 -11 27 -33 16 -13 -8 -26 -8 -41 -1 -37 18 -55 21 -61 12z"/>
<path d="M2074 2372 c0 -16 5 -17 43 -8 24 5 43 13 43 18 0 4 -19 8 -43 8 -35
0 -43 -3 -43 -18z"/>
<path d="M2865 2374 c-12 -9 -32 -13 -50 -10 l-30 5 34 -15 c26 -12 40 -13 67
-4 37 12 43 24 18 34 -19 7 -15 8 -39 -10z"/>
<path d="M1457 2366 c-4 -11 -1 -16 10 -16 12 0 13 -3 4 -14 -8 -10 -9 -16 -1
-21 5 -3 10 -15 10 -26 0 -21 -29 -26 -48 -7 -8 8 -14 5 -21 -15 -14 -35 -31
-35 -31 1 0 21 2 24 10 12 8 -12 10 -12 9 5 0 21 -65 82 -76 71 -4 -4 3 -13
15 -22 25 -18 29 -42 7 -50 -8 -4 -15 -12 -15 -19 0 -7 -7 -16 -15 -19 -13 -4
-14 -10 -5 -26 9 -16 8 -22 -4 -26 -17 -7 -36 2 -36 18 0 7 6 6 15 -2 16 -14
20 -3 6 18 -6 11 -13 7 -30 -14 -18 -23 -21 -24 -21 -7 0 25 -41 65 -57 55
-17 -11 1 -73 27 -97 18 -16 26 -17 71 -7 84 20 116 16 136 -15 9 -16 30 -45
46 -66 26 -33 28 -43 22 -82 -6 -42 -4 -48 30 -87 20 -24 38 -53 42 -66 l6
-23 28 27 c26 25 29 34 29 91 0 35 7 80 15 99 24 58 11 110 -37 140 -46 30
-78 78 -78 120 0 37 -53 96 -63 70z"/>
<path d="M2510 2370 c0 -5 7 -10 16 -10 8 0 12 5 9 10 -3 6 -10 10 -16 10 -5
0 -9 -4 -9 -10z"/>
<path d="M2036 2362 c-3 -5 1 -15 9 -22 16 -14 20 -3 6 19 -5 8 -11 9 -15 3z"/>
<path d="M2596 2361 c-4 -5 -29 -12 -56 -16 -47 -6 -61 -17 -41 -29 5 -4 12 0
14 6 3 7 6 4 7 -7 l1 -20 9 20 c8 19 9 19 9 -2 1 -25 -18 -30 -49 -13 -13 7
-21 6 -29 -4 -9 -10 -8 -15 5 -20 9 -3 20 -4 24 -1 5 3 11 -4 15 -15 6 -20 7
-20 38 5 18 14 45 36 60 48 20 15 26 27 22 40 -8 19 -21 22 -29 8z"/>
<path d="M750 2346 c0 -18 31 -30 40 -16 5 8 9 7 13 -4 4 -10 13 -13 23 -9 15
6 15 8 -6 25 -26 21 -70 24 -70 4z"/>
<path d="M1090 2351 c0 -5 5 -13 10 -16 6 -3 10 -2 10 4 0 5 -4 13 -10 16 -5
3 -10 2 -10 -4z"/>
<path d="M835 2340 c3 -5 15 -10 26 -10 11 0 17 5 14 10 -3 6 -15 10 -26 10
-11 0 -17 -4 -14 -10z"/>
<path d="M1430 2329 c0 -15 6 -32 14 -38 22 -19 25 1 5 34 l-19 30 0 -26z"/>
<path d="M1990 2335 c7 -8 22 -15 33 -15 16 0 18 3 9 12 -6 6 -21 13 -33 15
-18 3 -20 1 -9 -12z"/>
<path d="M2188 2343 c7 -3 16 -2 19 1 4 3 -2 6 -13 5 -11 0 -14 -3 -6 -6z"/>
<path d="M2372 2330 c-23 -11 -42 -26 -42 -34 0 -9 6 -13 14 -10 10 4 12 -2 9
-23 -4 -26 -3 -27 11 -9 11 13 12 24 6 37 -17 30 -11 33 11 5 11 -14 24 -24
29 -21 5 3 10 -1 13 -7 3 -7 3 7 2 31 -2 24 -5 45 -7 47 -2 1 -22 -6 -46 -16z"/>
<path d="M2782 2341 c4 -13 18 -16 19 -4 0 4 -5 9 -11 12 -7 2 -11 -2 -8 -8z"/>
<path d="M2880 2335 c-26 -10 -31 -15 -19 -19 19 -8 69 9 69 24 0 12 -4 12
-50 -5z"/>
<path d="M3044 2335 c-9 -22 1 -29 15 -11 8 10 9 16 1 21 -5 3 -13 -1 -16 -10z"/>
<path d="M656 2325 c7 -17 35 -35 54 -35 7 0 4 8 -7 18 -10 9 -14 14 -9 10 6
-5 15 -8 21 -8 17 1 -28 30 -47 30 -11 0 -15 -5 -12 -15z"/>
<path d="M1955 2331 c-10 -17 15 -45 29 -31 7 7 5 15 -6 26 -11 11 -18 13 -23
5z"/>
<path d="M2210 2320 c-29 -29 -18 -37 15 -12 14 11 21 23 16 27 -6 3 -20 -4
-31 -15z"/>
<path d="M3015 2330 c-3 -5 -1 -10 4 -10 6 0 11 5 11 10 0 6 -2 10 -4 10 -3 0
-8 -4 -11 -10z"/>
<path d="M490 2306 c0 -13 7 -26 14 -29 11 -4 13 -1 9 10 -5 12 -3 14 8 7 8
-4 23 -10 34 -11 17 -3 17 -1 5 7 -8 6 -27 17 -42 26 -27 14 -28 14 -28 -10z"/>
<path d="M561 2307 c19 -13 39 -26 44 -29 7 -4 12 6 13 23 2 20 -1 28 -8 24
-6 -4 -9 -14 -6 -22 4 -10 -3 -8 -23 6 -16 12 -35 21 -41 21 -7 0 2 -10 21
-23z"/>
<path d="M1854 2316 c-10 -26 6 -39 25 -22 10 9 21 13 26 9 4 -5 6 -1 3 7 -6
21 -47 25 -54 6z"/>
<path d="M2929 2314 c-11 -14 -10 -15 11 -12 13 1 25 9 28 16 5 17 -23 15 -39
-4z"/>
<path d="M2976 2308 c-7 -31 4 -39 42 -32 35 7 44 24 12 24 -11 0 -23 7 -26
15 -9 22 -21 18 -28 -7z"/>
<path d="M644 2290 c1 -21 7 -26 35 -28 48 -5 87 6 73 20 -8 8 -15 8 -26 -1
-11 -9 -20 -10 -35 -1 -14 7 -21 7 -21 0 0 -20 -19 -10 -23 13 -3 19 -4 19 -3
-3z"/>
<path d="M786 2292 c22 -21 40 -28 62 -27 18 1 32 -2 32 -7 0 -4 7 -8 17 -8
14 0 14 2 -2 20 -10 11 -31 20 -47 20 -16 0 -43 7 -61 16 l-32 15 31 -29z"/>
<path d="M850 2310 c0 -5 7 -7 15 -4 8 4 15 8 15 10 0 2 -7 4 -15 4 -8 0 -15
-4 -15 -10z"/>
<path d="M1004 2309 c-7 -13 13 -29 36 -28 9 0 6 4 -8 12 -12 7 -19 16 -16 20
4 4 5 7 1 7 -3 0 -9 -5 -13 -11z"/>
<path d="M1090 2310 c10 -6 11 -10 3 -10 -7 0 -13 -4 -13 -10 0 -6 10 -5 25 2
28 13 24 28 -8 28 -18 0 -19 -2 -7 -10z"/>
<path d="M1550 2320 c0 -25 41 -106 56 -109 15 -3 16 0 7 10 -6 8 -23 34 -37
59 -14 25 -26 43 -26 40z"/>
<path d="M2088 2300 c-21 -16 -54 -97 -44 -107 2 -2 36 4 77 13 79 18 109 36
109 65 0 15 -4 17 -24 9 -29 -11 -38 -3 -25 21 9 17 6 19 -29 19 -24 0 -49 -8
-64 -20z"/>
<path d="M900 2300 c-17 -10 -13 -15 17 -24 12 -4 24 -2 27 3 9 14 -27 31 -44
21z"/>
<path d="M1215 2300 c3 -5 11 -10 16 -10 6 0 7 5 4 10 -3 6 -11 10 -16 10 -6
0 -7 -4 -4 -10z"/>
<path d="M2306 2302 c-3 -4 -11 -27 -19 -50 -19 -55 -11 -61 89 -68 72 -6 82
-4 107 16 22 18 26 25 15 31 -7 5 -17 9 -23 9 -5 0 -3 -4 5 -10 8 -5 11 -12 7
-16 -4 -4 -13 -2 -19 4 -8 8 -15 9 -25 1 -10 -9 -13 -6 -13 12 l0 23 -17 -23
c-15 -22 -17 -22 -28 -7 -11 14 -14 14 -24 2 -20 -24 -55 17 -47 55 5 28 2 37
-8 21z"/>
<path d="M2802 2294 c-19 -13 -36 -15 -77 -10 -29 3 -61 3 -69 0 -20 -8 -21
-44 -1 -44 8 0 15 -9 15 -20 0 -11 5 -20 10 -20 6 0 10 11 10 25 0 14 5 25 10
25 6 0 10 -4 10 -10 0 -11 36 -50 46 -50 3 0 -3 16 -15 36 -26 44 -26 47 -1
34 11 -6 20 -17 20 -25 0 -18 53 -60 58 -45 2 6 -2 17 -8 26 -7 8 -10 17 -6
21 3 4 13 -2 21 -13 8 -10 15 -14 15 -7 0 7 -12 24 -27 38 -29 26 -20 35 11
12 24 -17 59 -11 74 14 11 16 9 19 -10 18 -13 0 -32 2 -43 5 -12 4 -30 0 -43
-10z"/>
<path d="M1141 2247 c-1 -51 2 -61 31 -92 30 -33 34 -35 95 -34 38 1 70 7 80
16 17 14 17 14 -2 8 -31 -10 -108 -16 -132 -10 -29 7 -44 35 -59 110 l-12 60
-1 -58z"/>
<path d="M1170 2284 c0 -8 5 -12 10 -9 6 3 10 10 10 16 0 5 -4 9 -10 9 -5 0
-10 -7 -10 -16z"/>
<path d="M1797 2258 c-24 -38 -26 -44 -12 -54 17 -13 21 -99 6 -124 -19 -29 1
-29 25 0 14 16 56 49 93 74 50 34 74 58 95 96 21 39 24 50 12 50 -8 0 -18 -5
-22 -11 -3 -6 -15 -9 -25 -6 -14 4 -19 0 -19 -13 0 -22 -16 -35 -25 -20 -3 5
-1 10 4 10 20 0 11 15 -15 27 -23 11 -27 10 -31 -7 -7 -25 -20 -25 -35 0 -7
11 -15 20 -18 20 -3 0 -18 -19 -33 -42z"/>
<path d="M1223 2264 c16 -13 33 -22 38 -18 15 9 -8 31 -39 37 l-27 5 28 -24z"/>
<path d="M1275 2280 c3 -5 11 -10 16 -10 6 0 7 5 4 10 -3 6 -11 10 -16 10 -6
0 -7 -4 -4 -10z"/>
<path d="M2913 2283 c-7 -2 -13 -9 -13 -14 0 -15 53 -6 58 9 4 12 -21 15 -45
5z"/>
<path d="M972 2255 c0 -16 2 -22 5 -12 2 9 2 23 0 30 -3 6 -5 -1 -5 -18z"/>
<path d="M1111 2268 c0 -10 -10 -22 -21 -28 -11 -6 -20 -17 -20 -25 0 -8 -5
-15 -11 -15 -6 0 -8 9 -3 22 6 21 6 21 -11 5 -10 -10 -16 -19 -14 -21 2 -2 23
-15 46 -30 45 -27 69 -34 57 -15 -4 7 -10 37 -14 68 -4 31 -8 48 -9 39z"/>
<path d="M1761 2262 c-6 -12 -11 -27 -11 -34 1 -7 8 0 16 15 9 16 13 31 11 34
-3 2 -10 -4 -16 -15z"/>
<path d="M2255 2251 c-9 -18 -11 -31 -5 -31 11 0 34 50 26 57 -2 3 -12 -9 -21
-26z"/>
<path d="M350 2260 c0 -5 10 -10 23 -10 18 0 19 2 7 10 -19 13 -30 13 -30 0z"/>
<path d="M574 2256 c11 -9 29 -16 40 -16 17 1 18 2 6 9 -8 5 -26 12 -40 15
-24 7 -24 6 -6 -8z"/>
<path d="M1011 2258 c-1 -23 18 -33 25 -13 5 11 14 15 30 11 12 -3 26 -2 29 4
4 6 -7 10 -25 10 -19 0 -33 -6 -37 -17 -6 -15 -7 -15 -14 3 -6 16 -8 16 -8 2z"/>
<path d="M3045 2260 c-3 -5 1 -10 9 -10 8 0 18 5 21 10 3 6 -1 10 -9 10 -8 0
-18 -4 -21 -10z"/>
<path d="M516 2235 c-19 -29 -15 -32 55 -37 37 -2 46 0 44 12 -2 11 -12 14
-38 12 -19 -1 -38 1 -41 6 -3 5 7 7 22 4 26 -4 26 -4 7 12 -27 21 -30 20 -49
-9z"/>
<path d="M744 2246 c-10 -6 -34 -12 -51 -12 -18 1 -35 -5 -38 -12 -3 -7 0 -10
5 -7 5 3 18 1 29 -4 14 -8 22 -7 31 4 7 8 16 12 21 9 5 -3 9 0 9 5 0 6 5 11
10 11 6 0 10 -8 10 -19 0 -18 19 -26 85 -34 11 -1 28 -14 37 -29 10 -16 21
-28 24 -28 3 0 -1 11 -10 25 -21 31 -20 34 7 45 17 7 10 8 -29 7 -42 -1 -58 4
-86 25 -30 23 -38 25 -54 14z"/>
<path d="M925 2250 c3 -5 10 -10 16 -10 5 0 9 5 9 10 0 6 -7 10 -16 10 -8 0
-12 -4 -9 -10z"/>
<path d="M2390 2244 c0 -8 5 -12 10 -9 6 3 10 10 10 16 0 5 -4 9 -10 9 -5 0
-10 -7 -10 -16z"/>
<path d="M2930 2253 c-57 -6 -62 -10 -50 -33 6 -11 20 -20 30 -20 25 0 26 15
3 30 -15 9 -14 10 7 4 14 -3 29 -10 35 -15 14 -14 35 -11 35 6 0 8 8 15 18 15
14 0 15 2 2 10 -8 5 -22 9 -30 8 -8 -1 -31 -3 -50 -5z"/>
<path d="M361 2231 c-19 -3 -37 -12 -39 -20 -3 -10 0 -12 14 -7 52 21 50 21
34 2 -13 -16 -9 -16 25 3 43 23 60 27 50 11 -9 -15 11 -12 24 3 9 11 3 14 -32
14 -23 0 -57 -2 -76 -6z"/>
<path d="M2582 2228 c-7 -7 -12 -21 -12 -32 0 -17 2 -18 10 -6 9 13 10 13 11
0 0 -9 5 -6 11 8 14 27 -1 49 -20 30z"/>
<path d="M2850 2228 c0 -9 5 -20 10 -23 13 -8 13 5 0 25 -8 13 -10 13 -10 -2z"/>
<path d="M3017 2228 c-26 -14 -20 -28 13 -28 37 0 61 34 26 36 -13 1 -30 -3
-39 -8z"/>
<path d="M1670 2202 c0 -6 5 -14 10 -17 6 -4 8 -10 5 -15 -3 -4 -1 -28 4 -53
6 -35 4 -58 -10 -98 -26 -73 -23 -92 6 -44 14 23 25 55 25 76 0 20 5 50 11 68
11 30 9 35 -20 63 -17 17 -31 26 -31 20z"/>
<path d="M2620 2186 c0 -31 18 -43 37 -24 12 13 11 17 -11 32 -25 16 -26 16
-26 -8z"/>
<path d="M2700 2201 c0 -5 5 -13 10 -16 6 -3 10 -2 10 4 0 5 -4 13 -10 16 -5
3 -10 2 -10 -4z"/>
<path d="M740 2189 c0 -5 5 -7 10 -4 6 3 10 8 10 11 0 2 -4 4 -10 4 -5 0 -10
-5 -10 -11z"/>
<path d="M1750 2196 c0 -2 7 -9 15 -16 9 -7 15 -8 15 -2 0 5 -7 12 -15 16 -8
3 -15 4 -15 2z"/>
<path d="M2135 2190 c-14 -6 -4 -9 36 -9 40 -1 64 -7 82 -21 14 -11 36 -20 49
-19 l23 0 -22 9 c-13 5 -23 16 -23 24 0 7 -7 17 -16 20 -23 9 -105 6 -129 -4z"/>
<path d="M2929 2189 c-8 -5 -22 -6 -32 -3 -16 5 -17 3 -8 -15 12 -22 31 -28
31 -10 0 8 4 8 15 -1 8 -6 19 -9 25 -5 6 3 10 -3 10 -15 0 -11 7 -23 15 -27
25 -9 30 5 9 29 -19 21 -19 21 1 13 33 -13 75 -18 75 -8 0 13 -69 45 -101 48
-15 1 -33 -1 -40 -6z"/>
<path d="M687 2163 c-6 -34 -2 -40 18 -23 12 10 15 10 15 0 0 -8 2 -11 5 -8 8
8 -13 58 -24 58 -5 0 -11 -12 -14 -27z"/>
<path d="M806 2154 c-4 -14 -5 -29 -2 -31 3 -3 8 7 12 21 3 15 4 29 1 32 -2 3
-8 -7 -11 -22z"/>
<path d="M2001 2165 c-24 -7 -49 -11 -55 -9 -17 6 -126 -110 -126 -134 0 -11
-8 -26 -17 -33 -22 -19 -73 -90 -73 -102 0 -6 7 -2 15 9 13 18 14 18 8 -5 -3
-13 -20 -37 -37 -52 -29 -27 -30 -28 -8 -29 12 0 22 6 22 14 0 8 6 14 13 13
45 -1 53 10 63 93 5 41 48 128 86 174 18 22 36 33 55 34 33 1 147 41 118 41
-11 0 -40 -6 -64 -14z"/>
<path d="M2492 2168 c-6 -6 -42 -14 -79 -18 l-68 -7 66 -2 c53 -1 72 3 90 19
13 10 19 19 14 20 -6 0 -16 -5 -23 -12z"/>
<path d="M2690 2165 c7 -8 20 -15 28 -15 13 0 12 3 -4 15 -25 19 -40 19 -24 0z"/>
<path d="M493 2162 c-36 -2 -53 -7 -53 -16 0 -17 40 -28 54 -16 6 4 27 12 46
17 44 12 21 19 -47 15z"/>
<path d="M1751 2130 l1 -45 11 33 c7 24 7 36 -1 44 -9 9 -12 1 -11 -32z"/>
<path d="M2026 2144 c-38 -14 -78 -32 -90 -40 -22 -15 -15 -19 12 -5 30 15 72
22 72 11 0 -5 -10 -10 -22 -10 -13 0 -30 -5 -38 -11 -13 -9 -13 -10 1 -6 9 3
37 9 63 12 25 4 48 11 51 15 3 5 -5 6 -17 4 -26 -5 9 14 72 40 l35 14 -35 0
c-19 0 -66 -11 -104 -24z"/>
<path d="M2230 2145 c19 -14 36 -25 39 -25 2 0 -6 11 -19 25 -13 14 -30 25
-39 25 -8 0 0 -11 19 -25z"/>
<path d="M2512 2134 c-18 -19 -39 -34 -47 -34 -20 0 -19 -14 2 -31 15 -12 16
-12 11 3 -6 15 -5 15 23 0 16 -9 29 -23 29 -29 0 -7 11 -13 25 -13 31 0 31 5
-1 52 -15 21 -24 41 -21 44 3 3 13 -6 22 -20 18 -27 45 -35 45 -14 0 6 -8 21
-17 32 -16 18 -15 18 11 -2 33 -26 56 -28 56 -7 0 8 -9 15 -20 15 -11 0 -34 8
-53 19 l-33 19 -32 -34z"/>
<path d="M2742 2149 c-15 -23 -16 -42 -2 -34 6 3 10 2 10 -2 0 -5 7 -18 15
-29 15 -18 16 -17 10 16 l-6 35 15 -26 c15 -26 44 -44 53 -35 3 3 -4 15 -15
27 -18 19 -19 23 -6 36 8 8 14 19 14 24 0 12 -27 12 -35 -1 -4 -6 -13 -7 -24
-1 -13 7 -20 5 -29 -10z"/>
<path d="M575 2140 c-3 -5 -17 -10 -31 -10 -13 0 -24 -4 -24 -10 0 -12 2 -12
34 -1 16 7 26 7 28 0 4 -13 35 -1 42 17 6 16 -39 20 -49 4z"/>
<path d="M2840 2140 c0 -5 5 -10 11 -10 5 0 7 5 4 10 -3 6 -8 10 -11 10 -2 0
-4 -4 -4 -10z"/>
<path d="M2920 2131 c0 -5 3 -17 6 -26 5 -13 8 -14 15 -3 12 19 11 25 -6 32
-8 3 -15 1 -15 -3z"/>
<path d="M1379 2106 c12 -12 21 -26 21 -32 0 -5 -5 -1 -11 9 -5 9 -15 17 -21
17 -7 0 2 -15 19 -32 39 -42 49 -87 28 -127 -9 -19 -11 -31 -5 -31 6 0 8 -4 5
-10 -3 -5 -2 -10 2 -10 12 0 43 -71 43 -98 0 -11 4 -23 8 -26 15 -9 13 75 -2
123 -8 25 -16 70 -19 98 -3 45 -2 50 9 35 7 -9 15 -14 18 -11 8 7 -24 50 -33
45 -4 -3 -13 10 -19 28 -9 23 -20 35 -38 39 l-25 4 20 -21z"/>
<path d="M2348 2123 c6 -2 18 -2 25 0 6 3 1 5 -13 5 -14 0 -19 -2 -12 -5z"/>
<path d="M2255 2100 c-3 -5 1 -10 10 -10 9 0 14 -4 10 -9 -3 -5 -1 -12 4 -15
13 -9 39 3 45 21 5 12 1 14 -16 10 -12 -4 -27 -2 -34 4 -8 7 -14 7 -19 -1z"/>
<path d="M2606 2071 c-16 -18 -16 -19 12 -23 43 -6 54 0 42 23 -13 24 -32 24
-54 0z"/>
<path d="M1876 2064 c-22 -21 -30 -58 -21 -91 8 -27 8 -26 16 15 4 23 11 48
16 55 8 13 13 37 8 37 -2 0 -11 -7 -19 -16z"/>
<path d="M1737 2053 c-3 -5 0 -19 8 -29 15 -20 18 -11 6 20 -4 11 -10 15 -14
9z"/>
<path d="M2497 2049 c7 -7 15 -10 18 -7 3 3 -2 9 -12 12 -14 6 -15 5 -6 -5z"/>
<path d="M2320 2034 c0 -8 5 -12 10 -9 6 3 10 10 10 16 0 5 -4 9 -10 9 -5 0
-10 -7 -10 -16z"/>
<path d="M1770 2004 c-25 -18 -40 -41 -56 -84 -12 -33 -27 -67 -34 -75 -7 -8
-8 -15 -2 -15 15 0 31 24 38 59 4 19 25 51 50 77 24 24 44 49 44 54 0 12 2 13
-40 -16z"/>
<path d="M2490 2027 c0 -11 80 -58 89 -52 23 14 11 35 -20 35 -17 0 -39 5 -50
10 -10 6 -19 9 -19 7z"/>
<path d="M2600 2022 c0 -14 11 -21 26 -15 21 8 17 23 -6 23 -11 0 -20 -4 -20
-8z"/>
<path d="M1385 1959 c-4 -6 -5 -12 -2 -15 2 -3 7 2 10 11 7 17 1 20 -8 4z"/>
<path d="M1682 1930 c0 -14 2 -19 5 -12 2 6 2 18 0 25 -3 6 -5 1 -5 -13z"/>
<path d="M1380 1912 c0 -12 16 -45 35 -73 19 -28 35 -45 35 -38 0 7 -9 23 -21
35 -11 12 -27 39 -34 61 -10 28 -14 32 -15 15z"/>
<path d="M1656 1884 c-4 -9 -4 -19 -1 -22 2 -3 7 3 11 12 4 9 4 19 1 22 -2 3
-7 -3 -11 -12z"/>
<path d="M1494 1835 c4 -51 2 -67 -19 -104 -28 -48 -31 -66 -13 -77 7 -5 8 -3
3 6 -5 8 -4 11 3 6 12 -7 25 10 27 38 1 10 9 24 18 31 10 7 17 26 17 44 0 17
4 31 9 31 5 0 7 10 3 22 -3 15 -7 18 -10 9 -3 -9 -12 -2 -24 20 l-19 34 5 -60z"/>
<path d="M1639 1773 c-13 -16 -12 -17 4 -4 9 7 17 15 17 17 0 8 -8 3 -21 -13z"/>
<path d="M1585 1749 c-24 -46 -13 -54 12 -9 12 22 17 40 12 40 -4 0 -16 -14
-24 -31z"/>
<path d="M1676 1704 c-9 -23 -2 -28 13 -10 7 8 8 17 3 20 -6 3 -13 -1 -16 -10z"/>
<path d="M1494 1658 c-17 -18 -40 -53 -52 -77 l-21 -43 26 23 c34 32 85 107
81 120 -2 5 -17 -5 -34 -23z"/>
<path d="M1696 1359 c9 -84 15 -108 26 -115 8 -5 10 12 5 62 -3 42 -2 61 3 49
7 -15 9 -16 9 -4 1 9 -6 22 -14 29 -8 7 -15 9 -15 4 0 -5 -4 -2 -9 5 -6 10 -8
0 -5 -30z"/>
<path d="M1775 1260 c3 -5 11 -10 16 -10 6 0 7 5 4 10 -3 6 -11 10 -16 10 -6
0 -7 -4 -4 -10z"/>
<path d="M1750 1231 c0 -6 4 -13 10 -16 6 -3 7 1 4 9 -7 18 -14 21 -14 7z"/>
<path d="M1830 1222 c0 -5 7 -15 15 -22 8 -7 15 -8 15 -2 0 5 -7 15 -15 22 -8
7 -15 8 -15 2z"/>
<path d="M1711 1194 c0 -11 3 -14 6 -6 3 7 2 16 -1 19 -3 4 -6 -2 -5 -13z"/>
<path d="M880 2991 c0 -5 5 -13 10 -16 6 -3 10 -2 10 4 0 5 -4 13 -10 16 -5 3
-10 2 -10 -4z"/>
<path d="M2961 3034 c0 -11 3 -14 6 -6 3 7 2 16 -1 19 -3 4 -6 -2 -5 -13z"/>
<path d="M2835 2750 c-3 -5 -2 -10 4 -10 5 0 13 5 16 10 3 6 2 10 -4 10 -5 0
-13 -4 -16 -10z"/>
<path d="M2591 2974 c0 -11 3 -14 6 -6 3 7 2 16 -1 19 -3 4 -6 -2 -5 -13z"/>
<path d="M250 2650 c0 -5 5 -10 11 -10 5 0 7 5 4 10 -3 6 -8 10 -11 10 -2 0
-4 -4 -4 -10z"/>
<path d="M330 2626 c0 -2 7 -9 15 -16 9 -7 15 -8 15 -2 0 5 -7 12 -15 16 -8 3
-15 4 -15 2z"/>
<path d="M190 2265 c-20 -24 -5 -28 21 -6 19 16 20 20 8 21 -9 0 -22 -7 -29
-15z"/>
<path d="M1525 1513 l-17 -28 23 22 c12 12 20 25 17 28 -3 3 -13 -7 -23 -22z"/>
<path d="M1477 1418 c-4 -14 -9 -34 -13 -45 -3 -10 2 -5 11 10 9 16 15 36 13
45 -3 12 -6 9 -11 -10z"/>
<path d="M1437 1163 c-4 -3 -7 -11 -7 -17 0 -6 5 -5 12 2 6 6 9 14 7 17 -3 3
-9 2 -12 -2z"/>
<path d="M1571 1254 c0 -11 3 -14 6 -6 3 7 2 16 -1 19 -3 4 -6 -2 -5 -13z"/>
<path d="M2034 725 c-28 -28 -29 -62 -3 -78 32 -20 49 -1 49 53 0 56 -9 62
-46 25z"/>
<path d="M320 360 c0 -10 -3 -25 -6 -34 -4 -11 0 -16 14 -16 43 0 52 52 11 63
-14 4 -19 0 -19 -13z"/>
<path d="M1362 332 c-10 -29 -9 -32 9 -32 20 0 23 12 10 44 -7 18 -9 16 -19
-12z"/>
<path d="M1916 372 c-3 -3 -6 -18 -6 -34 0 -25 4 -29 23 -26 30 4 37 53 8 61
-11 2 -22 2 -25 -1z"/>
<path d="M2186 334 c-10 -26 -7 -34 13 -34 14 0 18 5 14 20 -7 27 -20 34 -27
14z"/>
</g>
</svg>
