 <svg  version="1.0" xmlns="http://www.w3.org/2000/svg"  width="300.000000pt" height="365.000000pt" viewBox="0 0 300.000000 365.000000"  preserveAspectRatio="xMidYMid meet">  <g transform="translate(0.000000,365.000000) scale(0.100000,-0.100000)" fill="#000000" stroke="none"> <path d="M1692 3627 c-21 -21 -22 -21 -22 -2 -1 17 -4 16 -25 -10 -14 -16 -25 -35 -25 -41 0 -6 -9 -22 -19 -36 -11 -13 -22 -38 -25 -54 -6 -27 -5 -27 10 6 9 19 19 29 21 23 8 -23 18 -14 20 17 3 40 23 77 33 60 5 -9 12 -6 23 11 24 33 28 20 12 -36 -19 -61 -19 -71 0 -55 20 17 32 5 15 -15 -17 -21 -7 -29 19 -15 24 12 27 2 8 -24 -12 -16 -16 -17 -35 -5 -18 11 -24 10 -43 -6 l-22 -20 8 25 c14 42 24 94 20 98 -2 2 -9 -14 -16 -37 -6 -22 -16 -38 -21 -35 -8 5 -9 -53 0 -70 2 -4 14 4 27 20 27 34 47 25 40 -18 -5 -25 -3 -29 11 -24 14 5 15 4 4 -9 -19 -23 4 -18 25 5 21 23 35 26 35 7 0 -7 -10 -17 -22 -22 -20 -9 -23 -18 -25 -74 -1 -60 1 -67 29 -93 34 -32 34 -33 -3 -41 -30 -8 -63 18 -41 32 15 9 -17 46 -48 56 -21 7 -50 -9 -50 -28 0 -5 9 -2 20 8 15 14 20 15 21 4 0 -8 2 -27 2 -43 1 -16 7 -31 12 -33 6 -2 10 14 8 39 -2 41 -2 41 6 11 5 -18 14 -39 21 -48 6 -8 9 -18 6 -24 -10 -16 5 -41 35 -57 29 -14 39 -47 19 -59 -5 -3 -10 1 -10 9 0 9 -5 16 -11 16 -5 0 -7 -5 -3 -11 4 -7 1 -10 -7 -7 -8 2 -23 22 -35 45 l-21 41 -10 -31 c-5 -18 -9 -24 -7 -15 1 9 -9 27 -22 39 -13 12 -24 29 -24 38 0 12 3 12 12 3 20 -20 27 -14 15 12 -9 18 -15 22 -24 14 -7 -6 -13 -16 -13 -23 0 -8 -8 -11 -20 -8 -16 4 -20 0 -20 -20 0 -31 9 -57 21 -57 5 0 4 12 -1 26 -13 33 -13 34 4 34 22 0 47 -47 40 -74 -8 -34 8 -58 47 -71 18 -6 37 -20 43 -31 6 -10 15 -22 21 -26 5 -4 9 -26 8 -50 -1 -38 0 -40 9 -18 13 31 23 10 13 -27 l-6 -26 -29 28 c-28 27 -28 27 -39 7 -16 -29 -13 -52 10 -92 l20 -35 -6 30 c-4 17 -9 46 -11 65 l-5 35 25 -28 c14 -15 26 -35 26 -43 0 -28 19 -13 22 19 l4 32 8 -27 c7 -22 3 -34 -18 -59 -22 -26 -36 -69 -21 -69 2 0 15 19 27 43 19 36 23 39 26 20 4 -28 10 -29 28 -5 12 15 13 13 14 -19 0 -26 5 -39 17 -44 10 -3 19 -3 20 2 2 4 12 23 23 41 20 33 47 45 36 16 -4 -10 -1 -14 6 -11 7 2 13 18 13 35 1 17 -3 28 -7 26 -4 -3 -8 1 -8 9 0 16 27 30 41 21 5 -3 9 -1 9 4 0 5 20 23 44 40 25 18 48 41 51 52 4 11 18 23 33 26 44 11 71 42 78 93 4 27 14 51 25 59 11 7 19 18 19 24 0 6 -9 3 -20 -7 -18 -17 -20 -17 -20 -1 0 9 7 19 15 22 8 3 17 14 20 24 3 10 13 21 23 24 30 11 62 33 93 62 31 30 32 43 8 164 -11 59 -25 82 -37 64 -4 -6 -15 -13 -24 -17 -10 -3 -18 -15 -18 -25 0 -10 -9 -27 -21 -38 -26 -24 -53 -74 -40 -74 6 0 8 -7 5 -15 -4 -8 -16 -15 -28 -15 -20 0 -22 5 -21 46 2 47 25 89 25 45 0 -12 4 -19 10 -16 12 8 13 52 1 59 -5 3 -14 -1 -21 -9 -7 -8 -16 -12 -21 -9 -9 5 -11 -2 -13 -71 -1 -22 -5 -58 -9 -80 l-7 -40 15 33 c20 42 40 36 39 -11 -1 -28 2 -34 15 -30 9 3 6 -4 -9 -17 -19 -17 -32 -20 -60 -16 -33 6 -34 5 -16 -9 11 -8 26 -15 33 -15 20 0 37 -40 24 -53 -9 -9 -14 -9 -20 1 -6 10 -14 9 -39 -4 -18 -8 -32 -18 -32 -20 0 -3 5 -2 10 1 7 4 9 -3 5 -22 -6 -27 -6 -27 9 -9 9 11 16 23 16 28 0 4 5 8 10 8 6 0 10 -8 10 -17 0 -15 2 -14 16 3 15 18 15 17 10 -15 -6 -36 -28 -66 -59 -82 -15 -8 -20 -4 -33 26 -14 34 -14 51 0 114 4 18 -4 33 -34 65 -23 23 -40 51 -40 64 0 13 -4 20 -10 17 -20 -12 -9 -46 26 -85 30 -33 35 -44 29 -70 -7 -34 -19 -38 -34 -12 -10 16 -10 16 -11 0 0 -10 9 -22 20 -28 25 -14 26 -30 1 -30 -11 0 -30 13 -43 29 -13 15 -38 34 -54 42 -19 9 -29 22 -29 37 0 12 -5 22 -10 21 -6 0 -9 -11 -8 -25 1 -13 0 -24 -3 -24 -9 0 -83 80 -94 101 -12 21 -7 49 8 49 5 0 14 -11 20 -25 12 -26 32 -34 32 -13 0 6 -8 20 -17 30 -12 14 -14 21 -5 30 8 8 16 2 31 -23 12 -19 21 -27 21 -19 -1 8 -12 33 -25 55 -28 46 -32 63 -10 45 25 -21 29 -3 6 26 -24 31 -28 52 -6 34 19 -16 19 -2 0 20 -8 9 -17 32 -20 51 l-6 34 17 -30 c22 -39 30 -16 9 25 -9 18 -14 34 -11 37 6 7 47 -74 45 -90 -3 -23 1 -37 10 -37 6 0 9 11 8 24 -1 14 3 25 8 24 6 0 9 -4 8 -9 -2 -5 3 -9 11 -9 9 0 12 -7 9 -20 -3 -11 0 -20 6 -20 6 0 11 13 11 28 0 33 -32 67 -54 59 -9 -4 -18 4 -26 23 -15 36 -50 70 -51 49 0 -8 -3 -23 -5 -34 -8 -33 -8 -59 0 -76 5 -11 2 -15 -11 -14 -10 0 -24 4 -30 8 -6 4 -23 3 -37 -3 -33 -12 -33 -4 -1 22 28 22 35 68 10 68 -8 0 -15 7 -15 15 0 8 -6 15 -14 15 -12 0 -12 6 0 38 25 69 13 97 -24 59z m645 -264 c-2 -21 -8 -49 -12 -63 l-7 -25 21 24 c26 29 28 12 3 -19 -21 -26 -42 -20 -42 12 l0 21 -22 -20 c-32 -30 -52 -9 -30 30 19 32 37 36 29 6 -4 -16 -3 -18 8 -9 9 7 12 23 8 46 -5 33 9 49 20 22 3 -7 6 -2 6 12 1 17 4 21 12 13 6 -6 9 -28 6 -50z m-518 5 c4 -12 6 -30 3 -40 -4 -16 -6 -15 -23 6 -18 23 -17 56 2 56 5 0 13 -10 18 -22z m-28 -55 c5 -13 15 -23 24 -23 21 0 19 -17 -4 -30 -17 -8 -23 -5 -37 19 -10 17 -21 28 -26 25 -10 -6 -11 40 -1 49 9 10 33 -13 44 -40z m458 -73 c5 0 16 10 24 23 l16 22 0 -22 c1 -12 -4 -25 -9 -28 -6 -4 -8 -11 -4 -16 3 -6 12 -3 20 8 12 16 13 17 14 1 0 -9 -12 -25 -26 -35 -14 -10 -37 -30 -51 -45 -15 -16 -33 -28 -41 -28 -9 0 -5 7 11 20 22 18 25 26 21 61 -3 22 -2 50 3 62 l7 22 4 -22 c2 -13 7 -23 11 -23z m112 12 c-5 -10 -17 -24 -25 -32 -14 -10 -16 -10 -16 5 0 17 26 44 43 45 4 0 3 -8 -2 -18z m-549 -131 c41 -36 103 -71 126 -71 9 0 30 -16 45 -35 19 -23 35 -34 50 -32 18 2 23 -4 25 -28 8 -65 -53 -124 -111 -109 -32 7 -36 24 -6 24 11 0 17 -4 14 -10 -3 -5 -4 -10 0 -10 10 0 55 32 55 39 0 11 -39 11 -45 0 -12 -19 -44 -8 -84 29 -22 20 -41 40 -41 44 0 14 47 -6 66 -29 18 -21 27 -24 53 -18 43 9 40 28 -4 19 -26 -5 -35 -3 -35 7 0 8 -10 25 -21 39 -11 14 -18 19 -14 12 3 -7 -1 -15 -11 -19 -21 -8 -59 37 -41 49 8 6 5 14 -12 27 -19 14 -21 19 -8 24 9 3 26 -6 43 -24 15 -16 30 -27 33 -24 7 8 -51 65 -66 65 -7 0 -13 8 -14 18 0 13 -2 14 -6 2 -2 -8 -7 -22 -10 -30 -3 -8 -5 -35 -4 -60 1 -31 -5 -53 -18 -70 -28 -36 -36 -19 -12 26 29 54 26 80 -11 114 -17 16 -28 33 -24 37 5 5 11 2 13 -4 5 -14 43 -18 43 -5 0 4 -5 13 -12 20 -26 26 12 11 44 -17z m-62 -123 c0 -7 -4 -19 -9 -27 -8 -12 -12 -12 -25 -2 -8 7 -12 19 -9 27 6 17 43 19 43 2z m56 -92 c-14 -33 -17 -36 -36 -24 -28 18 -25 29 8 23 22 -5 24 -4 10 5 -16 10 -16 12 0 40 15 27 18 28 25 12 6 -12 3 -33 -7 -56z m55 -36 c10 0 20 -6 22 -12 3 -8 6 -5 6 5 1 24 21 11 21 -14 0 -27 -27 -35 -49 -15 -10 9 -23 16 -29 16 -7 0 -12 10 -12 22 0 17 3 19 12 10 7 -7 20 -12 29 -12z m-38 -42 c11 16 28 6 21 -13 -4 -8 -10 -12 -15 -9 -6 3 -16 0 -24 -6 -13 -10 -15 -8 -15 13 0 14 3 34 7 44 6 15 8 13 13 -12 4 -20 8 -26 13 -17z m109 -30 c-7 -7 -12 -21 -12 -33 0 -11 -12 -33 -27 -50 l-27 -29 -9 37 c-7 27 -5 42 4 53 17 21 34 2 20 -24 -13 -25 -14 -32 -2 -32 5 0 14 20 20 45 8 31 17 45 28 45 13 0 14 -3 5 -12z m-102 -29 c0 -27 -2 -30 -15 -19 -11 9 -12 17 -4 31 14 27 19 24 19 -12z"/> <path d="M1948 3025 c13 -25 62 -72 62 -59 0 6 -16 26 -36 45 -22 20 -32 26 -26 14z"/> <path d="M1512 3588 c-17 -17 -15 -33 3 -18 12 10 15 9 15 -6 0 -13 3 -15 11 -7 12 12 6 43 -9 43 -4 0 -13 -5 -20 -12z"/> <path d="M1465 3540 c-4 -11 -11 -18 -16 -14 -14 8 -38 -26 -39 -53 0 -13 -4 -23 -10 -23 -5 0 -10 -7 -10 -15 0 -8 -7 -15 -16 -15 -12 0 -15 -10 -14 -42 3 -58 -10 -108 -26 -108 -8 0 -14 -4 -14 -10 0 -5 4 -10 9 -10 10 0 26 -40 35 -85 l6 -30 -15 25 -14 25 -1 -27 c0 -15 -11 -38 -26 -53 -26 -26 -28 -45 -6 -53 7 -2 10 2 7 10 -3 7 2 22 10 33 15 19 16 18 12 -15 -2 -19 -7 -43 -12 -52 -5 -14 -2 -18 13 -18 20 0 20 -2 7 -32 -7 -18 -20 -32 -28 -30 -7 1 -24 -10 -38 -25 l-24 -27 27 17 c39 25 43 21 19 -19 -23 -39 -28 -69 -7 -41 18 24 29 21 20 -5 -12 -39 -25 -45 -50 -23 -18 16 -20 23 -11 34 10 12 9 12 -10 0 -13 -8 -23 -18 -23 -24 0 -19 -35 -32 -72 -27 -21 2 -38 8 -38 13 0 5 -6 8 -12 7 -8 -2 -13 8 -14 24 -1 15 -17 49 -38 74 -20 26 -36 52 -36 58 0 6 -5 4 -10 -4 -8 -12 -10 -9 -10 13 0 33 13 35 28 5 8 -17 11 -19 11 -6 1 20 -27 50 -40 43 -5 -4 -9 -16 -9 -28 0 -16 -3 -18 -12 -9 -18 18 -36 15 -43 -7 -6 -20 23 -91 37 -91 11 0 10 4 -9 45 -20 41 -9 59 17 28 10 -13 22 -23 27 -23 15 -1 44 -50 57 -98 7 -26 17 -55 21 -64 5 -13 3 -18 -8 -18 -19 0 -47 37 -41 54 2 6 -6 22 -17 36 l-21 25 7 -30 c3 -16 7 -43 9 -60 1 -16 3 -39 4 -50 2 -14 5 -16 13 -8 8 8 8 17 0 31 -6 11 -11 24 -10 29 0 4 13 -17 28 -48 19 -38 26 -66 23 -88 -5 -36 7 -40 33 -11 23 25 35 25 35 1 0 -32 -12 -55 -21 -40 -6 10 -11 10 -24 -1 -23 -19 -38 -61 -26 -73 5 -5 12 3 16 22 11 51 25 46 25 -8 0 -37 4 -51 14 -51 11 0 13 11 9 43 -3 33 0 47 13 58 16 13 17 12 12 -6 -3 -11 -9 -28 -13 -37 -4 -10 -3 -18 3 -18 5 0 13 12 16 26 8 29 53 94 66 94 4 0 10 -7 14 -15 6 -18 -13 -67 -25 -60 -4 3 -5 -4 -2 -15 5 -19 6 -20 19 -3 7 10 14 13 14 7 0 -6 -7 -17 -15 -24 -12 -10 -16 -9 -21 4 -10 25 -23 19 -32 -16 -5 -18 -14 -32 -21 -31 -6 2 -11 -10 -11 -27 0 -17 5 -29 11 -27 7 1 26 -17 43 -40 17 -23 39 -42 49 -42 10 -1 32 -14 50 -31 18 -16 42 -30 55 -30 12 0 22 -4 22 -10 0 -16 -28 -12 -68 10 -20 10 -45 21 -54 24 -10 3 -30 23 -45 45 -16 22 -34 39 -41 38 -7 -1 -28 16 -46 38 -33 38 -35 39 -48 22 -22 -29 -61 -19 -69 18 -4 17 -7 25 -8 18 0 -7 -8 -10 -16 -7 -8 4 -13 10 -10 14 6 10 -15 8 -32 -3 -16 -10 -6 -37 21 -59 33 -27 44 -21 13 7 -36 34 -35 43 2 13 43 -33 40 -51 -6 -42 -31 6 -35 4 -30 -10 7 -19 3 -20 -24 -6 -10 6 -19 17 -19 25 0 8 -4 15 -10 15 -5 0 -10 -7 -10 -14 0 -23 62 -76 88 -76 12 0 25 -7 29 -15 9 -25 -3 -28 -37 -12 -30 16 -31 16 -24 -6 6 -19 5 -20 -9 -8 -9 7 -15 21 -14 31 1 10 -1 19 -5 19 -28 3 -38 0 -33 -9 3 -5 2 -10 -4 -10 -5 0 -13 5 -16 10 -3 6 -1 10 4 10 6 0 11 4 11 9 0 10 -38 24 -57 22 -7 -1 -13 3 -13 10 0 9 -3 9 -14 0 -11 -10 -17 -7 -29 10 -13 18 -19 20 -44 10 l-28 -11 28 4 c33 4 60 -30 32 -40 -22 -9 -33 5 -15 17 11 8 1 9 -36 6 -27 -3 -57 -1 -65 4 -10 6 -7 9 13 9 42 0 42 17 1 25 -30 5 -34 9 -21 16 18 10 104 6 115 -5 15 -14 22 -4 17 24 -6 30 9 43 20 18 3 -7 5 -4 3 7 -3 29 -41 27 -45 -2 -3 -19 -10 -23 -37 -23 -19 0 -37 5 -41 12 -5 8 0 9 14 6 12 -4 24 -3 27 2 3 4 -24 11 -60 15 -65 7 -83 18 -45 28 26 7 26 27 1 27 -11 0 -23 5 -26 10 -4 6 -11 7 -17 4 -6 -4 -14 -1 -18 7 -7 10 -11 10 -24 0 -12 -10 -16 -9 -25 7 -8 16 -7 21 6 26 9 4 18 4 21 1 3 -3 0 -5 -7 -5 -7 0 -10 -4 -7 -9 3 -5 20 -7 37 -5 36 4 64 -9 101 -48 27 -29 52 -36 63 -18 3 6 -3 10 -14 10 -23 0 -51 25 -51 46 0 19 19 18 42 -3 10 -9 18 -11 18 -6 0 6 -7 16 -16 24 -20 16 -47 69 -40 77 3 3 16 -4 29 -16 36 -34 53 -27 23 9 -14 17 -26 34 -26 39 0 17 20 21 26 6 10 -25 22 -18 16 9 -7 38 15 30 28 -10 12 -36 30 -48 30 -19 0 8 5 12 11 8 6 -3 9 -15 6 -25 -3 -11 -1 -19 4 -19 5 0 9 7 9 15 0 11 7 14 25 9 21 -5 25 -3 25 16 0 12 4 30 10 40 7 13 6 21 -5 30 -20 17 -7 34 13 18 16 -12 16 -11 1 12 -19 29 -58 35 -76 11 -9 -13 -9 -21 3 -38 21 -33 9 -28 -35 15 -36 35 -40 43 -36 79 3 31 -1 46 -16 59 -18 16 -19 16 -19 -9 0 -14 5 -29 10 -32 22 -14 8 -23 -19 -14 -43 15 -55 33 -41 59 11 20 5 60 -8 60 -4 0 -8 -24 -10 -54 -2 -53 -1 -55 43 -94 44 -39 54 -63 36 -91 -11 -17 -23 1 -15 22 3 9 -6 23 -24 36 -45 31 -51 25 -12 -10 l35 -31 -35 19 c-21 12 -35 27 -35 39 0 21 -35 78 -43 70 -2 -3 2 -16 10 -28 9 -13 19 -38 22 -56 10 -43 -13 -43 -49 -1 -30 37 -46 32 -21 -6 21 -33 65 -50 88 -36 22 13 43 -12 43 -51 0 -20 -5 -28 -17 -28 -10 0 -18 7 -18 15 0 8 5 15 10 15 14 0 13 27 -2 36 -7 5 -8 3 -3 -6 6 -9 0 -11 -24 -5 -35 7 -41 -4 -11 -23 11 -7 20 -17 20 -22 0 -6 -11 -3 -25 6 -21 14 -25 14 -25 2 0 -8 11 -21 25 -28 14 -7 25 -17 25 -22 0 -13 -2 -13 -71 23 -16 8 -20 8 -17 -2 2 -7 19 -17 36 -21 18 -5 32 -13 32 -19 0 -11 -26 -8 -66 8 -12 4 -15 3 -10 -5 4 -7 3 -12 -3 -12 -16 0 -21 15 -12 46 7 24 3 35 -21 63 -31 35 -31 56 1 27 17 -16 19 -16 24 5 4 15 -5 32 -34 64 -38 41 -53 69 -25 46 11 -9 15 -9 18 1 3 8 9 5 17 -10 6 -12 19 -22 27 -22 12 0 14 7 9 30 -7 31 2 39 23 18 9 -9 12 -9 12 1 0 7 -9 20 -21 30 -18 14 -19 21 -11 51 6 19 11 27 11 16 1 -10 11 -31 24 -46 12 -15 27 -36 33 -46 10 -17 11 -16 7 9 -3 15 -9 27 -14 27 -5 0 -9 8 -9 18 0 10 -7 27 -15 38 -8 10 -15 30 -15 43 l0 24 25 -23 c20 -18 25 -20 25 -8 0 9 -13 22 -30 30 -19 8 -30 20 -30 33 1 19 1 19 14 3 21 -28 26 -22 26 37 0 71 28 72 31 2 0 -18 2 -19 7 -5 6 13 11 9 26 -22 20 -42 36 -44 36 -4 0 14 4 22 10 19 6 -3 10 -1 10 5 0 6 5 8 10 5 6 -3 10 -1 10 4 0 6 -7 11 -15 11 -8 0 -15 9 -15 19 0 37 16 30 36 -15 21 -49 30 -55 29 -21 0 12 5 22 10 22 6 0 9 -15 8 -32 -3 -36 -1 -38 28 -23 23 13 27 65 4 56 -19 -7 -20 17 -2 33 18 14 27 5 28 -28 0 -14 3 -20 6 -13 8 20 23 14 23 -9 0 -12 -8 -28 -17 -36 -10 -8 -12 -12 -5 -8 6 3 15 -1 18 -10 4 -9 13 -14 20 -11 8 3 14 -1 14 -9 0 -8 5 -15 11 -15 6 0 9 10 7 23 -2 15 -9 21 -21 19 -15 -3 -17 0 -8 17 6 11 11 33 11 50 0 43 18 39 26 -6 4 -21 9 -32 12 -25 3 9 21 -4 50 -35 l47 -48 6 39 c6 36 3 43 -27 74 -31 32 -34 33 -34 14 0 -28 -17 -29 -25 -2 -3 11 -15 25 -26 30 -10 6 -19 15 -19 21 0 6 7 6 20 -1 27 -14 25 -7 -5 26 -14 15 -25 34 -25 43 0 10 6 6 18 -11 16 -27 32 -37 32 -20 0 4 -13 23 -29 42 -26 31 -30 33 -36 17 -4 -10 -4 -28 1 -40 9 -21 10 -38 5 -102 l-2 -30 -29 34 c-15 18 -33 30 -39 27 -6 -4 -11 0 -11 8 0 9 -5 16 -11 16 -6 0 -9 -6 -6 -14 3 -8 -5 -24 -18 -36 -22 -21 -25 -21 -31 -6 -4 9 -2 27 4 39 l11 22 0 -23 c1 -34 21 -16 21 19 0 34 -14 38 -32 9 -7 -11 -21 -20 -30 -20 -10 0 -18 -6 -18 -14 0 -8 -6 -16 -14 -19 -9 -4 -16 4 -20 24 -3 18 -10 27 -19 24 -8 -4 -13 4 -15 22 -4 54 -35 56 -47 3 -4 -20 -11 -27 -21 -23 -10 4 -14 -4 -16 -33 -2 -54 -4 -66 -13 -88 -5 -10 -4 -31 2 -46 8 -22 7 -32 -7 -50 -10 -13 -22 -20 -29 -16 -7 4 -18 3 -25 -3 -7 -6 -21 -9 -30 -5 -21 8 -22 -19 -1 -36 13 -11 14 -10 9 5 -6 15 -4 16 14 6 18 -10 22 -9 22 4 0 9 5 15 12 13 14 -5 23 -98 10 -98 -5 0 -15 7 -22 15 -7 9 -18 14 -24 12 -6 -3 -21 5 -34 16 -22 21 -32 11 -10 -11 15 -15 6 -24 -15 -16 -9 3 -13 12 -10 20 3 8 0 14 -5 14 -17 0 -42 30 -42 51 0 20 1 20 31 -1 35 -26 40 -24 27 10 -7 19 -11 21 -17 11 -7 -11 -13 -7 -26 13 -13 20 -15 30 -7 38 8 8 4 24 -14 59 -28 56 -30 66 -9 49 8 -7 15 -8 15 -3 0 13 -30 53 -41 53 -15 0 -1 -69 21 -108 22 -36 14 -66 -10 -37 -20 24 -30 18 -29 -17 1 -48 24 -103 40 -101 16 3 55 -54 45 -64 -3 -4 1 -15 11 -25 15 -17 15 -18 -2 -18 -29 0 -8 -13 27 -17 l32 -3 -27 28 c-15 15 -27 31 -27 34 0 14 42 -6 52 -25 6 -11 24 -31 40 -45 16 -13 27 -27 24 -30 -3 -3 -12 1 -21 8 -9 7 -16 11 -18 9 -1 -2 -7 -13 -13 -24 -6 -11 -22 -23 -35 -27 -16 -5 -13 -6 12 -3 27 4 38 1 43 -10 4 -12 0 -14 -21 -9 -37 10 -26 -17 15 -36 36 -17 41 -30 13 -30 -11 0 -23 -5 -26 -10 -4 -7 2 -9 19 -4 16 4 26 2 26 -5 0 -17 -48 -24 -80 -11 -16 7 -36 23 -45 37 -14 21 -15 30 -5 54 11 25 10 32 -4 48 -15 17 -15 19 -1 25 9 3 25 1 35 -4 32 -17 46 -11 21 9 -14 10 -30 17 -35 15 -16 -6 -32 8 -40 34 -5 14 -3 22 5 22 9 0 9 3 0 14 -7 8 -11 20 -9 28 1 7 -2 14 -7 16 -6 1 -11 -9 -13 -22 -2 -14 -9 -24 -15 -22 -7 1 -9 1 -5 -1 5 -3 8 -16 8 -29 0 -14 -4 -23 -9 -19 -5 3 -13 0 -17 -6 -3 -6 -1 -15 5 -19 7 -4 11 -13 10 -21 -2 -8 14 -47 34 -86 26 -52 33 -73 23 -73 -8 0 -16 7 -20 15 -3 8 -15 15 -27 15 -19 0 -21 -4 -16 -40 3 -23 1 -38 -4 -34 -5 3 -9 12 -9 20 0 9 -5 25 -11 36 -11 20 -12 20 -24 4 -9 -12 -15 -14 -20 -5 -4 6 -2 15 5 19 9 5 9 9 1 14 -6 4 -11 14 -11 23 0 13 3 13 15 3 8 -7 15 -8 15 -3 0 11 -33 43 -43 43 -11 0 -8 -39 4 -62 9 -16 8 -19 -2 -12 -7 4 -29 8 -47 9 -23 0 -39 8 -52 25 -10 14 -16 27 -13 30 3 3 12 -5 20 -17 28 -41 32 -24 6 22 -23 42 -40 60 -30 33 2 -7 0 -21 -5 -31 -7 -13 -5 -26 7 -43 11 -18 12 -24 3 -24 -8 -1 -5 -7 6 -15 11 -8 27 -15 35 -15 14 0 14 2 1 11 -12 7 -8 9 14 7 38 -4 45 -24 11 -32 -41 -10 -29 -26 21 -26 27 0 43 -4 39 -10 -3 -6 1 -7 9 -4 9 3 16 17 16 31 0 13 4 21 10 18 15 -9 12 -32 -7 -55 -19 -22 -43 -27 -43 -8 0 9 -3 9 -12 0 -10 -10 -10 -15 2 -23 14 -9 36 -8 108 7 33 7 46 -9 16 -20 -12 -5 -15 -14 -11 -35 5 -26 4 -28 -16 -23 -12 3 -26 11 -30 18 -4 8 -17 19 -28 25 -20 10 -20 8 -16 -50 4 -48 2 -61 -9 -61 -27 0 -15 -40 19 -60 17 -11 28 -20 22 -20 -5 -1 3 -12 20 -25 23 -19 27 -27 17 -37 -21 -21 -43 -17 -67 10 -13 15 -27 23 -32 18 -4 -5 -2 -11 5 -13 6 -3 12 -16 12 -29 0 -14 -4 -22 -10 -19 -17 11 -11 -11 11 -39 24 -31 16 -32 -31 -5 -26 15 -29 19 -11 15 l23 -5 -21 23 c-26 28 -26 34 -1 38 19 3 19 4 -4 33 -13 17 -28 27 -32 23 -4 -4 -2 -14 5 -22 9 -11 9 -15 -1 -19 -10 -3 -10 -9 -1 -24 8 -15 9 -23 1 -31 -16 -16 16 -49 53 -57 41 -9 96 -38 81 -43 -17 -5 -15 -22 4 -22 17 0 94 -42 94 -52 0 -3 -9 -4 -20 -1 -11 3 -20 9 -20 14 0 4 -14 3 -31 -3 -36 -13 -50 -3 -23 17 10 8 14 15 8 15 -5 0 -19 -6 -29 -14 -25 -18 -13 -46 20 -46 23 0 24 -2 15 -20 -10 -18 -8 -20 17 -20 32 0 61 15 50 26 -4 4 -13 2 -19 -4 -7 -7 -19 -12 -27 -12 -13 0 -13 2 0 16 11 10 41 17 90 20 67 3 72 2 55 -11 -11 -8 -29 -12 -41 -9 -14 3 -36 -4 -60 -20 -21 -14 -45 -26 -53 -26 -12 0 -13 -3 -5 -11 9 -9 23 -5 57 14 26 15 54 23 66 20 11 -3 26 -1 33 5 9 8 19 5 37 -9 l25 -20 -36 7 c-62 10 -106 -31 -60 -55 32 -17 135 -30 149 -19 17 14 15 2 -4 -26 -11 -18 -12 -26 -3 -32 16 -9 39 23 39 54 0 30 32 100 38 83 2 -7 0 -23 -6 -34 -14 -30 -23 -84 -16 -102 10 -24 24 -7 24 29 0 26 5 35 22 39 12 4 26 1 30 -5 5 -9 13 -7 27 6 24 22 29 45 6 26 -11 -9 -15 -9 -15 -1 0 7 -4 9 -10 6 -6 -3 -7 1 -4 9 13 33 54 9 54 -31 0 -26 12 -30 29 -9 11 13 15 12 31 -4 10 -10 20 -26 22 -35 5 -24 23 -23 26 1 2 12 -4 28 -12 37 -9 9 -16 22 -17 29 0 7 -4 4 -9 -7 -6 -14 -9 -15 -9 -5 -1 9 4 21 10 27 9 9 17 4 33 -20 27 -40 61 -50 51 -15 -4 12 -17 34 -29 47 -16 18 -17 23 -5 18 9 -3 21 -1 27 5 6 6 17 3 33 -12 13 -12 49 -38 79 -58 l55 -37 99 3 c74 2 104 -1 122 -12 33 -22 39 -52 19 -90 -23 -43 -14 -92 25 -141 32 -40 36 -68 20 -125 -7 -25 -7 -43 1 -62 9 -23 8 -35 -6 -64 -11 -23 -15 -49 -12 -69 4 -22 -2 -48 -19 -81 -13 -27 -24 -55 -24 -63 0 -25 -41 -101 -54 -101 -7 0 -23 -11 -36 -25 -13 -14 -29 -25 -36 -25 -7 0 -16 -5 -19 -10 -14 -23 37 -8 65 20 39 38 63 41 47 5 -7 -14 -18 -25 -25 -25 -18 0 -75 -30 -69 -36 3 -3 24 0 47 7 49 15 85 62 95 124 13 85 18 97 41 122 14 15 23 32 20 38 -2 7 12 33 32 58 114 143 142 181 142 195 0 9 12 29 28 46 15 17 19 24 10 17 -9 -7 -22 -10 -28 -6 -6 4 -18 -11 -29 -35 -10 -23 -22 -37 -25 -31 -4 5 1 27 10 48 9 21 16 45 15 53 -2 10 4 7 17 -8 11 -13 23 -19 26 -13 3 5 23 7 44 4 53 -7 103 29 117 82 6 22 15 49 21 60 6 11 14 40 17 65 l7 45 -19 -34 c-10 -19 -16 -45 -13 -59 3 -14 1 -22 -5 -19 -5 3 -14 -14 -21 -38 -13 -49 -45 -76 -56 -48 -4 9 -3 19 2 22 5 3 12 17 16 31 7 24 6 24 -8 6 -9 -11 -16 -15 -16 -9 0 6 14 26 30 44 49 54 56 78 11 34 -24 -23 -46 -55 -51 -77 -13 -47 -36 -71 -61 -63 -11 4 -19 2 -19 -4 0 -6 -4 -11 -9 -11 -5 0 1 18 12 41 11 23 20 57 19 76 -1 19 6 51 14 73 11 26 14 59 11 101 l-4 63 -49 16 c-38 13 -50 22 -52 40 -2 14 -7 19 -11 12 -4 -6 -7 8 -8 31 l-2 42 21 -40 c29 -57 47 -75 77 -76 16 0 34 -11 48 -28 19 -24 21 -34 13 -62 -6 -19 -10 -48 -10 -66 0 -17 -10 -49 -22 -69 -12 -21 -17 -34 -10 -30 17 11 15 -34 -3 -58 -8 -11 -15 -26 -15 -34 0 -30 30 10 51 69 18 48 29 64 65 86 23 15 47 37 53 49 11 26 90 91 111 92 8 0 33 5 55 11 65 17 74 11 15 -10 -30 -11 -62 -21 -70 -22 -19 -3 -49 -25 -74 -54 -18 -22 -18 -22 3 -18 13 2 21 -1 21 -11 0 -8 -5 -14 -11 -14 -6 0 -8 -7 -5 -16 3 -8 2 -12 -4 -9 -6 4 -10 -6 -10 -21 0 -15 -7 -35 -15 -44 -8 -9 -16 -39 -17 -68 -2 -40 -6 -52 -19 -52 -9 0 -24 -10 -35 -22 -19 -23 -19 -23 2 -5 28 24 34 21 21 -8 -7 -14 -31 -35 -54 -46 -43 -21 -63 -39 -43 -39 6 0 4 -10 -5 -24 -9 -13 -17 -35 -19 -49 -1 -13 -12 -37 -25 -53 -12 -15 -20 -36 -18 -46 3 -10 2 -20 -3 -23 -11 -7 -20 -45 -11 -45 11 0 31 47 31 74 0 12 11 33 25 46 14 14 28 40 31 61 4 21 16 46 27 56 20 17 20 17 13 -2 -5 -11 -13 -36 -18 -55 -6 -19 -14 -40 -19 -46 -5 -6 -11 -24 -13 -40 -2 -16 -9 -45 -15 -64 -14 -43 -14 -53 -1 -45 6 4 6 -3 0 -21 -6 -16 -7 -31 -1 -38 5 -6 12 -50 16 -97 7 -86 7 -86 41 -103 19 -9 37 -16 41 -16 12 0 -22 33 -42 40 -17 6 -21 21 -31 116 -7 60 -10 111 -7 114 8 8 43 -41 43 -59 0 -14 -2 -14 -11 -1 -8 12 -9 10 -5 -10 3 -14 6 -44 6 -67 0 -33 7 -50 30 -76 17 -19 30 -42 30 -50 0 -16 28 -37 49 -37 6 0 11 5 11 10 0 6 -6 10 -13 10 -7 0 -27 28 -45 63 -18 34 -31 54 -28 44 3 -9 1 -17 -4 -17 -13 0 -13 30 0 50 12 19 32 1 37 -32 2 -12 10 -26 18 -31 8 -4 11 -15 8 -24 -6 -16 20 -43 41 -43 6 0 2 7 -8 15 -18 14 -18 15 -2 15 9 0 26 -5 37 -10 13 -8 19 -7 19 0 0 7 8 9 20 5 11 -3 20 -2 20 3 0 4 -17 13 -37 18 -23 5 -42 18 -49 32 -13 27 -41 54 -71 71 -14 7 -24 25 -28 53 -4 24 -16 60 -26 80 -18 35 -18 42 -5 100 8 35 18 79 21 99 3 20 20 56 39 80 49 65 58 86 58 138 0 28 7 53 17 64 9 11 23 37 31 60 14 37 19 42 65 52 46 12 125 42 168 66 28 15 77 1 77 -22 0 -10 5 -19 10 -19 6 0 10 -7 10 -16 0 -12 7 -15 25 -12 21 4 25 1 25 -19 0 -15 5 -23 13 -20 6 2 17 -3 24 -12 10 -14 13 -14 31 2 19 17 20 17 25 -10 3 -15 1 -37 -4 -50 -12 -32 8 -40 22 -9 7 14 18 27 26 31 12 4 14 -1 9 -30 -8 -43 14 -49 32 -10 16 34 15 46 -2 39 -9 -3 -15 5 -19 25 -4 19 -13 31 -22 31 -12 0 -14 -7 -10 -27 6 -27 6 -27 -9 -9 -18 22 -21 43 -7 48 4 2 5 12 0 23 -6 17 -8 17 -8 3 -1 -26 -18 -22 -36 10 -16 26 -16 26 -10 2 10 -42 10 -45 0 -45 -5 0 -9 8 -8 18 2 9 -2 17 -7 17 -6 0 -10 -7 -10 -15 0 -8 -4 -15 -10 -15 -5 0 -10 7 -10 15 0 8 5 15 10 15 6 0 10 12 10 26 0 25 2 26 38 19 20 -4 47 -16 60 -28 24 -22 30 -43 10 -31 -7 3 6 -12 30 -34 23 -22 42 -45 42 -51 0 -7 9 -9 26 -5 18 5 29 1 39 -12 13 -17 16 -17 25 -4 11 17 5 44 -16 78 -13 20 -13 22 6 22 17 0 20 -4 15 -20 -4 -11 -2 -20 4 -20 6 0 13 11 17 24 3 14 12 22 22 21 37 -3 71 -18 76 -31 8 -20 26 -17 26 5 0 26 25 44 51 36 20 -7 21 -5 15 29 -6 29 -4 36 9 36 16 0 20 15 6 24 -5 4 -11 1 -13 -6 -3 -9 -6 -9 -12 0 -4 7 -2 12 4 12 6 0 8 5 5 10 -8 13 1 13 26 0 21 -12 26 -46 7 -53 -8 -2 -9 -8 -4 -13 5 -5 11 -4 13 4 7 18 21 15 28 -8 10 -31 23 -24 36 20 13 43 20 48 38 26 13 -16 -2 -32 -19 -21 -5 3 -10 2 -10 -3 0 -18 34 -24 46 -8 6 9 20 16 31 16 19 0 43 17 43 32 0 5 -12 13 -27 19 l-28 11 27 14 c20 11 26 21 26 44 -1 17 -8 34 -16 39 -10 6 -12 13 -4 27 5 10 7 24 5 30 -2 6 8 19 22 28 22 15 25 22 19 51 -4 25 -3 35 6 35 8 0 11 9 8 24 -3 15 2 27 14 35 26 16 20 55 -9 59 -16 2 -23 -2 -23 -13 0 -11 5 -15 15 -11 9 3 15 0 15 -8 0 -8 -12 -17 -27 -21 -15 -3 -31 -11 -34 -17 -4 -7 -13 -6 -28 1 -17 10 -21 9 -21 -5 0 -14 8 -16 45 -12 32 4 45 2 45 -7 0 -29 -95 -35 -116 -7 -11 14 -13 15 -14 2 0 -27 22 -40 70 -40 l45 -1 -31 -13 c-61 -27 -74 -29 -67 -10 5 14 2 16 -19 11 -26 -7 -69 15 -55 29 4 4 0 16 -10 26 -15 17 -15 18 5 18 30 0 52 10 52 25 0 11 -6 10 -30 -2 -17 -8 -36 -13 -43 -10 -8 3 -6 7 7 12 10 5 30 19 44 31 14 13 31 24 37 24 7 0 16 8 19 17 6 14 9 15 16 4 6 -11 12 -6 23 21 8 20 24 37 36 41 18 4 19 2 10 -14 -5 -11 -7 -24 -4 -29 3 -6 2 -10 -3 -10 -6 0 -13 -7 -16 -16 -4 -11 1 -10 20 5 32 25 44 26 44 4 0 -12 3 -14 11 -6 17 17 0 35 -28 30 -17 -3 -21 -1 -14 6 6 6 11 21 11 34 0 32 -33 30 -59 -3 -12 -15 -21 -23 -21 -18 -1 5 -10 -2 -21 -16 -14 -16 -33 -25 -55 -27 -44 -3 -52 12 -13 26 39 13 87 53 82 68 -2 6 1 14 6 18 17 10 13 25 -6 25 -12 0 -6 9 20 31 39 32 46 52 24 66 -8 4 -17 16 -20 27 -4 11 -13 16 -22 12 -17 -6 -18 3 -4 63 5 24 7 53 3 64 -7 21 -7 21 -25 -2 -11 -13 -19 -32 -19 -43 0 -26 20 -12 21 15 1 14 3 16 6 6 2 -9 -1 -36 -7 -60 -6 -24 -13 -57 -15 -73 l-4 -29 24 23 c35 33 41 19 10 -19 -15 -17 -22 -31 -17 -31 5 0 15 7 22 15 7 8 19 15 26 15 27 0 13 -21 -31 -48 -47 -29 -54 -49 -15 -44 21 4 22 2 11 -12 -7 -9 -18 -16 -23 -16 -5 0 -21 -9 -35 -20 -15 -11 -29 -18 -32 -14 -3 3 5 14 19 25 l25 20 -25 -6 c-24 -6 -24 -5 -6 9 22 17 22 17 36 128 9 63 8 84 -6 123 -8 26 -13 49 -10 53 3 3 6 -2 6 -11 0 -9 5 -19 10 -22 13 -8 13 26 0 45 -9 13 -12 13 -24 -2 -12 -16 -14 -16 -25 8 -6 14 -17 24 -24 21 -12 -4 -13 -35 -3 -113 4 -30 2 -45 -9 -54 -13 -10 -15 -8 -15 13 0 39 -16 41 -39 5 -13 -22 -17 -36 -10 -43 6 -6 2 -16 -13 -27 l-23 -18 22 0 c12 0 26 6 30 13 11 17 54 40 61 33 3 -4 -3 -23 -13 -44 -29 -56 -30 -58 -11 -43 14 12 16 12 10 -3 -3 -9 -14 -16 -24 -16 -23 0 -66 -22 -65 -35 0 -10 32 -16 56 -9 15 4 61 75 58 91 -3 20 2 34 11 28 15 -9 12 2 -7 33 l-17 27 22 -19 c25 -22 29 -11 7 18 -20 26 -19 42 0 26 27 -22 27 -4 0 35 -25 37 -35 82 -15 70 6 -3 10 -13 10 -21 0 -7 9 -19 20 -26 17 -11 20 -24 20 -84 0 -75 -24 -174 -41 -174 -6 0 -9 -6 -6 -14 4 -11 -3 -16 -26 -18 l-32 -4 25 -11 25 -11 -29 -7 c-18 -5 -36 -3 -49 4 -15 10 -18 10 -15 -1 3 -7 17 -14 31 -16 15 -2 27 -8 27 -13 0 -9 -6 -10 -64 -14 -20 -1 -42 -15 -67 -43 -21 -22 -41 -37 -44 -31 -11 17 -23 9 -18 -11 4 -14 0 -20 -11 -20 -15 0 -21 12 -17 33 1 5 -7 6 -17 3 -25 -8 -64 24 -86 71 -19 39 -82 100 -93 89 -9 -8 27 -46 44 -46 7 0 21 -17 30 -37 21 -46 62 -93 80 -93 11 0 11 -3 1 -14 -11 -12 -17 -10 -43 12 l-29 27 27 -37 c28 -37 23 -52 -7 -23 -8 8 -17 11 -20 6 -3 -5 1 -14 9 -21 17 -14 21 -75 5 -65 -5 3 -10 1 -10 -4 0 -6 -7 -11 -15 -11 -8 0 -15 5 -15 10 0 6 5 10 10 10 6 0 10 5 10 10 0 6 -10 8 -24 4 -33 -8 -43 13 -12 28 32 14 33 24 4 32 -32 8 -40 7 -34 -3 3 -5 -1 -12 -10 -15 -12 -5 -15 -2 -10 9 3 9 2 14 -3 11 -4 -3 -16 3 -26 14 -13 15 -21 17 -31 9 -9 -7 -14 -5 -19 11 -8 25 13 93 26 85 13 -8 11 -55 -2 -55 -5 0 -8 -4 -4 -10 3 -5 12 -7 20 -4 29 11 -4 96 -34 87 -9 -3 -5 4 9 16 14 11 29 21 33 21 15 0 46 -44 47 -65 0 -24 18 -45 37 -45 7 0 13 7 13 16 0 10 -6 14 -15 10 -11 -4 -15 2 -15 22 0 31 -51 89 -68 78 -6 -4 -13 -2 -17 4 -3 5 0 10 7 10 7 0 1 10 -13 23 -21 18 -25 28 -21 55 4 32 21 54 23 30 0 -7 2 -26 2 -42 1 -16 9 -31 17 -34 13 -4 13 -3 2 10 -7 9 -10 27 -8 40 3 12 2 39 -3 58 -9 34 -9 34 -17 10 -8 -24 -8 -24 -15 10 -9 41 -5 48 15 31 18 -15 36 -7 36 15 0 13 2 13 16 -1 9 -8 13 -22 10 -31 -3 -8 3 -25 14 -36 24 -26 24 -26 6 34 -8 25 -12 56 -9 67 3 14 1 21 -9 21 -8 0 -15 12 -16 28 -1 19 1 23 7 13 8 -12 12 -12 25 -2 13 11 17 5 32 -46 17 -59 30 -83 45 -83 5 0 -1 15 -12 34 l-20 35 20 10 c16 9 22 8 31 -9 6 -11 16 -17 25 -14 8 4 13 10 10 14 -3 5 0 12 6 16 9 5 10 -1 5 -20 -5 -20 -1 -32 17 -49 22 -21 42 -67 29 -67 -3 0 -15 9 -27 20 l-22 20 -13 -24 c-11 -22 -10 -29 4 -51 9 -14 22 -23 28 -19 7 4 5 10 -6 16 -15 8 -23 38 -11 38 3 0 21 -7 40 -14 23 -10 35 -22 35 -35 0 -11 9 -26 20 -34 19 -13 19 -17 8 -43 -7 -16 -20 -35 -28 -42 -8 -8 -9 -11 -2 -7 7 4 20 -3 30 -16 16 -18 22 -20 40 -10 12 6 27 21 33 34 10 18 6 17 -20 -7 -34 -32 -35 -32 -46 3 -5 17 -4 21 5 16 9 -5 10 -2 6 13 -5 14 -1 24 11 31 17 11 17 12 -1 26 -10 8 -24 16 -30 19 -7 3 -6 8 4 15 12 8 12 11 -3 17 -19 7 -52 62 -43 72 4 3 19 -7 34 -21 39 -37 52 -34 16 4 -16 17 -44 37 -61 44 -24 10 -33 21 -33 37 0 13 -3 40 -6 61 -11 62 12 43 27 -23 7 -33 17 -60 21 -60 12 0 10 38 -2 45 -5 3 -10 21 -10 40 0 19 -5 37 -11 40 -7 5 -6 14 4 28 23 37 28 73 12 87 -13 10 -19 9 -35 -5 -11 -10 -22 -26 -25 -36 -4 -11 -11 -19 -16 -19 -11 0 -1 50 12 64 12 13 11 46 0 46 -11 0 -8 86 3 113 5 9 5 25 0 35 -4 9 -6 23 -5 31 4 23 -8 43 -21 34 -7 -4 -16 -8 -20 -8 -13 0 -69 -47 -64 -53 3 -3 18 5 33 19 20 18 25 20 20 7 -4 -10 -2 -18 3 -18 5 0 12 9 15 20 3 11 11 20 16 20 13 0 11 -13 -6 -36 -19 -25 -19 -40 0 -24 13 10 15 9 15 -9 0 -19 -33 -47 -75 -65 -13 -6 17 -27 30 -22 6 2 9 9 8 15 -2 6 4 11 12 11 26 0 16 -30 -17 -50 -45 -27 -53 -25 -52 13 2 52 3 57 18 57 8 0 18 5 22 11 4 7 1 10 -7 7 -7 -2 -23 6 -34 18 l-22 23 -17 -36 c-21 -43 -14 -55 13 -22 16 19 20 20 21 8 0 -9 -21 -37 -47 -62 -54 -52 -53 -74 0 -27 49 43 59 19 10 -26 -21 -19 -39 -31 -41 -25 -2 5 -13 6 -25 3 -22 -6 -21 -6 3 -12 l25 -6 -33 -18 c-18 -9 -30 -21 -26 -27 6 -11 6 -11 77 45 50 41 66 34 20 -8 -15 -14 -24 -29 -20 -32 4 -4 21 5 37 21 16 16 32 26 36 23 9 -10 -15 -48 -31 -48 -8 0 -15 -4 -15 -10 0 -5 -7 -10 -15 -10 -8 0 -15 -4 -15 -10 0 -16 18 -12 59 14 21 14 42 22 45 19 3 -3 16 2 27 13 16 14 21 15 17 4 -2 -8 -29 -30 -59 -48 -30 -18 -53 -38 -51 -45 2 -6 -6 -3 -17 7 -19 18 -21 18 -21 2 0 -20 -28 -51 -37 -42 -4 3 -1 12 5 18 23 23 12 29 -14 9 -15 -12 -35 -21 -46 -21 -11 0 -17 -4 -13 -10 3 -6 15 -6 30 0 24 9 45 -3 30 -18 -11 -12 -75 -11 -75 1 0 8 -3 8 -12 -1 -19 -19 -38 -14 -38 11 0 14 3 18 8 10 5 -8 13 -9 22 -3 11 7 7 10 -14 16 -19 4 -31 2 -36 -7 -7 -10 -12 -10 -26 2 -16 13 -16 12 -6 -7 14 -27 5 -36 -20 -23 -16 8 -24 7 -35 -4 -14 -13 -13 -16 6 -22 l22 -7 -22 -36 c-25 -44 -33 -75 -16 -69 7 2 12 10 13 18 2 33 5 39 14 39 6 0 10 -7 10 -15 0 -8 -4 -15 -8 -15 -4 0 -8 -10 -9 -22 -2 -21 -1 -21 13 4 8 16 20 25 28 22 10 -4 8 -11 -10 -29 -13 -13 -24 -33 -24 -45 0 -29 9 -25 21 10 12 33 30 42 22 10 -7 -25 5 -26 23 -3 7 10 16 15 20 11 4 -4 1 -14 -5 -22 -7 -8 -10 -20 -6 -26 5 -7 14 0 26 19 19 31 49 42 49 19 0 -7 10 3 22 22 l23 35 3 -34 c2 -18 -1 -38 -7 -44 -8 -8 -10 -2 -6 23 l5 35 -13 -33 c-7 -18 -27 -46 -45 -63 -17 -16 -32 -32 -32 -35 0 -11 21 -2 50 22 38 32 53 24 20 -11 -13 -14 -19 -25 -13 -25 6 0 16 7 23 15 7 8 17 15 23 15 5 0 3 -8 -6 -18 -19 -21 -23 -42 -5 -24 16 16 28 15 28 -2 0 -7 -17 -22 -37 -31 -21 -10 -41 -19 -44 -21 -4 -2 -5 16 -3 39 2 31 1 38 -7 25 -5 -9 -16 -15 -23 -12 -8 3 -22 -3 -32 -14 -11 -10 -32 -27 -47 -37 -15 -10 -25 -20 -22 -23 2 -3 22 7 43 22 21 14 46 26 55 26 24 0 21 -27 -4 -33 -12 -3 -18 -10 -14 -16 3 -6 -2 -14 -12 -18 -18 -6 -53 -38 -53 -48 0 -3 16 -5 35 -5 19 0 35 -4 35 -10 0 -5 -16 -10 -36 -10 -24 0 -33 -4 -28 -12 5 -8 2 -9 -9 -5 -10 3 -17 2 -17 -3 0 -17 39 -21 62 -6 21 13 25 13 49 -8 34 -29 22 -56 -24 -56 -27 1 -29 2 -14 11 9 5 22 7 27 4 5 -3 7 0 5 7 -3 7 -14 19 -24 25 -16 10 -18 9 -14 -5 3 -13 -2 -18 -16 -18 -12 0 -21 4 -21 8 0 4 -5 8 -11 8 -5 0 -7 -5 -3 -11 4 -7 -1 -10 -12 -7 -14 2 -20 15 -25 48 l-5 45 -8 -42 c-10 -49 -34 -86 -43 -65 -4 10 -8 10 -19 1 -11 -9 -21 -9 -39 -1 -18 8 -25 8 -28 -1 -3 -9 -8 -9 -17 -1 -17 16 5 29 50 29 27 0 35 4 34 18 -1 9 4 17 11 17 17 0 25 23 14 41 -16 25 -10 33 11 14 21 -19 25 -13 20 30 -2 20 -2 20 19 1 18 -16 21 -17 21 -3 0 20 -29 49 -41 42 -5 -4 -9 -1 -9 5 0 7 -6 8 -19 0 -11 -5 -31 -10 -45 -10 -14 0 -26 -4 -26 -9 0 -5 -8 -12 -17 -15 -10 -2 -4 -4 12 -3 17 1 41 7 55 14 21 11 26 10 32 -5 11 -27 9 -37 -4 -24 -18 18 -28 14 -28 -10 -1 -21 -2 -22 -14 -6 -7 10 -16 15 -19 12 -3 -4 -17 -4 -31 0 -29 7 -38 36 -16 54 13 10 11 11 -13 6 -15 -3 -33 -1 -41 5 -7 6 -21 9 -30 5 -11 -4 -16 -1 -16 10 0 9 -4 16 -10 16 -14 0 -12 -22 3 -42 8 -10 22 -14 38 -11 19 3 28 0 33 -13 6 -16 -2 -27 -29 -37 -5 -3 -7 -8 -3 -12 4 -4 14 0 23 8 14 15 19 15 53 -1 20 -9 43 -24 50 -32 8 -8 11 -9 7 -2 -7 14 11 17 20 3 8 -14 -35 -25 -48 -12 -14 14 -27 14 -27 1 0 -5 12 -13 26 -16 36 -9 9 -26 -28 -18 -17 3 -28 1 -28 -5 0 -6 -9 -11 -20 -11 -27 0 -25 16 3 24 18 5 19 8 8 15 -12 8 -13 12 -1 25 7 9 10 20 6 24 -4 4 -12 -1 -17 -11 -11 -19 -39 -24 -39 -6 0 5 -5 7 -10 4 -6 -4 -19 3 -28 16 l-18 22 -22 -28 c-25 -31 -42 -28 -20 4 15 21 13 91 -3 91 -5 0 -8 -10 -6 -21 4 -37 -22 -33 -38 6 -10 23 -20 33 -27 29 -9 -6 -9 -9 0 -12 19 -6 14 -37 -8 -57 -19 -18 -20 -17 -20 3 0 12 -4 22 -10 22 -5 0 -10 -7 -10 -15 0 -8 -4 -15 -10 -15 -17 0 -11 30 10 57 19 25 20 25 20 4 0 -11 4 -21 8 -21 4 0 8 16 8 35 0 30 -3 34 -19 29 -12 -4 -27 2 -43 17 -26 24 -31 20 -14 -12 6 -10 17 -19 25 -19 36 0 7 -34 -38 -45 -20 -5 -33 -2 -47 10 -11 10 -23 15 -26 12 -4 -4 4 -15 17 -26 28 -23 19 -39 -14 -24 -13 6 -35 9 -50 6 -17 -4 -27 -1 -27 7 0 7 7 10 15 6 18 -6 45 2 45 15 0 5 -7 9 -15 9 -12 0 -35 28 -35 44 0 13 20 5 40 -16 11 -12 20 -16 20 -10 0 6 8 11 18 10 35 -3 62 2 62 12 0 6 -14 9 -32 8 -25 -2 -35 2 -46 22 l-13 25 4 -27 c2 -16 1 -28 -2 -28 -13 0 -69 58 -74 76 -4 15 -5 14 -6 -5 l-1 -24 -25 23 c-40 38 -30 64 16 40 10 -6 19 -7 19 -2 0 4 -16 14 -35 21 -19 7 -35 16 -35 21 0 5 -7 16 -16 25 -9 8 -16 32 -16 52 0 20 -3 31 -8 24 -5 -10 -9 -9 -13 2 -3 8 -20 18 -39 22 -29 7 -30 9 -10 12 14 3 32 -3 43 -13 10 -9 19 -12 19 -6 0 5 9 8 20 5 16 -4 18 -8 9 -19 -7 -9 -8 -14 -1 -14 6 0 20 12 32 28 l21 27 -5 -25 c-3 -14 -6 -31 -6 -39 0 -8 -6 -11 -15 -7 -10 3 -18 -1 -22 -11 -5 -12 8 -29 42 -60 27 -24 53 -43 58 -43 13 0 3 35 -13 42 -12 5 -12 7 3 7 24 1 22 17 -4 24 -12 3 -22 0 -26 -9 -3 -8 -10 -14 -15 -14 -6 0 -7 8 -3 18 4 9 7 31 6 47 l-1 30 39 -45 c21 -25 42 -42 46 -38 4 4 -9 26 -29 49 -20 24 -36 52 -36 63 1 20 1 20 20 -2 11 -13 25 -22 30 -20 6 2 0 17 -14 33 -29 34 -31 41 -14 51 6 4 18 -2 27 -12 16 -20 51 -39 51 -28 0 3 -9 17 -20 31 -11 14 -20 31 -20 37 0 6 7 3 14 -6 7 -10 15 -16 18 -13 2 3 17 -8 32 -24 20 -21 26 -35 21 -50 -7 -24 -20 -27 -28 -7 -4 11 -1 13 10 9 13 -5 14 -3 4 15 -11 21 -12 21 -31 2 -24 -24 -25 -49 -5 -76 15 -18 16 -17 10 16 l-6 35 18 -30 17 -30 6 25 c4 17 12 24 24 22 13 -2 16 1 10 10 -4 7 -7 24 -6 39 1 14 -7 36 -18 49 -11 13 -20 32 -19 44 0 12 3 15 6 9 2 -7 9 -13 14 -13 4 0 6 7 3 15 -4 8 -1 15 5 15 6 0 22 -22 36 -50 14 -27 30 -50 35 -50 6 0 4 13 -5 30 -23 45 -18 49 15 10 l30 -35 -6 35 -5 35 16 -25 16 -25 -6 35 c-15 86 -17 105 -10 98 12 -12 37 -121 36 -158 -1 -32 0 -33 14 -15 8 11 15 14 15 8 0 -7 5 -13 11 -13 6 0 8 9 4 20 -4 11 -2 20 4 20 7 0 8 16 4 45 -3 28 -2 45 5 45 12 0 22 -24 22 -51 0 -10 5 -19 10 -19 16 0 11 43 -9 69 -20 26 -41 21 -41 -10 0 -27 -20 -24 -21 4 0 12 -3 17 -5 10 -3 -6 -1 -29 5 -49 8 -28 7 -34 -1 -26 -10 10 -21 60 -30 130 -1 6 -7 12 -15 12 -20 0 -55 40 -49 55 3 8 1 17 -4 20 -21 13 -10 -54 11 -69 21 -15 22 -16 4 -42 l-18 -28 -23 30 c-18 22 -24 25 -24 12 0 -21 -30 -24 -48 -6 -12 12 -17 48 -6 48 3 0 14 -5 25 -10 12 -7 19 -7 19 -1 0 5 -9 13 -20 16 -11 3 -20 11 -20 16 0 6 -4 7 -10 4 -6 -4 -7 6 -3 25 5 27 1 36 -27 61 -43 40 -32 47 19 13 32 -21 41 -33 41 -55 0 -15 4 -30 9 -33 15 -10 20 5 10 31 -8 21 -7 24 7 19 34 -13 6 19 -37 41 -54 29 -99 73 -82 80 9 3 10 10 2 24 -6 12 -6 26 -1 35 7 13 12 11 33 -14 13 -16 29 -38 36 -48 10 -16 11 -13 7 21 l-5 40 25 -30 c31 -36 45 -27 17 12 -18 25 -19 35 -12 96 5 37 7 85 4 106 -3 23 -1 41 6 45 6 4 11 0 11 -10 0 -13 3 -15 11 -7 8 8 8 17 0 32 -15 26 -28 27 -36 1z m-7 -80 c14 0 -12 -145 -28 -157 -22 -18 -60 27 -59 70 l1 32 10 -35 c12 -45 32 -67 23 -25 -7 29 -7 29 8 10 14 -17 16 -17 17 -4 0 9 -7 22 -15 29 -16 14 -21 55 -5 45 6 -3 10 3 10 14 0 11 5 32 12 48 l12 28 4 -27 c2 -16 7 -28 10 -28z m-862 -240 c4 -13 6 -13 15 0 9 13 10 13 8 0 0 -8 2 -26 6 -39 8 -23 9 -23 22 -6 13 18 13 18 13 -1 0 -26 -15 -48 -28 -40 -5 3 -13 18 -16 32 -8 29 -29 54 -45 54 -7 0 -9 11 -5 28 11 51 18 58 21 22 2 -19 6 -42 9 -50z m-46 -30 c0 -14 -5 -32 -10 -40 -7 -11 -10 1 -10 40 0 39 3 51 10 40 5 -8 10 -26 10 -40z m858 -95 c0 -13 -4 -22 -9 -19 -15 9 -10 -13 5 -25 16 -13 14 -61 -3 -118 -5 -18 -6 -35 -1 -38 4 -3 11 15 14 39 7 42 8 43 31 32 21 -10 22 -12 7 -20 -31 -17 -38 -52 -17 -86 5 -8 -6 -4 -23 9 -31 22 -32 25 -27 74 l5 52 -15 -50 c-9 -27 -16 -58 -17 -67 -3 -22 -12 -23 -27 -4 -8 10 -5 27 15 70 14 31 27 77 29 103 2 26 9 49 14 51 5 2 7 10 4 19 -4 10 -2 14 4 10 6 -4 11 -18 11 -32z m-1098 -74 c0 -35 -18 -14 -26 29 -6 33 -6 34 9 15 9 -11 17 -31 17 -44z m2075 -35 c-10 -14 -13 -26 -7 -26 6 0 15 8 21 17 5 10 13 14 18 10 8 -9 -41 -57 -58 -57 -5 0 -9 11 -9 25 0 14 -3 24 -7 24 -28 -4 -22 4 12 20 22 10 41 17 43 15 2 -1 -4 -14 -13 -28z m-867 -37 c13 -20 14 -20 26 -3 13 17 14 16 26 -5 16 -31 -6 -48 -32 -24 -10 9 -21 13 -25 10 -10 -11 -32 13 -26 29 7 19 16 18 31 -7z m966 -43 c-5 -21 -9 -24 -20 -15 -9 8 -14 8 -14 1 0 -6 4 -13 9 -17 5 -3 -1 -17 -15 -32 -15 -16 -24 -38 -24 -57 l0 -31 -20 30 -20 30 22 20 c13 11 33 42 46 69 24 52 49 53 36 2z m-74 -25 c0 -10 -7 -22 -16 -25 -8 -3 -12 -2 -9 4 3 6 1 10 -4 10 -11 0 -15 -22 -13 -67 1 -13 -3 -23 -9 -23 -6 0 -7 5 -4 10 3 6 0 10 -7 10 -11 0 -10 2 0 9 11 7 11 9 -2 14 -25 10 -18 30 17 54 41 27 47 27 47 4z m-2087 -103 c9 -5 9 -10 -1 -20 -9 -9 -12 -9 -12 4 0 8 -7 21 -15 28 -10 8 -13 21 -9 39 12 46 19 47 22 1 2 -24 9 -48 15 -52z m947 28 c0 -7 -10 -16 -22 -20 -28 -7 -49 11 -28 24 22 14 50 12 50 -4z m-522 -26 c27 -20 62 -19 62 2 0 5 5 6 10 3 6 -3 10 -11 10 -16 0 -6 -5 -7 -10 -4 -7 4 -9 -2 -4 -19 7 -30 -15 -36 -36 -11 -7 9 -20 13 -30 10 -11 -4 -20 3 -28 20 -20 43 -15 45 26 15z m1497 0 c-3 -5 1 -10 9 -10 9 0 16 -5 16 -11 0 -5 -4 -8 -9 -5 -5 3 -11 -4 -14 -16 -5 -19 -8 -20 -23 -8 -10 9 -12 16 -5 18 6 2 8 8 5 14 -4 6 0 14 7 19 18 11 22 11 14 -1z m-140 -21 c19 0 19 0 -2 -9 -11 -5 -31 -6 -42 -3 -17 4 -19 8 -10 20 9 9 15 11 23 3 5 -5 19 -10 31 -11z m-979 -11 c3 -5 12 -4 20 3 10 8 17 7 28 -4 14 -13 14 -19 0 -47 -9 -17 -14 -42 -11 -56 3 -16 0 -23 -7 -21 -6 3 -10 10 -8 16 4 18 -18 52 -28 46 -10 -6 -43 23 -52 47 -4 9 -2 20 4 26 11 11 45 5 54 -10z m1030 1 c3 -6 15 -8 26 -6 12 4 18 1 15 -6 -2 -7 -24 -16 -49 -22 -25 -6 -43 -15 -41 -21 2 -6 -3 -14 -12 -17 -8 -4 -15 -2 -15 4 0 6 -6 9 -12 6 -18 -6 -50 12 -43 23 3 6 -1 7 -11 3 -14 -5 -15 -3 -5 15 10 19 15 20 37 10 23 -11 24 -13 7 -19 -14 -6 -12 -8 10 -8 15 -1 27 4 27 10 0 7 12 9 33 6 17 -3 26 -3 20 0 -15 5 -18 33 -4 33 6 0 13 -5 17 -11z m34 -64 c-14 -16 -60 -21 -60 -6 0 9 22 16 59 20 11 1 11 -2 1 -14z m-69 -30 c0 -6 -9 -10 -20 -11 -10 -1 -23 -4 -30 -8 -6 -4 -11 -1 -11 8 0 8 10 17 23 19 29 6 39 4 38 -8z m-1503 -30 c-1 -2 -16 -1 -32 2 l-29 6 29 12 c24 10 30 9 32 -2 2 -8 2 -16 0 -18z m-265 16 c13 -5 30 -23 37 -41 14 -35 60 -63 94 -58 13 1 30 -3 39 -10 8 -7 25 -14 36 -15 21 -1 26 -8 14 -20 -3 -4 -12 -2 -20 4 -7 6 -13 8 -13 3 1 -15 24 -40 45 -48 15 -5 16 -9 6 -15 -10 -6 -9 -11 4 -25 17 -16 39 -21 85 -17 20 1 22 -1 10 -9 -12 -8 -9 -10 13 -10 15 0 27 -4 27 -10 0 -12 -46 -12 -75 -1 -23 9 -57 3 -50 -9 9 -14 -33 -22 -55 -10 -27 15 -25 23 4 16 31 -8 41 7 24 36 -7 13 -11 29 -10 36 2 6 -3 12 -11 12 -8 0 -19 -21 -27 -55 -7 -30 -18 -55 -24 -55 -20 0 -56 30 -56 47 0 12 7 14 32 9 17 -3 29 -3 25 0 -4 4 -2 13 4 21 9 10 8 13 -3 13 -12 0 -14 8 -8 38 6 37 6 38 -22 34 -20 -3 -30 1 -35 14 -7 21 -22 34 -38 34 -5 -1 -1 -7 9 -15 12 -9 15 -15 7 -15 -9 0 -11 -6 -6 -17 4 -10 11 -31 16 -48 8 -28 8 -27 4 8 -4 43 10 41 20 -3 4 -17 12 -30 18 -30 7 -1 0 -8 -15 -16 -33 -17 -35 -33 -10 -64 15 -18 30 -23 89 -26 63 -3 71 -1 76 16 4 17 8 18 36 7 17 -6 30 -16 27 -22 -2 -7 5 -17 15 -23 20 -13 26 -32 10 -32 -5 0 -17 7 -26 16 -15 15 -17 15 -36 -2 -15 -14 -22 -15 -32 -5 -9 9 -7 13 11 17 12 4 22 10 22 15 0 15 -19 10 -41 -12 l-21 -21 21 -14 c12 -9 21 -22 21 -30 0 -23 18 -16 23 9 3 13 5 7 6 -16 0 -23 7 -40 16 -43 20 -8 19 -24 -1 -24 -8 0 -12 5 -9 10 3 6 -1 10 -9 10 -8 0 -22 10 -30 22 -19 26 -35 15 -18 -12 10 -17 10 -20 -3 -20 -8 0 -15 4 -15 9 0 10 -39 3 -56 -10 -14 -11 -130 -8 -146 4 -9 5 -4 7 15 4 15 -2 27 0 27 5 0 6 16 7 38 3 30 -5 43 -2 61 14 13 12 30 21 36 21 7 0 18 7 25 15 19 23 -35 33 -60 10 -18 -17 -40 -13 -40 6 0 6 10 8 23 4 14 -4 18 -3 9 3 -7 5 -10 16 -6 25 8 22 -22 23 -34 1 -11 -20 -70 -11 -79 12 -3 8 -9 11 -14 8 -5 -3 -9 8 -9 25 0 25 3 29 18 24 15 -6 15 -5 3 10 -10 13 -17 15 -27 6 -19 -15 -15 -80 5 -86 9 -2 24 -9 33 -14 10 -5 26 -9 37 -9 11 0 23 -9 26 -20 6 -18 17 -24 38 -21 4 0 7 -3 7 -9 0 -5 -15 -10 -34 -10 -25 0 -36 5 -41 19 -6 20 -53 34 -70 21 -16 -12 -75 -18 -75 -6 0 6 -5 5 -12 -2 -9 -9 -5 -17 14 -35 14 -14 34 -39 43 -57 9 -17 19 -29 22 -26 3 3 -6 25 -21 49 l-25 45 28 5 c16 3 41 2 57 -2 28 -7 28 -8 -15 -15 -40 -6 -42 -8 -28 -24 8 -9 19 -29 22 -44 4 -16 11 -28 16 -28 12 0 11 17 -1 25 -18 11 -10 26 12 23 13 -2 22 -12 25 -27 5 -32 -11 -40 -55 -30 -46 10 -168 130 -177 174 l-6 30 17 -30 c15 -27 18 -28 24 -11 4 14 9 16 14 8 8 -13 56 -16 94 -6 41 11 23 21 -29 16 -40 -4 -50 -2 -44 7 4 7 16 11 26 8 10 -3 22 -1 25 4 3 5 -3 9 -13 10 -14 0 -13 2 5 10 13 5 20 13 17 19 -4 6 -10 8 -15 5 -13 -8 -60 5 -60 17 0 6 9 8 20 5 11 -3 22 -1 25 4 3 4 -7 11 -22 15 -49 10 -81 25 -87 40 -3 9 1 14 14 14 11 0 20 -3 20 -8 0 -4 9 -13 20 -20 28 -17 25 -2 -5 30 -40 43 -30 41 41 -8 54 -38 65 -42 59 -25 -7 24 7 28 25 6 7 -8 17 -15 23 -15 18 0 -57 59 -75 60 -10 0 -22 10 -29 21 -9 17 -8 20 3 13 15 -10 58 -13 58 -4 0 3 -9 13 -20 23 -23 20 -27 47 -6 47 8 0 20 -16 26 -35 6 -19 15 -33 19 -31 4 3 13 -11 20 -30 7 -18 16 -34 20 -34 11 0 1 49 -10 56 -12 7 -11 58 2 71 7 7 4 21 -11 47 -22 36 -37 49 -26 21 9 -24 -29 -18 -48 8 l-17 22 6 -25 c6 -24 5 -24 -9 -6 -25 32 14 47 67 27z m72 -11 c-19 -8 -19 -9 3 -9 19 -1 23 -5 22 -27 -1 -3 9 -14 22 -24 27 -22 23 -24 -19 -10 -46 17 -71 81 -30 79 21 0 21 -1 2 -9z m-45 -66 c0 -8 -5 -14 -11 -14 -6 0 -8 -8 -5 -17 4 -13 0 -11 -14 6 -25 29 -25 38 -2 44 22 5 32 -1 32 -19z m888 -9 c-2 -6 -7 -9 -11 -7 -5 1 -6 -2 -2 -8 4 -6 15 -8 26 -5 10 4 27 2 36 -4 15 -9 13 -10 -14 -11 -17 0 -35 -5 -39 -12 -4 -7 -3 -8 4 -4 19 12 60 -5 66 -27 7 -27 3 -30 -23 -22 -12 3 -21 15 -21 25 0 14 -5 18 -16 13 -19 -7 -11 -52 13 -70 9 -7 14 -16 10 -19 -9 -9 -27 5 -38 30 -7 16 -8 12 -4 -16 7 -46 -9 -50 -33 -9 -9 17 -25 32 -36 35 -14 4 -17 11 -12 28 3 13 6 33 6 46 0 12 4 22 10 22 5 0 9 -10 7 -21 -3 -30 20 -36 26 -7 3 18 5 16 6 -9 0 -17 5 -34 10 -37 4 -3 7 13 6 37 -1 23 0 48 3 55 5 15 25 12 20 -3z m-1008 -76 l53 -60 -36 18 c-30 15 -77 74 -77 97 0 13 10 4 60 -55z m909 -93 c26 -24 27 -39 4 -34 -10 2 -19 12 -21 23 -2 11 -18 30 -37 43 -19 12 -35 29 -35 38 0 11 11 5 34 -18 19 -18 43 -42 55 -52z m-94 44 c4 -11 19 -27 34 -35 23 -11 27 -19 23 -41 -3 -19 -1 -25 7 -20 6 4 11 1 11 -8 0 -9 -7 -16 -15 -16 -8 0 -15 6 -15 14 0 8 -13 17 -30 21 -16 4 -30 10 -30 13 0 4 -10 18 -21 32 l-20 25 16 -33 c16 -33 16 -33 -4 -23 -11 6 -27 21 -35 33 -19 27 -4 40 33 31 20 -5 23 -3 18 11 -4 10 -1 16 8 16 7 0 17 -9 20 -20z m1098 -16 c-15 -13 -35 -24 -43 -24 -12 0 -13 -2 -1 -9 19 -12 1 -20 -32 -14 -25 5 -39 23 -18 23 6 0 21 11 35 23 15 14 38 24 56 24 l31 0 -28 -23z m-1203 -9 c0 -14 -24 -27 -33 -18 -8 8 16 43 25 37 4 -3 8 -11 8 -19z m1720 10 c-7 -9 -19 -14 -26 -11 -17 7 -26 -5 -14 -19 8 -9 5 -15 -7 -19 -11 -5 -22 -1 -30 10 -18 25 7 41 81 53 5 0 3 -6 -4 -14z m-1262 -31 c2 -1 -4 -9 -13 -18 -15 -15 -15 -16 2 -16 17 -1 17 -2 -1 -15 -23 -17 -50 -20 -41 -5 4 6 11 7 17 4 7 -4 8 -2 4 4 -4 6 -2 21 4 32 9 17 8 20 -9 20 -23 0 -37 16 -19 23 7 2 22 -3 33 -12 11 -9 21 -16 23 -17z m72 6 c0 -30 14 -40 24 -17 5 9 7 9 12 -1 5 -10 9 -10 21 0 13 10 15 9 12 -6 -6 -29 -30 -39 -61 -27 -18 7 -28 18 -28 30 0 11 -4 23 -10 26 -5 3 -10 -3 -10 -14 0 -12 -5 -21 -11 -21 -6 0 -8 7 -5 16 3 9 6 19 6 24 0 7 17 15 43 19 4 0 7 -12 7 -29z m106 -15 c-23 -34 -32 -25 -16 15 9 21 16 28 23 21 7 -7 4 -19 -7 -36z m1191 26 c-7 -8 -24 -11 -49 -8 -45 6 -48 1 -10 -15 l27 -12 -39 -4 c-25 -2 -35 -6 -27 -11 9 -6 4 -13 -19 -25 -18 -9 -35 -16 -37 -16 -12 0 2 28 33 65 33 41 38 43 84 42 39 -2 46 -5 37 -16z m-1951 -51 c17 0 19 -20 2 -20 -7 0 2 -8 20 -16 17 -9 32 -20 32 -24 0 -10 -51 0 -75 15 -11 7 -31 11 -45 10 -14 -2 -32 -4 -40 -4 -30 -2 13 -21 48 -21 35 0 105 -31 85 -37 -6 -2 -31 1 -55 8 -24 7 -52 13 -62 14 -20 2 -56 39 -56 57 0 6 14 8 35 5 21 -4 35 -2 35 5 0 5 6 8 14 5 8 -3 17 1 20 9 3 8 0 14 -7 14 -7 0 -19 5 -27 10 -13 9 -13 11 -1 19 10 6 21 1 38 -20 14 -16 31 -29 39 -29z m1336 12 c-6 -2 -8 -10 -5 -18 3 -8 0 -14 -7 -14 -6 0 -8 -5 -4 -11 4 -7 1 -10 -7 -7 -20 7 -18 30 5 56 11 12 16 22 12 22 -4 0 -4 6 1 13 5 8 9 4 11 -13 2 -13 -1 -26 -6 -28z m-812 13 c22 -13 9 -24 -17 -15 -25 9 -26 8 -10 -4 9 -7 17 -16 17 -20 0 -14 -29 -4 -56 19 -23 20 -26 27 -15 34 13 8 57 1 81 -14z m1229 -2 c-4 -22 3 -33 19 -33 15 -1 15 -2 -2 -15 -25 -19 -40 -19 -32 0 3 8 2 14 -2 14 -19 -3 -22 3 -12 21 10 19 31 28 29 13z m-892 -32 c3 -12 11 -17 19 -14 8 3 14 0 14 -6 0 -6 -15 -11 -32 -12 l-33 -1 30 -13 c31 -14 22 -19 -29 -15 -18 1 -26 -2 -22 -9 4 -6 16 -11 26 -11 13 0 17 -5 14 -15 -4 -10 -14 -13 -30 -9 -19 5 -23 3 -18 -10 4 -11 1 -16 -10 -16 -9 0 -16 8 -16 20 0 11 5 20 10 20 6 0 9 3 9 8 -1 4 0 9 1 12 1 3 3 13 5 22 4 21 37 67 48 68 5 0 11 -9 14 -19z m-645 -18 c24 -21 23 -33 -3 -33 -15 0 -19 5 -15 15 3 8 1 15 -4 15 -6 0 -10 5 -10 10 0 15 11 12 32 -7z m143 2 c0 -5 -10 -11 -22 -13 -16 -2 -23 2 -23 13 0 11 7 15 23 13 12 -2 22 -7 22 -13z m932 -5 c1 -11 -2 -20 -6 -20 -13 0 -32 26 -24 33 13 14 29 7 30 -13z m-1207 -20 c31 -27 33 -30 13 -30 -13 0 -24 8 -28 20 -3 11 -13 20 -21 20 -8 0 -14 5 -14 10 0 17 13 11 50 -20z m681 9 c15 -15 16 -19 3 -30 -12 -10 -18 -8 -34 9 -11 12 -20 25 -20 30 0 15 33 9 51 -9z m907 10 c12 0 22 -1 22 -3 0 -9 -91 -66 -105 -66 -20 0 -30 21 -14 31 8 5 26 9 42 9 15 0 27 5 27 11 0 5 -4 7 -10 4 -14 -8 -32 4 -24 16 3 6 13 7 23 3 9 -4 26 -6 39 -5z m-1528 -9 c19 12 30 12 30 0 0 -5 -9 -14 -21 -20 -21 -12 -49 1 -49 22 0 7 5 7 13 0 8 -7 18 -7 27 -2z m509 -7 c6 -10 11 -12 11 -5 0 6 7 12 15 12 9 0 12 -6 9 -15 -9 -22 -94 -16 -94 7 0 5 4 7 9 3 5 -3 12 -1 16 5 9 15 23 12 34 -7z m761 2 c-3 -5 -13 -9 -22 -8 -10 2 -18 -1 -18 -7 0 -14 22 -24 54 -25 24 0 31 -6 37 -27 7 -26 2 -32 -18 -25 -5 1 -7 5 -5 10 1 4 -10 4 -24 1 -18 -5 -25 -3 -20 4 8 13 1 17 -39 26 l-30 6 23 -19 c14 -12 18 -22 12 -26 -6 -4 -17 -2 -24 4 -10 9 -15 7 -20 -5 -4 -10 -2 -22 4 -28 17 -17 11 -28 -10 -21 -16 5 -19 3 -13 -12 6 -14 3 -14 -16 4 l-23 21 23 31 c12 17 26 31 30 31 5 0 14 18 20 41 12 38 14 40 48 37 20 -2 34 -7 31 -13z m-824 -63 c-3 -2 -12 1 -21 8 -9 7 -18 11 -21 8 -3 -3 11 -15 30 -26 28 -16 35 -27 34 -47 -2 -25 -3 -25 -35 12 -18 20 -33 39 -34 42 0 3 -2 15 -4 25 -2 11 4 25 13 32 15 11 19 9 30 -18 7 -17 11 -33 8 -36z m1190 58 c45 0 45 0 42 -32 -3 -30 -6 -33 -33 -30 -16 2 -33 10 -37 17 -5 7 -16 11 -27 8 -10 -3 -22 0 -25 5 -10 17 5 44 21 38 8 -3 35 -6 59 -6z m90 -10 c12 22 13 23 14 5 1 -24 16 -45 50 -68 l24 -17 -31 0 c-32 0 -59 22 -48 40 3 5 1 10 -4 10 -11 0 -15 -15 -11 -35 2 -10 -28 -35 -42 -35 -4 0 -8 7 -8 16 0 10 6 14 15 10 12 -4 15 5 16 47 1 29 4 41 6 27 l5 -24 14 24z m-1515 1 c-9 -6 -12 -18 -7 -37 6 -27 5 -28 -9 -10 -18 24 -19 43 -2 49 21 9 33 7 18 -2z m-171 -12 c0 -5 5 -7 12 -3 7 4 8 3 4 -4 -4 -6 -2 -21 4 -32 9 -17 8 -20 -9 -20 -10 0 -22 7 -25 16 -9 24 -7 54 4 54 6 0 10 -5 10 -11z m96 -4 c8 -20 71 -58 84 -50 5 3 10 1 10 -4 0 -14 -47 -14 -55 -1 -4 6 -12 9 -18 8 -20 -4 -57 25 -57 44 0 22 28 24 36 3z m159 -5 c3 -5 17 -10 30 -10 29 0 48 -29 34 -51 -8 -12 -12 -10 -28 10 -21 27 -38 13 -21 -18 5 -11 10 -24 10 -30 0 -16 -26 -13 -40 4 -9 11 -8 19 4 37 22 30 20 45 -2 25 -22 -20 -39 -22 -23 -3 6 7 9 21 5 30 -7 18 20 23 31 6z m299 1 c4 -5 0 -12 -6 -14 -8 -4 -7 -6 4 -6 23 -1 16 -33 -10 -42 -13 -5 -22 -4 -22 1 0 6 10 11 23 11 l22 2 -22 4 c-24 5 -27 11 -17 37 7 18 20 21 28 7z m180 3 c24 -9 19 -26 -5 -19 -15 5 -22 2 -26 -14 -3 -11 -9 -18 -14 -15 -15 9 -10 34 6 34 8 0 15 5 15 10 0 12 3 12 24 4z m-1053 -16 l34 -13 -35 -6 c-27 -5 -19 -7 33 -8 62 -1 72 -4 98 -30 27 -27 42 -80 19 -66 -5 3 -10 13 -10 22 0 9 -6 13 -15 9 -18 -7 -20 10 -2 18 6 3 -1 4 -16 1 -36 -7 -97 4 -97 17 0 6 13 8 33 5 29 -5 30 -5 9 5 -17 9 -31 9 -52 1 -27 -10 -30 -9 -39 17 -5 16 -7 31 -4 34 8 8 4 8 44 -6z m393 -21 c27 -11 13 -19 -18 -11 -18 4 -26 13 -26 28 1 18 2 19 13 5 7 -8 21 -18 31 -22z m-153 14 c6 11 13 10 35 -1 l27 -15 -29 -6 c-16 -4 -24 -7 -19 -8 6 -1 3 -6 -5 -11 -8 -5 -26 -7 -40 -3 -20 4 -23 3 -13 -7 6 -7 26 -13 42 -14 17 -1 33 -7 36 -15 7 -17 2 -22 -21 -22 -45 1 -54 6 -69 38 -16 33 -33 47 -21 18 8 -22 -2 -18 -15 6 -6 13 -7 19 -1 15 6 -3 12 0 15 6 3 10 12 8 36 -5 18 -11 35 -16 39 -12 4 4 2 10 -4 12 -6 2 -20 11 -30 19 -18 14 -17 14 5 4 18 -10 25 -9 32 1z m1098 -19 c32 -14 33 -16 14 -20 -13 -2 -32 3 -44 12 -17 11 -27 12 -41 5 -11 -6 -22 -8 -26 -5 -3 3 0 6 6 6 7 0 12 7 12 16 0 17 15 14 79 -14z m520 15 c24 -1 50 -34 44 -56 -3 -12 -1 -21 6 -21 6 0 11 7 11 16 0 13 3 14 15 4 14 -12 55 -5 66 12 6 10 39 0 39 -11 0 -13 -66 -28 -88 -20 -16 6 -20 5 -15 -7 8 -22 -25 -17 -39 6 -7 11 -17 20 -22 20 -4 0 -1 -12 9 -26 26 -41 11 -39 -24 2 -17 21 -33 35 -36 33 -3 -3 6 -18 20 -34 29 -31 29 -37 -2 -29 -20 6 -73 72 -73 92 0 14 43 31 60 25 8 -3 21 -6 29 -6z m-1051 -51 c3 -36 -10 -66 -29 -66 -11 0 -12 93 -2 104 15 14 28 -2 31 -38z m279 19 c-24 -22 -57 -25 -57 -5 0 10 41 29 65 29 18 0 17 -2 -8 -24z m53 15 c-12 -8 -12 -10 5 -10 25 0 52 -17 42 -26 -3 -4 -13 -1 -22 6 -10 8 -15 9 -15 1 0 -17 -17 -13 -24 5 -7 19 0 34 17 34 7 0 6 -4 -3 -10z m598 -7 c-2 -11 -14 -19 -33 -21 -30 -4 -30 -4 -11 17 23 26 49 28 44 4z m482 -2 c0 -11 -25 -21 -52 -21 -11 0 -27 -9 -36 -20 -12 -14 -24 -18 -39 -14 -13 4 -23 10 -23 15 0 12 40 31 54 26 7 -3 23 1 37 9 28 15 59 18 59 5z m-1839 -18 c7 -7 24 -9 40 -6 20 4 39 -3 73 -26 46 -32 60 -48 31 -37 -8 3 -15 1 -15 -4 0 -5 -16 0 -35 11 -19 12 -35 27 -35 35 0 11 -6 10 -22 -6 -34 -31 -78 -24 -46 8 13 13 11 14 -41 16 -13 1 -26 6 -28 11 -4 14 64 12 78 -2z m632 0 l32 -17 -25 -6 c-18 -4 -27 -2 -32 9 -5 13 -7 12 -7 -3 -1 -15 -4 -17 -12 -9 -11 11 -6 43 6 43 3 0 20 -8 38 -17z m307 -3 c0 -4 -17 -11 -37 -15 -21 -4 -46 -15 -56 -26 -21 -23 -37 -24 -63 -5 -27 20 -14 28 19 11 27 -14 27 -13 21 13 -5 25 -4 26 9 9 15 -18 34 -7 22 12 -3 5 7 11 22 13 34 4 63 -2 63 -12z m235 -6 c-24 -18 -69 -18 -84 0 -9 11 -7 12 13 9 13 -3 26 -1 30 5 3 5 18 7 32 4 26 -5 26 -6 9 -18z m-617 0 c4 2 13 -9 19 -25 10 -26 9 -31 -12 -45 -13 -9 -27 -24 -30 -35 -7 -22 -34 -24 -82 -7 -38 14 -41 23 -13 38 11 6 20 19 20 29 0 24 60 62 77 49 7 -5 16 -7 21 -4z m186 1 c5 -13 -5 -20 -26 -16 -11 1 -10 -6 4 -29 19 -29 1 -36 -23 -9 -11 13 -17 17 -13 9 5 -8 10 -24 11 -35 5 -34 12 -45 28 -45 8 0 15 9 15 21 0 12 4 17 11 14 5 -4 19 1 29 10 35 32 40 6 9 -45 -21 -34 -46 -58 -83 -78 -28 -17 -67 -47 -85 -67 -35 -40 -51 -40 -33 0 17 38 15 96 -4 110 -15 10 -14 16 12 54 l28 43 13 -26 c16 -30 28 -33 37 -10 10 27 7 38 -7 25 -8 -6 -17 -8 -20 -4 -15 15 -5 30 33 52 22 12 40 26 40 32 0 15 17 10 24 -6z m516 -11 c0 -11 -6 -13 -20 -9 -11 4 -20 3 -19 -2 1 -4 1 -15 0 -23 -1 -12 -5 -11 -18 5 -15 20 -15 20 -10 -2 3 -13 0 -23 -5 -23 -6 0 -5 -6 2 -15 7 -9 11 -18 8 -20 -9 -9 -32 5 -51 30 -18 25 -18 25 5 36 13 5 39 18 58 29 37 19 50 18 50 -6z m-1082 -25 c37 -36 40 -42 27 -55 -16 -17 -19 -27 -8 -37 10 -11 33 14 33 37 1 19 2 19 11 4 5 -10 19 -18 30 -18 17 0 19 6 17 40 -2 24 -8 40 -15 40 -16 0 -16 -15 -3 -41 12 -21 1 -26 -18 -7 -17 17 -15 58 2 58 8 0 16 6 18 12 8 22 57 -44 58 -75 0 -42 30 -86 72 -108 31 -16 38 -25 43 -61 4 -29 1 -55 -9 -79 -9 -21 -14 -60 -13 -92 2 -49 -1 -60 -25 -84 l-27 -27 -11 29 c-6 15 -24 44 -41 63 -24 27 -29 41 -24 61 3 14 6 33 6 42 1 19 -75 130 -96 142 -8 4 -42 1 -77 -8 -44 -12 -68 -14 -84 -6 -24 11 -49 73 -40 98 6 14 10 13 32 -8 13 -12 22 -29 20 -36 -10 -25 12 -22 29 3 14 21 19 24 26 13 14 -22 10 -33 -6 -19 -11 9 -15 9 -15 1 0 -15 26 -25 40 -16 6 4 7 12 1 22 -9 17 -4 25 34 64 l20 21 -30 24 c-16 13 -25 24 -20 24 6 0 3 5 -5 10 -8 5 -10 10 -4 10 6 0 30 -18 52 -41z m1202 27 c0 -2 3 -11 6 -19 3 -10 -8 -23 -33 -38 -21 -12 -59 -45 -85 -72 l-47 -50 -78 7 c-42 3 -81 10 -86 15 -10 10 11 99 25 107 6 4 8 -5 3 -24 -5 -24 -2 -35 15 -52 l21 -21 24 28 c20 23 24 25 25 10 0 -10 -4 -15 -10 -12 -5 3 -10 -1 -10 -9 0 -23 15 -20 34 7 12 15 15 16 12 5 -7 -25 8 -30 23 -9 9 12 21 16 34 13 14 -3 18 -1 15 9 -2 8 -14 15 -26 17 -12 2 -22 7 -22 12 0 16 18 20 43 11 19 -7 28 -6 37 4 7 9 8 15 0 20 -5 3 -10 0 -11 -7 0 -10 -2 -10 -6 0 -2 6 -9 10 -13 7 -5 -3 -11 -1 -15 5 -3 5 1 11 9 11 29 3 34 4 41 11 4 4 13 4 20 2 7 -3 16 -1 20 5 6 10 35 16 35 7z m-1667 -23 c13 -8 7 -33 -8 -33 -8 0 -15 8 -15 18 0 14 -2 15 -10 2 -8 -12 -13 -13 -30 -2 -17 10 -20 10 -20 -3 0 -21 79 -41 103 -26 21 13 61 5 51 -11 -3 -5 -18 -7 -33 -3 -21 5 -24 4 -13 -6 16 -17 15 -29 -3 -29 -8 0 -15 5 -15 10 0 6 -16 10 -35 10 -41 0 -85 36 -85 70 0 21 3 21 53 15 28 -4 55 -9 60 -12z m1057 -13 c9 -15 4 -30 -9 -30 -4 0 -13 11 -19 24 -9 20 -8 24 4 22 9 -1 19 -9 24 -16z m900 12 c0 -13 -50 -33 -63 -25 -7 4 0 12 18 19 36 16 45 17 45 6z m-2112 -15 c6 -7 7 -18 3 -25 -6 -10 -14 -7 -34 8 l-27 21 0 -27 c0 -22 3 -25 12 -16 9 9 15 9 26 0 10 -9 18 -9 34 1 21 13 34 9 24 -7 -8 -13 -69 -24 -90 -16 -16 6 -23 54 -9 67 11 12 50 8 61 -6z m1462 3 c0 -9 -31 -30 -45 -30 -3 0 -1 9 5 20 11 20 40 28 40 10z m-1543 -15 c1 -5 -2 -17 -7 -25 -8 -12 -13 -11 -33 8 -13 12 -30 22 -38 22 -10 -1 -8 -5 6 -16 19 -16 19 -16 -7 -12 -15 3 -25 1 -22 -3 3 -5 -2 -9 -10 -9 -10 0 -16 9 -16 23 0 20 4 22 62 22 34 0 63 -4 65 -10z m468 -11 c-27 -20 -44 -17 -38 4 3 14 11 18 30 14 25 -5 25 -6 8 -18z m1025 18 c0 -4 -5 -13 -12 -20 -18 -18 -1 -27 27 -14 31 14 35 -5 8 -36 -16 -18 -159 -59 -170 -48 -2 2 5 25 14 52 15 40 25 51 53 61 41 14 80 16 80 5z m163 -16 c14 -21 14 -26 1 -42 -14 -18 -15 -17 -11 9 4 27 -7 38 -16 15 -3 -7 -6 -4 -6 8 -1 17 6 34 15 34 1 0 9 -11 17 -24z m626 8 c37 -18 34 -29 -8 -32 -33 -2 -44 8 -35 32 7 19 4 19 43 0z m-1887 -14 c7 -11 23 -20 35 -20 13 0 23 -4 23 -10 0 -14 -13 -13 -60 6 -22 9 -40 22 -40 30 0 21 28 17 42 -6z m1724 10 c6 -6 32 -12 57 -13 50 -2 59 -21 11 -23 -16 0 -36 -4 -45 -8 -8 -4 -28 0 -44 8 -38 20 -42 14 -11 -17 14 -15 26 -21 26 -15 0 9 3 9 12 0 9 -9 14 -7 24 6 12 16 14 16 28 -3 23 -29 20 -35 -19 -33 -19 1 -35 6 -35 11 0 6 -3 7 -7 4 -3 -4 -18 3 -31 15 l-25 23 17 -32 c18 -36 19 -43 8 -43 -16 0 -50 35 -53 55 -3 11 -12 21 -22 23 -15 3 -15 0 4 -32 25 -43 12 -48 -16 -6 -20 29 -35 39 -35 21 0 -4 10 -21 22 -36 13 -16 16 -25 7 -21 -8 3 -22 9 -31 12 -10 4 -18 15 -18 26 0 10 -4 17 -9 14 -16 -10 -22 27 -7 42 12 12 22 13 61 3 42 -11 50 -10 78 8 37 24 40 24 53 11z m-1596 -122 c12 -26 61 -55 77 -45 4 3 31 8 58 11 46 6 48 5 31 -9 -13 -10 -42 -15 -82 -15 -57 0 -64 2 -88 31 -27 31 -27 33 -28 84 -1 60 5 69 12 20 4 -27 13 -62 20 -77z m-180 82 c0 -11 8 -29 17 -39 16 -20 17 -20 36 2 l19 22 -6 -22 c-4 -13 -3 -23 3 -23 5 0 13 9 16 20 3 11 12 20 20 20 7 0 16 10 18 23 2 12 5 0 6 -26 0 -27 6 -57 11 -68 9 -15 7 -19 -5 -19 -9 0 -13 -4 -10 -10 3 -5 1 -10 -5 -10 -7 0 -10 7 -6 15 3 8 -3 19 -14 25 -28 15 -34 12 -19 -7 19 -23 -48 22 -78 53 -23 23 -31 64 -13 64 6 0 10 -9 10 -20z m258 8 c30 -30 5 -37 -29 -8 -23 19 -23 19 -3 20 11 0 25 -5 32 -12z m493 -16 c-14 -26 -14 -62 -1 -62 6 0 10 -5 10 -12 0 -6 -9 -3 -20 7 -20 18 -19 55 3 83 15 19 20 7 8 -16z m473 -6 c-3 -14 -13 -26 -21 -26 -12 0 -11 5 3 30 21 34 28 33 18 -4z m-1554 -8 c0 -10 -1 -10 -39 3 -43 15 -40 30 4 16 19 -6 35 -14 35 -19z m378 5 c-5 -23 -23 -20 -26 4 -3 18 0 21 13 17 9 -4 15 -13 13 -21z m-449 3 c10 -11 8 -15 -6 -20 -10 -3 -1 -3 20 0 32 4 37 2 37 -14 0 -17 -6 -19 -47 -15 -60 7 -72 17 -48 43 21 24 29 25 44 6z m212 -3 c21 -25 70 -42 94 -33 12 5 28 4 36 -1 11 -7 11 -9 -3 -9 -26 0 -30 -17 -12 -47 l16 -28 -25 29 c-15 18 -31 27 -40 23 -9 -3 -17 -1 -19 5 -5 14 -59 19 -74 7 -8 -7 -14 -6 -19 1 -3 5 1 10 9 10 8 0 18 5 21 10 8 13 -5 35 -14 24 -3 -5 -16 -15 -29 -22 -18 -10 -27 -10 -38 -1 -11 9 -14 9 -14 -2 0 -9 -3 -10 -11 -2 -16 16 -3 32 20 26 10 -3 32 2 47 11 37 19 39 19 55 -1z m1674 -31 c-31 -48 -58 -72 -82 -72 -17 0 -22 -4 -17 -12 6 -10 4 -10 -7 0 -16 14 -73 17 -64 2 3 -5 -1 -10 -9 -10 -8 0 -18 5 -22 11 -3 6 -23 9 -43 7 -24 -3 -46 2 -66 14 -16 10 -23 18 -15 18 9 0 27 -8 40 -17 l25 -17 -19 22 c-15 18 -30 22 -75 22 -40 0 -52 3 -41 10 8 5 40 10 71 10 49 0 59 -3 72 -24 15 -21 21 -23 98 -21 91 3 121 18 148 72 9 17 18 27 19 22 2 -5 -4 -22 -13 -37z m63 7 c-14 -36 -38 -50 -38 -22 0 15 40 64 48 58 1 -1 -4 -17 -10 -36z m377 31 c11 -5 14 -9 6 -9 -8 -1 -19 -8 -25 -17 -10 -13 -15 -13 -39 -1 l-28 15 28 10 c34 13 33 13 58 2z m54 -41 c-19 -12 -59 -11 -59 1 0 17 33 29 54 18 15 -8 16 -12 5 -19z m-379 -35 c0 -14 -25 -26 -34 -17 -3 4 -6 17 -6 30 0 21 2 22 20 11 11 -7 20 -18 20 -24z m348 0 c17 -8 32 -19 32 -24 0 -15 -33 -12 -55 4 -14 10 -25 11 -39 4 -13 -7 -21 -6 -27 3 -7 11 -11 11 -17 1 -6 -9 -13 -7 -28 9 -19 22 -19 22 2 17 12 -3 28 -2 35 3 16 9 50 3 97 -17z m-2201 0 c3 -10 -25 -50 -31 -43 -2 2 -2 17 1 32 5 26 23 33 30 11z m1953 -5 c-11 -8 -5 -9 23 -4 39 6 48 -4 22 -25 -14 -12 -13 -16 6 -37 18 -19 19 -23 6 -23 -8 0 -26 12 -38 28 l-22 27 7 -30 6 -30 -19 22 c-10 12 -22 19 -26 15 -4 -4 -5 6 -1 23 7 29 21 45 41 45 6 0 3 -5 -5 -11z m-2067 -18 c29 -6 29 -7 13 -24 -23 -23 -36 -22 -36 4 0 19 -4 20 -32 15 -56 -12 -91 -11 -95 1 -3 8 13 13 49 15 29 2 57 1 62 -1 5 -2 23 -7 39 -10z m1110 -33 l-11 -33 -1 45 c-1 33 2 41 11 32 8 -8 8 -20 1 -44z m387 48 c0 -3 -26 -12 -57 -21 -37 -11 -52 -19 -43 -25 8 -5 -5 -13 -41 -25 -30 -9 -61 -19 -69 -22 -12 -5 -11 -3 1 10 9 9 29 19 43 23 15 3 25 9 22 11 -8 8 -75 -17 -92 -34 -8 -8 -18 -12 -21 -9 -13 13 25 37 103 65 68 25 154 40 154 27z m445 -36 c8 0 15 5 15 10 0 18 18 10 23 -11 3 -11 15 -23 26 -26 11 -3 30 -20 41 -38 22 -35 27 -60 7 -34 -7 9 -22 19 -34 23 -13 4 -30 20 -39 35 -12 20 -23 27 -35 24 -11 -3 -31 3 -46 12 -28 18 -28 18 -10 -2 21 -24 22 -33 3 -33 -8 0 -22 10 -30 22 -9 12 -19 19 -22 15 -4 -4 5 -24 20 -45 14 -21 26 -40 26 -43 0 -3 -13 -4 -29 -1 -18 2 -28 9 -25 16 3 7 -7 18 -21 24 -18 8 -25 8 -25 1 0 -8 -5 -7 -15 1 -14 11 -12 15 12 30 16 9 36 26 46 37 18 20 18 20 57 2 21 -11 46 -19 55 -19z m-1170 -20 c3 -10 19 -32 35 -49 30 -30 38 -51 22 -51 -5 0 -14 10 -19 23 -16 35 -4 -80 13 -126 16 -43 19 -127 4 -127 -5 0 -10 12 -10 26 0 14 -11 48 -25 76 -20 40 -23 53 -14 70 18 34 3 88 -37 129 -33 33 -34 38 -18 47 22 12 42 6 49 -18z m865 -20 c-10 -19 -40 -28 -40 -12 0 13 23 32 37 32 11 0 11 -5 3 -20z m328 -17 c2 -9 -8 -13 -33 -13 -33 0 -36 2 -25 15 15 18 51 16 58 -2z m-864 -52 c-3 -3 -9 1 -14 9 -8 12 -10 11 -11 -5 0 -11 -3 -15 -5 -9 -3 6 1 24 7 40 l12 29 8 -29 c5 -17 6 -32 3 -35z m764 1 c18 -2 32 -10 32 -18 0 -23 -20 -26 -48 -8 -15 10 -31 19 -36 19 -5 0 -11 6 -14 14 -4 11 0 12 14 6 11 -4 34 -10 52 -13z m-1105 -72 c-5 -43 -2 -54 21 -84 14 -19 26 -40 26 -47 0 -8 -15 10 -34 39 -33 52 -39 85 -22 125 13 28 15 20 9 -33z m126 -96 c5 3 11 -1 15 -9 3 -8 1 -15 -4 -15 -6 0 -10 -9 -10 -21 0 -11 5 -17 10 -14 19 11 10 -10 -9 -25 -11 -7 -18 -17 -15 -22 3 -5 0 -7 -8 -6 -7 2 -14 -8 -16 -22 -4 -28 -15 -43 -36 -46 -18 -2 -8 36 22 86 18 28 20 45 16 95 l-5 60 15 -33 c9 -18 20 -31 25 -28z m21 -166 c0 -5 -4 -7 -10 -3 -11 7 -81 -86 -73 -98 2 -4 -1 -6 -8 -5 -6 2 -12 -7 -14 -19 -1 -13 -5 -26 -10 -30 -4 -5 -5 2 -2 15 3 12 2 22 -3 22 -12 0 23 63 61 108 25 30 37 38 46 30 7 -6 13 -15 13 -20z"/> <path d="M1519 3503 c-10 -11 -10 -14 -1 -9 8 5 12 0 12 -17 0 -16 -7 -26 -20 -30 -16 -4 -20 -14 -20 -51 0 -25 5 -46 10 -46 6 0 8 15 4 40 -8 47 6 53 26 13 l14 -28 4 28 c3 22 7 27 21 22 11 -3 24 2 32 12 12 16 12 17 -2 6 -12 -10 -18 -10 -28 0 -10 9 -16 8 -28 -8 -16 -20 -16 -20 -8 0 13 34 18 85 7 85 -5 0 -16 -8 -23 -17z"/> <path d="M1107 3503 c-4 -3 -7 -15 -7 -26 0 -15 -3 -17 -14 -8 -18 15 -40 -11 -33 -39 3 -11 1 -20 -4 -20 -5 0 -9 -9 -9 -19 0 -10 -7 -22 -16 -25 -12 -5 -15 -14 -11 -35 8 -39 -18 -49 -44 -19 -18 22 -19 22 -34 4 -13 -17 -12 -22 6 -47 11 -16 25 -29 30 -29 11 0 4 16 -19 43 -8 9 -12 20 -8 24 4 4 15 -2 24 -15 14 -18 20 -20 30 -10 9 9 12 6 12 -16 0 -16 4 -25 10 -21 6 4 9 28 6 58 l-4 51 18 -24 c23 -30 34 -22 21 14 -9 21 -8 26 4 26 12 0 14 9 9 43 -4 33 -3 38 6 25 6 -10 16 -18 21 -18 6 0 7 5 4 10 -3 6 -3 20 1 32 7 22 7 22 14 3 4 -11 7 -48 6 -82 -2 -50 1 -60 11 -51 7 6 13 19 13 29 0 11 4 19 9 19 6 0 6 -12 -1 -31 -6 -16 -8 -33 -5 -36 3 -3 9 6 13 21 3 14 10 23 15 20 5 -3 9 4 9 16 0 11 -7 23 -15 26 -8 4 -15 12 -15 20 0 8 -4 14 -9 14 -5 0 -11 18 -15 40 -6 38 -15 48 -29 33z"/> <path d="M1985 3490 c-3 -11 -4 -24 -1 -29 4 -5 1 -11 -6 -13 -9 -3 -9 -17 2 -62 15 -63 37 -91 27 -35 -3 19 -9 43 -13 54 -6 15 -1 14 19 -8 15 -15 27 -23 27 -18 0 26 20 7 26 -24 8 -42 23 -55 31 -26 7 29 23 26 23 -4 0 -14 4 -25 8 -25 17 0 21 13 11 31 -7 13 -6 26 1 40 7 11 9 32 5 46 -5 21 -10 24 -34 20 -23 -5 -30 -1 -46 29 -11 20 -24 33 -31 30 -8 -3 -16 -1 -19 4 -10 16 -23 11 -30 -10z m36 -27 c10 -24 12 -25 18 -10 5 14 12 6 33 -37 15 -29 24 -57 21 -60 -3 -3 -13 9 -22 27 -9 18 -24 32 -34 32 -21 0 -37 22 -37 53 0 30 8 28 21 -5z m109 -73 c0 -22 -4 -28 -15 -24 -15 6 -21 45 -9 57 12 12 24 -4 24 -33z"/> <path d="M1223 3384 c-3 -7 -2 -18 2 -24 3 -5 -1 -17 -9 -26 -18 -17 -22 -74 -6 -74 6 0 10 12 11 28 0 15 3 21 6 15 12 -31 24 -10 19 35 -3 26 -3 39 0 30 3 -10 9 -18 14 -18 5 0 11 8 13 18 3 9 5 0 6 -20 1 -38 21 -55 21 -19 0 11 5 23 10 26 6 4 10 -5 10 -20 0 -15 4 -24 10 -20 13 8 13 62 1 70 -5 3 -12 1 -16 -5 -9 -14 -25 -12 -25 3 0 18 -60 18 -67 1z"/> <path d="M1602 3378 c-7 -7 -11 -28 -11 -47 1 -27 3 -30 6 -11 9 52 13 57 33 30 24 -32 37 -20 15 14 -19 29 -26 31 -43 14z"/> <path d="M415 3355 c5 -11 9 -35 9 -52 1 -18 4 -33 9 -33 4 0 7 5 7 10 0 6 4 10 8 10 5 0 8 -19 6 -42 -3 -40 -3 -41 8 -18 12 25 12 24 16 -12 3 -39 15 -50 26 -23 3 8 1 15 -4 15 -5 0 -8 19 -7 42 1 25 -3 43 -9 43 -13 0 -44 30 -44 43 0 5 -8 16 -17 23 -15 13 -16 12 -8 -6z"/> <path d="M373 3345 c-3 -9 -2 -33 1 -53 4 -20 8 -44 8 -52 0 -24 20 -70 30 -70 5 0 4 9 -2 19 -12 24 -13 34 -1 27 5 -3 1 17 -10 44 -22 58 -25 102 -4 55 12 -26 14 -27 15 -8 1 45 -24 71 -37 38z"/> <path d="M1940 3332 c0 -16 7 -36 17 -43 15 -13 15 -12 4 10 -10 17 -10 25 -2 31 9 5 8 10 -4 20 -13 11 -15 8 -15 -18z"/> <path d="M1180 3328 c0 -7 -3 -24 -6 -38 -5 -17 -3 -22 3 -15 15 15 25 65 13 65 -5 0 -10 -6 -10 -12z"/> <path d="M1881 3301 c-12 -21 4 -81 20 -81 6 0 5 9 -1 21 -6 11 -10 30 -8 42 4 21 5 21 18 -5 7 -15 17 -25 21 -22 11 6 -18 64 -31 64 -5 0 -14 -9 -19 -19z"/> <path d="M1092 3284 c-2 -32 14 -64 33 -64 8 0 15 -4 15 -10 0 -5 9 -10 20 -10 14 0 20 6 19 23 -1 17 -2 18 -6 4 -7 -27 -23 -10 -24 26 -1 28 -2 29 -7 9 -11 -36 -27 -31 -30 11 -4 42 -17 50 -20 11z"/> <path d="M1058 3250 c-1 -11 -2 -28 -2 -37 -1 -10 -6 -22 -13 -28 -18 -16 -21 -70 -3 -70 10 0 14 8 12 23 -2 12 2 22 7 22 6 0 11 12 11 26 0 14 4 23 10 19 11 -7 13 24 4 49 -9 22 -24 20 -26 -4z"/> <path d="M1282 3199 c0 -32 4 -46 9 -37 7 10 9 9 9 -4 0 -10 5 -18 10 -18 15 0 12 40 -2 40 -7 0 -5 5 5 11 21 12 23 33 2 25 -10 -4 -15 1 -15 14 0 11 -4 20 -10 20 -5 0 -9 -23 -8 -51z"/> <path d="M342 3208 c-7 -7 -12 -19 -11 -27 0 -11 2 -12 6 -3 10 26 23 10 23 -30 1 -40 2 -42 15 -24 8 11 15 16 16 10 1 -5 2 -20 2 -33 1 -13 7 -26 14 -28 16 -6 9 73 -8 94 -12 13 -14 13 -20 -4 -6 -13 -8 -10 -8 14 -1 36 -12 48 -29 31z"/> <path d="M1205 3170 c3 -50 24 -75 55 -65 14 4 19 12 16 22 -3 8 -6 21 -6 29 0 8 -4 14 -10 14 -5 0 -10 -12 -10 -26 0 -38 -24 -24 -26 15 -1 18 -6 37 -12 43 -6 6 -9 -5 -7 -32z"/> <path d="M1113 3160 c-3 -11 -11 -20 -18 -20 -7 0 -16 -7 -19 -16 -4 -12 -2 -15 9 -10 10 4 15 -1 15 -14 0 -11 5 -20 10 -20 6 0 10 18 10 40 0 23 5 40 11 40 8 0 10 -12 6 -35 -3 -19 -2 -35 2 -35 11 0 22 56 15 75 -9 22 -35 18 -41 -5z"/> <path d="M447 3120 c-8 -11 -18 -17 -22 -12 -5 4 0 -5 11 -20 10 -15 26 -28 34 -28 11 0 11 3 2 12 -17 17 -15 48 4 48 8 0 12 5 9 10 -10 15 -22 12 -38 -10z"/> <path d="M686 3113 c10 -46 13 -53 25 -53 8 0 7 5 -2 17 -12 15 -12 16 4 10 10 -4 20 -7 23 -7 2 0 1 -8 -3 -17 -5 -15 -3 -16 8 -5 20 18 31 15 27 -10 -2 -18 -11 -24 -35 -26 -24 -2 -33 -8 -33 -22 0 -22 36 -68 46 -58 4 5 0 16 -9 26 -18 19 -23 42 -9 42 4 0 15 -14 24 -30 9 -17 22 -30 29 -30 8 0 6 7 -5 19 -14 15 -15 23 -5 47 7 17 13 24 16 16 3 -7 0 -18 -6 -25 -7 -10 -4 -20 15 -40 24 -26 64 -37 64 -17 0 6 -5 10 -11 10 -7 0 -18 8 -26 18 -8 9 -11 11 -7 3 5 -9 3 -12 -4 -7 -7 4 -12 14 -12 22 0 9 5 12 11 8 12 -7 12 -6 -10 39 -19 36 -5 48 19 17 10 -14 21 -22 24 -19 9 9 -33 59 -49 59 -7 0 -15 -8 -17 -17 -3 -14 -11 -10 -44 20 -49 44 -56 46 -48 10z"/> <path d="M917 3127 c-7 -18 18 -57 37 -57 5 0 2 8 -6 18 -9 9 -18 26 -20 37 -3 18 -4 18 -11 2z"/> <path d="M571 3125 c0 -15 47 -70 54 -63 4 3 -7 21 -24 40 -17 18 -30 29 -30 23z"/> <path d="M1182 3100 c-1 -14 -9 -37 -16 -52 -8 -16 -11 -28 -6 -28 16 0 31 40 27 73 -3 25 -4 27 -5 7z"/> <path d="M1235 3050 c-3 -6 -11 -8 -16 -5 -5 4 -9 -4 -9 -17 1 -20 2 -21 11 -5 5 9 14 17 19 17 16 0 11 -27 -10 -62 -22 -36 -26 -73 -9 -84 8 -4 9 0 4 15 -3 11 -2 29 4 38 9 15 10 14 11 -10 0 -17 4 -26 10 -22 6 4 11 23 10 43 0 20 1 50 3 66 2 29 -16 46 -28 26z"/> <path d="M1130 2972 c0 -54 -16 -112 -32 -112 -5 0 -6 -4 -3 -10 12 -19 23 -10 39 30 18 45 21 125 6 135 -6 4 -10 -13 -10 -43z"/> <path d="M156 2991 c-13 -20 -3 -103 15 -125 23 -29 24 -36 5 -36 -21 0 -30 -20 -17 -33 8 -8 11 -6 11 7 0 14 6 12 29 -13 28 -30 51 -40 51 -23 0 5 -11 14 -25 20 -14 6 -25 16 -25 22 0 6 11 3 25 -6 28 -18 34 -8 8 12 -17 13 -17 14 1 7 29 -10 10 16 -19 27 -13 5 -29 19 -36 32 -9 19 -9 21 2 11 23 -23 33 -14 11 10 -20 22 -40 77 -28 77 4 0 11 -12 17 -26 5 -15 12 -24 16 -21 7 8 -17 67 -28 67 -4 0 -10 -4 -13 -9z"/> <path d="M217 2964 c-13 -13 -7 -41 13 -65 l19 -24 0 25 c0 30 -22 74 -32 64z"/> <path d="M2514 2933 c1 -21 6 -42 12 -48 6 -5 19 -32 28 -59 19 -58 19 -59 6 -51 -5 3 -10 -2 -11 -12 0 -16 -1 -16 -9 2 -12 27 -12 37 0 30 5 -3 0 13 -13 37 -27 54 -34 36 -13 -37 9 -30 15 -59 14 -66 -2 -6 3 -14 10 -16 6 -3 12 0 12 6 0 6 4 11 9 11 4 0 6 -10 4 -22 -5 -25 21 -68 33 -56 4 4 1 14 -6 23 -9 11 -9 15 -1 15 8 0 9 5 1 19 -5 11 -10 27 -10 37 0 13 3 14 15 4 20 -17 20 4 0 24 -16 16 -11 71 5 61 5 -3 11 -1 15 5 12 20 25 9 25 -21 0 -27 2 -30 15 -19 13 10 15 9 15 -8 0 -12 -4 -24 -10 -27 -5 -3 -10 -14 -10 -23 0 -13 5 -12 20 8 23 29 26 58 6 66 -8 3 -17 16 -20 30 -7 26 -25 31 -44 12 -9 -9 -12 -9 -12 0 0 7 -4 12 -10 12 -5 0 -10 -9 -10 -20 0 -11 -5 -20 -11 -20 -7 0 -9 11 -6 28 13 62 12 67 -5 66 -10 -1 -19 8 -22 22 -10 37 -23 28 -22 -13z"/> <path d="M2125 2878 c-22 -12 -35 -23 -28 -25 15 -5 73 24 73 37 0 12 3 13 -45 -12z"/> <path d="M2176 2863 c-4 -13 -16 -23 -27 -23 -10 0 -19 -4 -19 -10 0 -14 23 -12 44 3 10 8 16 22 14 33 -4 17 -5 17 -12 -3z"/> <path d="M60 2832 c0 -5 6 -12 14 -15 8 -3 20 -22 27 -41 7 -20 17 -36 21 -36 15 0 8 27 -14 60 -23 34 -48 50 -48 32z"/> <path d="M877 2834 c-4 -4 -7 -17 -6 -28 0 -20 1 -20 8 -1 8 19 8 19 19 0 6 -11 14 -16 18 -12 4 4 -1 17 -12 28 -11 11 -23 16 -27 13z"/> <path d="M1556 2781 c-10 -11 -24 -17 -32 -14 -15 6 -19 -24 -8 -64 9 -33 27 -28 19 5 -4 22 0 33 20 52 32 30 42 20 26 -25 -8 -24 -9 -40 -2 -52 9 -15 10 -13 11 14 0 35 17 53 31 32 4 -7 11 -11 14 -7 3 3 0 12 -8 20 -8 7 -19 23 -26 36 -14 27 -23 28 -45 3z"/> <path d="M235 2741 c-6 -11 25 -31 46 -31 7 0 3 9 -9 20 -24 23 -28 24 -37 11z"/> <path d="M956 2733 c-5 -12 -9 -14 -18 -5 -16 16 -28 15 -28 -2 0 -21 43 -29 57 -10 10 14 12 13 21 -3 6 -10 13 -15 16 -12 7 7 -22 49 -33 49 -5 0 -12 -8 -15 -17z"/> <path d="M1426 2668 c8 -27 33 -58 47 -58 6 0 3 8 -5 18 -30 35 -32 45 -7 37 21 -7 22 -6 10 9 -7 9 -22 16 -33 16 -15 0 -18 -5 -12 -22z"/> <path d="M1694 2675 c-5 -11 -11 -12 -24 -5 -31 17 -37 11 -10 -10 34 -27 50 -25 50 5 0 28 -8 33 -16 10z"/> <path d="M2330 2640 c0 -19 11 -41 31 -62 l30 -33 -26 48 c-30 52 -27 71 5 42 11 -10 20 -14 20 -8 0 13 -33 43 -48 43 -7 0 -12 -13 -12 -30z"/> <path d="M754 2643 c-3 -13 -10 -20 -15 -17 -12 7 -11 -47 0 -65 7 -11 11 -4 16 25 10 59 11 61 25 32 15 -32 30 -36 30 -9 0 39 20 31 26 -10 5 -31 9 -37 16 -26 10 18 -15 87 -31 87 -5 0 -13 -9 -16 -20 -6 -20 -7 -20 -26 2 l-19 23 -6 -22z"/> <path d="M992 2643 c-10 -19 -6 -39 10 -60 8 -10 13 -9 25 2 16 16 10 46 -12 65 -11 9 -16 7 -23 -7z"/> <path d="M880 2642 c0 -4 6 -14 13 -21 10 -10 9 -11 -4 -6 -10 4 -20 2 -23 -3 -3 -6 1 -13 10 -16 13 -5 15 -14 10 -41 -8 -43 8 -47 22 -5 8 20 8 32 0 36 -6 4 -7 9 0 13 12 7 -3 51 -18 51 -5 0 -10 -4 -10 -8z"/> <path d="M2271 2640 c-12 -7 -13 -17 -5 -46 5 -21 15 -39 22 -42 11 -3 12 0 2 18 -7 13 -8 25 -3 29 5 3 7 16 4 28 -4 17 -10 20 -20 13z"/> <path d="M2673 2625 c-9 -16 -13 -17 -27 -6 -14 12 -16 11 -16 -8 0 -14 6 -21 19 -21 22 0 45 24 39 42 -3 8 -8 6 -15 -7z"/> <path d="M1742 2607 c-12 -13 -22 -30 -22 -38 0 -8 10 -2 23 15 28 34 50 28 41 -12 -4 -23 -4 -25 6 -9 14 22 5 67 -13 67 -8 0 -23 -10 -35 -23z"/> <path d="M1875 2610 c-14 -17 -30 -60 -21 -60 3 0 13 15 22 32 15 29 18 31 24 13 7 -19 7 -19 19 0 10 16 11 16 7 3 -6 -21 7 -24 22 -5 27 32 -45 49 -73 17z"/> <path d="M1403 2604 c-3 -9 -2 -28 3 -43 10 -29 44 -42 44 -17 0 9 -6 16 -14 16 -17 0 -28 24 -20 45 4 8 3 15 0 15 -4 0 -9 -7 -13 -16z"/> <path d="M2500 2595 c0 -8 -6 -15 -12 -15 -7 0 0 -12 14 -27 15 -15 31 -23 35 -19 4 4 -1 14 -12 22 -11 8 -19 24 -17 34 2 11 1 20 -2 20 -3 0 -6 -7 -6 -15z"/> <path d="M2410 2586 c0 -20 71 -96 89 -96 18 0 12 18 -9 25 -10 3 -33 25 -50 47 -20 29 -30 36 -30 24z"/> <path d="M1667 2553 c-4 -3 -7 -17 -7 -30 0 -25 -19 -30 -38 -11 -6 6 -14 9 -17 6 -9 -9 25 -38 45 -38 12 0 20 -10 24 -35 7 -33 29 -55 58 -55 7 0 0 11 -16 24 -27 21 -30 29 -30 84 -1 59 -5 70 -19 55z"/> <path d="M1545 2540 c3 -5 17 -10 31 -10 13 0 24 5 24 10 0 6 -14 10 -31 10 -17 0 -28 -4 -24 -10z"/> <path d="M1839 2527 c-18 -12 -34 -28 -37 -35 -2 -7 13 -1 33 13 40 27 59 25 50 -6 -8 -25 11 -25 24 0 10 19 6 27 -25 44 -6 4 -26 -3 -45 -16z"/> <path d="M2015 2530 c-10 -11 -30 -20 -45 -20 -17 0 -30 -7 -34 -17 -3 -10 -9 -24 -12 -31 -4 -8 0 -10 10 -6 9 3 16 12 16 20 0 8 10 14 23 15 26 1 79 30 85 47 6 19 -23 14 -43 -8z"/> <path d="M2400 2536 c0 -13 39 -67 40 -55 0 9 -31 69 -36 69 -2 0 -4 -6 -4 -14z"/> <path d="M766 2477 c10 -27 73 -62 87 -48 8 8 5 11 -12 11 -12 0 -19 4 -16 10 3 6 -2 10 -11 10 -10 0 -26 8 -36 17 -17 16 -18 16 -12 0z"/> <path d="M2010 2475 c-32 -12 -33 -14 -9 -14 14 -1 34 6 45 14 23 18 10 18 -36 0z"/> <path d="M2470 2443 c0 -5 5 -14 12 -21 9 -9 7 -13 -6 -18 -11 -4 -22 0 -31 12 -8 11 -15 14 -15 7 0 -14 27 -43 41 -43 5 0 12 6 15 14 3 8 20 17 37 22 l32 7 -30 5 c-16 2 -36 8 -42 14 -7 6 -13 6 -13 1z"/> <path d="M2275 2390 c10 -37 65 -80 65 -51 0 5 -9 13 -20 16 -11 3 -20 10 -20 14 0 4 -7 16 -16 27 -14 18 -15 18 -9 -6z"/> <path d="M120 2151 c0 -5 7 -17 16 -26 15 -15 15 -17 0 -34 -22 -24 -20 -31 7 -31 21 0 67 36 67 53 0 4 -9 7 -19 7 -32 0 -50 11 -44 26 3 8 -1 14 -11 14 -9 0 -16 -4 -16 -9z"/> <path d="M1561 1566 c-12 -19 -19 -40 -16 -48 3 -8 -5 -23 -17 -34 -18 -15 -20 -16 -9 -1 8 9 12 20 9 23 -6 5 -52 -53 -61 -79 -4 -10 -11 -16 -15 -13 -5 3 -31 -26 -57 -64 -35 -51 -49 -81 -52 -117 -4 -33 -13 -55 -29 -71 -13 -13 -24 -32 -24 -43 0 -25 -80 -138 -97 -138 -7 -1 -13 -6 -13 -12 0 -16 41 0 63 25 10 11 15 15 12 7 -5 -9 1 -7 19 4 31 20 50 10 22 -11 -15 -11 -16 -14 -4 -14 25 0 88 68 88 96 0 14 7 39 16 56 13 24 13 32 3 39 -10 6 -10 11 2 25 12 15 12 17 -1 12 -8 -3 -15 -17 -15 -31 -1 -15 -6 -32 -13 -39 -7 -7 -12 -17 -12 -23 0 -7 -9 -20 -19 -29 -19 -17 -19 -52 0 -40 5 3 9 1 9 -5 0 -5 -4 -13 -10 -16 -5 -3 -10 -1 -10 6 0 6 -8 9 -20 6 -11 -3 -20 -4 -20 -3 0 31 80 167 115 196 10 8 15 27 14 49 -2 42 76 186 101 186 17 0 65 68 51 73 -14 5 -2 32 15 32 8 0 14 7 14 15 0 25 -17 17 -39 -19z m-167 -271 c-8 -30 -9 -43 -2 -39 6 4 9 1 7 -5 -3 -7 -8 -12 -13 -11 -5 1 -13 -4 -18 -12 -13 -17 -1 35 17 79 20 48 25 41 9 -12z"/> <path d="M1516 1277 l-29 -24 16 -48 c10 -27 17 -57 17 -67 0 -11 7 -33 16 -50 8 -16 17 -42 18 -57 3 -20 9 -27 32 -29 l29 -4 -21 24 c-29 31 -37 68 -38 170 -1 50 -5 84 -10 80 -5 -3 -7 2 -3 11 8 22 8 21 -27 -6z m21 -59 c1 -52 1 -52 -14 -24 -12 22 -12 34 -4 52 6 13 12 24 14 24 2 0 4 -23 4 -52z"/> <path d="M1461 1266 c-7 -13 -14 -41 -16 -62 -9 -104 -48 -187 -99 -212 -33 -16 -27 -27 9 -18 17 4 35 24 56 61 17 30 35 58 40 61 5 3 6 16 3 30 -4 15 0 34 10 49 18 28 21 39 6 30 -14 -8 -5 44 10 59 12 12 13 26 2 26 -5 0 -14 -11 -21 -24z"/> <path d="M1465 1149 c-8 -12 4 -49 15 -49 4 0 6 -9 3 -20 -3 -11 -10 -20 -17 -20 -13 0 -40 -39 -32 -47 3 -3 11 -1 19 5 14 12 21 9 91 -35 20 -12 36 -18 36 -12 0 5 -13 18 -30 27 -30 17 -57 72 -45 92 4 6 1 17 -5 25 -6 8 -9 18 -6 24 3 5 -1 11 -9 15 -8 3 -17 1 -20 -5z"/> <path d="M1487 919 c-10 -6 -25 -8 -32 -5 -21 8 -27 -10 -10 -24 22 -19 22 -316 -1 -348 -15 -22 -15 -22 40 -22 31 0 56 5 56 10 0 6 -5 10 -10 10 -7 0 -10 65 -8 195 2 125 -1 195 -7 195 -5 0 -18 -5 -28 -11z"/> <path d="M973 879 c-66 -19 -94 -99 -53 -151 10 -14 46 -35 78 -46 89 -33 122 -82 81 -123 -35 -35 -94 -22 -141 32 -41 45 -44 41 -32 -34 6 -30 9 -35 21 -26 10 9 20 9 39 0 35 -16 100 -14 134 4 42 22 57 78 36 128 -12 30 -25 42 -63 58 -83 34 -97 44 -107 72 -12 33 15 67 53 67 32 0 86 -32 101 -60 17 -32 22 -18 15 34 -6 36 -10 44 -20 36 -8 -7 -25 -6 -55 5 -48 17 -43 17 -87 4z"/> <path d="M1174 771 c8 -9 37 -66 65 -128 37 -80 50 -118 46 -136 -7 -27 -40 -67 -55 -67 -14 0 -31 37 -24 54 11 28 -26 18 -38 -10 -11 -23 -10 -29 11 -45 28 -23 59 -24 87 -4 25 17 31 32 79 195 21 69 44 133 53 143 14 16 13 17 -19 17 -33 0 -34 -1 -35 -43 -1 -53 -23 -133 -33 -121 -15 17 -53 134 -48 146 3 10 -10 13 -49 14 -48 0 -52 -2 -40 -15z"/> <path d="M1579 769 c11 -10 37 -70 57 -134 46 -137 63 -149 89 -57 41 142 50 168 69 190 l19 22 -37 0 c-32 0 -37 -3 -32 -17 7 -17 -24 -153 -35 -153 -8 0 -45 130 -42 150 1 12 -11 15 -53 16 -54 2 -55 1 -35 -17z"/> <path d="M1874 771 c-45 -27 -46 -34 -13 -53 29 -17 29 -17 29 6 0 33 25 53 45 36 16 -13 20 -47 7 -66 -4 -6 -23 -19 -42 -29 -55 -27 -70 -45 -70 -81 0 -23 7 -38 22 -48 28 -20 72 -21 88 -1 10 12 15 12 36 -2 21 -13 29 -14 52 -3 l27 12 -22 9 c-22 8 -23 14 -23 103 0 90 -1 95 -26 115 -33 26 -70 27 -110 2z m76 -160 c0 -41 -4 -51 -20 -56 -27 -9 -40 1 -40 32 0 25 34 73 52 73 4 0 8 -22 8 -49z"/> <path d="M248 243 c3 -41 0 -68 -8 -78 -11 -13 -8 -15 19 -15 28 0 30 2 20 19 -7 10 -9 27 -5 37 6 16 10 14 29 -16 24 -39 37 -51 49 -44 5 3 -3 19 -17 36 -23 28 -24 32 -10 48 35 39 9 80 -51 78 l-30 -1 4 -64z m61 33 c15 -18 3 -46 -20 -46 -13 0 -19 7 -19 23 0 37 18 48 39 23z"/> <path d="M494 298 c-2 -3 0 -9 6 -13 14 -9 13 -108 -2 -123 -9 -9 0 -12 44 -12 47 0 56 3 61 19 7 29 -2 32 -24 10 -26 -26 -43 -20 -47 14 -3 23 0 27 22 27 14 0 26 5 26 10 0 6 -11 10 -25 10 -18 0 -25 5 -25 20 0 27 29 38 45 17 17 -24 25 -21 25 8 0 24 -3 25 -51 23 -28 -1 -53 -6 -55 -10z"/> <path d="M768 299 c-31 -18 -22 -57 17 -80 39 -23 45 -44 15 -54 -24 -8 -40 1 -40 21 0 8 -4 14 -10 14 -5 0 -10 -11 -10 -24 0 -28 37 -39 72 -22 35 17 30 56 -9 81 -18 11 -32 26 -33 33 0 21 32 27 45 9 17 -24 27 -21 23 6 -3 25 -41 34 -70 16z"/> <path d="M976 302 c-8 -7 -7 -42 0 -42 4 0 12 7 19 17 7 9 17 13 22 10 12 -8 5 -107 -9 -124 -8 -10 -2 -13 26 -13 36 0 48 13 21 23 -11 5 -13 18 -8 59 7 63 10 69 27 45 18 -24 28 -21 24 6 -3 20 -9 22 -60 23 -31 1 -59 -1 -62 -4z"/> <path d="M1272 294 c-5 -11 -17 -43 -28 -71 -10 -29 -22 -53 -26 -53 -4 0 -8 -4 -8 -10 0 -5 15 -10 33 -9 17 0 26 3 20 6 -23 9 -15 40 11 45 29 6 43 -17 25 -38 -9 -12 -4 -14 27 -14 34 1 37 2 22 13 -9 7 -24 40 -33 72 -20 71 -30 84 -43 59z"/> <path d="M1475 299 c-3 -4 -1 -10 5 -14 5 -3 10 -30 10 -59 0 -60 12 -76 55 -76 43 0 55 16 55 76 0 29 5 56 10 59 18 11 10 25 -14 25 -25 0 -44 -15 -27 -22 8 -3 15 -55 12 -100 -1 -23 -56 -25 -65 -2 -10 25 -7 92 4 99 6 3 10 10 10 14 0 11 -49 11 -55 0z"/> <path d="M1755 299 c-4 -5 -1 -9 4 -9 15 0 14 -113 -1 -128 -9 -9 -4 -12 22 -12 26 0 31 3 22 12 -14 14 -16 58 -2 58 5 0 15 -10 21 -22 19 -37 40 -57 54 -52 8 4 3 15 -17 35 l-29 29 20 26 c34 43 7 71 -66 72 -13 1 -25 -3 -28 -9z m73 -18 c21 -13 10 -46 -16 -49 -23 -3 -28 11 -16 42 7 18 13 19 32 7z"/> <path d="M2045 263 c-9 -27 -26 -63 -36 -80 l-18 -33 37 1 c20 1 29 3 20 6 -25 6 -22 32 5 42 12 5 25 7 30 4 12 -7 8 -41 -5 -46 -7 -3 5 -6 26 -6 37 -1 38 0 23 17 -8 9 -20 37 -27 62 -18 73 -21 80 -29 80 -5 0 -16 -21 -26 -47z m35 -30 c0 -7 -7 -13 -15 -13 -16 0 -19 9 -9 35 5 13 8 14 15 3 5 -7 9 -19 9 -25z"/> <path d="M2260 300 c0 -5 5 -10 10 -10 14 0 12 -114 -2 -128 -9 -9 -5 -12 21 -12 28 0 31 2 22 14 -7 8 -11 34 -9 57 l3 43 40 -65 40 -64 7 65 c4 36 10 75 12 86 5 18 1 22 -19 22 -14 0 -25 -4 -25 -9 0 -5 5 -9 10 -9 6 0 10 -24 10 -52 l0 -53 -37 55 c-20 30 -41 58 -47 62 -16 11 -36 10 -36 -2z"/> <path d="M2534 288 c-8 -26 5 -38 17 -15 6 9 17 17 24 17 23 0 21 -109 -2 -126 -16 -12 -13 -13 27 -13 40 0 43 1 28 13 -14 10 -18 28 -18 70 0 60 4 65 32 39 17 -15 18 -15 18 9 0 25 -2 26 -60 26 -50 0 -60 -3 -66 -20z"/> </g> </svg> 